<svg width="108" height="28" viewBox="0 0 108 28" fill="none" xmlns="http://www.w3.org/2000/svg">
<path fill-rule="evenodd" clip-rule="evenodd" d="M11.6875 20.959H7.52443L9.88699 14.3C7.71284 12.6846 4.6258 12.8631 2.65338 14.8355L0 12.1821C3.02835 9.15377 7.62464 8.64899 11.1757 10.6678L14.9606 0H18.9801L26.4162 20.959H22.2531L20.809 16.787C18.374 17.8485 15.5775 17.8182 13.1631 16.6961L11.6875 20.959ZM14.4016 13.1178C16.0023 14.0028 17.9473 14.0375 19.575 13.2217L16.9703 5.68476L14.4016 13.1178ZM65.1726 21.2461C67.0388 21.2461 68.5604 20.4709 69.5079 19.3512V20.3961C69.5079 20.707 69.7599 20.959 70.0708 20.959H73.4413V0H69.5079V8.01034C68.5604 7.00546 67.0962 6.3164 65.23 6.3164C61.9857 6.3164 58.2532 8.69941 58.2532 13.7812C58.2532 18.8344 62.1292 21.2461 65.1726 21.2461ZM65.9478 17.6285C63.7657 17.6285 62.1005 15.9633 62.1005 13.7525C62.1005 11.5418 63.7657 9.90527 65.9478 9.90527C68.0724 9.90527 69.6228 11.6279 69.6228 13.7525C69.6228 15.8771 68.0724 17.6285 65.9478 17.6285ZM81.9393 21.2461C83.8055 21.2461 85.3272 20.4709 86.2747 19.3512V20.3961C86.2747 20.707 86.5267 20.959 86.8375 20.959H90.2081V6.60353H86.8375C86.5267 6.60353 86.2747 6.85554 86.2747 7.1664V8.01036C85.3272 7.00548 83.8629 6.31642 81.9967 6.31642C78.7524 6.31642 75.02 8.69943 75.02 13.7813C75.02 18.8344 78.896 21.2461 81.9393 21.2461ZM82.7145 17.6285C80.5325 17.6285 78.8673 15.9633 78.8673 13.7526C78.8673 11.5418 80.5325 9.90529 82.7145 9.90529C84.8391 9.90529 86.3895 11.6279 86.3895 13.7526C86.3895 15.8772 84.8391 17.6285 82.7145 17.6285ZM36.4028 6.04308C34.1347 6.04308 32.412 7.02734 31.4646 8.17578V7.17373C31.4646 6.86287 31.2126 6.61087 30.9017 6.61087H27.9331V20.9728H31.9814V13.4218C31.9814 10.8665 33.1872 9.37354 35.2831 9.37354C37.3216 9.37354 38.2691 10.6942 38.2691 13.1921V20.9728H42.3173V12.9624C42.3173 7.59347 39.4175 6.04308 36.4028 6.04308ZM45.6302 27.9625H48.6207C49.236 27.9625 49.789 27.5869 50.0159 27.015L58.1281 6.56678H53.9719L50.6059 15.5817L47.0058 6.56678H42.7911L48.6156 20.5574L45.6302 27.9625ZM97.5095 28H94.519L97.5044 20.5949L91.6799 6.60431H95.8946L99.4947 15.6192L102.861 6.60431H107.017L98.9047 27.0525C98.6778 27.6245 98.1248 28 97.5095 28Z" fill="#212930"/>
</svg>
