<?xml version="1.0" encoding="iso-8859-1"?>
<!-- Generator: Adobe Illustrator 16.0.0, SVG Export Plug-In . SVG Version: 6.00 Build 0)  -->
<!DOCTYPE svg PUBLIC "-//W3C//DTD SVG 1.1//EN" "http://www.w3.org/Graphics/SVG/1.1/DTD/svg11.dtd">
<svg version="1.1" xmlns="http://www.w3.org/2000/svg" xmlns:xlink="http://www.w3.org/1999/xlink" x="0px" y="0px"
	 width="242.65px" height="153.01px" viewBox="0 0 242.65 153.01" style="enable-background:new 0 0 242.65 153.01;"
	 xml:space="preserve">
<g id="bank-axess">
	<rect x="8.372" y="5.639" style="fill:#FFFFFF;" width="226.866" height="141.732"/>
	<path style="fill:#69207E;" d="M51.647,143.369h168.248c6.236,0,11.341-5.104,11.341-11.345V20.982
		c0-6.241-5.104-11.345-11.341-11.345h-80.643L51.647,143.369z"/>
	<path style="fill:#008B99;" d="M141.011,9.637H23.718c-6.241,0-11.345,5.104-11.345,11.345v111.042
		c0,6.241,5.104,11.345,11.345,11.345h29.691L141.011,9.637z"/>
	<path style="fill:#FFFFFF;" d="M21.745,75.704l8.351-12.748c2.673-0.313,5.409-0.5,8.218-0.5c9.07,0,14.17,1.892,16.722,6.05
		c1.415,2.364,1.61,3.591,1.61,9.73v18.238c0,6.143,0.375,8.03,2.263,11.247H43.132v-2.838l-3.024,2.643
		c-2.833,1.137-3.971,1.324-6.71,1.324c-8.601,0-13.986-4.631-13.986-12.091c0-3.024,1.04-6.05,2.931-8.223
		c1.891-2.172,4.533-3.685,9.637-5.576l11.153-3.967c0-6.331-1.422-8.124-6.522-8.124C33.05,70.87,28.091,72.453,21.745,75.704z
		 M43.328,87.557h-7.937c-2.173,1.794-2.927,3.399-2.927,5.952c0,3.685,2.36,6.045,6.045,6.045c1.892,0,3.216-0.469,4.819-1.888
		V87.557z"/>
	<path style="fill:#FFFFFF;" d="M107.179,107.78c-2.646-1.985-4.158-3.779-6.518-7.75l-9.098-14.908l0,0l14.002-21.376H90.363
		c0.281,0.95,0.375,1.325,0.375,1.704c0,0.852-0.473,1.888-1.325,3.306l-3.966,6.428l-3.877-6.62
		c-1.133-1.794-1.508-2.833-1.508-3.779c0-0.281,0-0.566,0.188-1.04H61.632c2.931,2.271,3.498,3.025,6.429,7.656l8.93,14.174
		l-8.879,13.701c-2.935,4.439-4.064,5.858-6.901,8.504h15.51l6.994-10.677h0.001l3.431,5.667c1.133,1.984,1.606,3.118,1.606,3.876
		c0,0.379,0,0.66-0.094,1.134H107.179z"/>
	<g>
		<path style="fill:#FFFFFF;" d="M28.283,52.347c-4.096,0-6.999-0.715-8.586-1.677V19.02h6.87v10.856
			c1.098-0.504,2.329-0.84,4.396-0.84c5.592,0,9.469,4.279,9.469,10.946C40.432,47.903,36.071,52.347,28.283,52.347z M29.029,32.768
			c-1.098,0-1.805,0.168-2.462,0.504v14.799c0.528,0.207,1.274,0.332,2.11,0.332c3.478,0,4.975-2.935,4.975-8.003
			C33.652,35.996,32.683,32.768,29.029,32.768z"/>
		<path style="fill:#FFFFFF;" d="M53.191,52.347c-6.862,0-10.383-2.431-10.383-7.128c0-5.827,6.116-7.546,13.248-8.176v-1.047
			c0-2.349-1.676-3.017-4.181-3.017c-2.29,0-4.623,0.711-6.163,1.383l-1.497-3.732c1.677-0.668,4.752-1.716,8.938-1.716
			c5.366,0,9.328,2.134,9.328,8.258V50.67C60.499,51.674,57.287,52.347,53.191,52.347z M56.056,40.064
			c-4.138,0.379-6.827,1.301-6.827,4.904c0,2.642,1.586,3.771,4.318,3.771c1.012,0,1.892-0.168,2.509-0.461V40.064z"/>
		<path style="fill:#FFFFFF;" d="M80.085,51.928V36.125c0-1.595-0.746-3.146-3.517-3.146c-1.368,0-2.11,0.211-2.907,0.461v18.488
			h-6.866V30.587c2.376-1.004,5.721-1.673,9.945-1.673c7.527,0,10.215,3.056,10.215,7.167v15.846H80.085z"/>
		<path style="fill:#FFFFFF;" d="M105.136,51.928l-6.824-11.403h-0.086v11.403h-6.827V19.02h6.827v20.29h0.086l6.645-9.977h6.869
			l-7.44,10.145l8.448,12.45H105.136z"/>
	</g>
	<path style="fill:#FFFFFF;" d="M127.707,108.909c-14.17,0-22.485-8.03-22.485-22.013c0-14.366,9.449-24.382,23.056-24.382
		c12.092,0,18.422,7.277,18.422,21.259c0,1.044,0,2.557-0.094,4.635h-26.933c1.234,7.179,5.104,10.579,12.005,10.579
		c4.322,0,8.37-1.122,14.568-4.119l-8.371,12.779C134.874,108.526,131.701,108.909,127.707,108.909z M119.579,79.053h13.513
		c0-5.197-2.454-8.222-6.424-8.222C122.697,70.831,120.243,73.762,119.579,79.053z"/>
	<g>
		<path style="fill:#FFFFFF;" d="M155.188,96.318c4.752,3.06,8.253,4.373,11.161,4.373c3.032,0,4.916-1.513,4.916-4.064
			c0-1.7-1.134-2.833-4.346-4.158c-10.958-4.631-14.74-8.504-14.74-15.307c0-8.503,7.558-14.647,18.046-14.647
			c4.252,0,7.957,0.563,11.622,1.798c1.22,0.41,2.134,0.926,2.791,1.395l-5.612,8.57c-3.877-2.501-6.573-3.446-9.27-3.446
			c-2.649,0-4.346,1.418-4.346,3.591c0,2.172,1.79,3.779,6.706,5.764c9.168,3.778,12.38,7.183,12.38,13.51
			c0,9.074-7.659,15.213-18.711,15.213c-4.627,0-9.543-0.789-13.982-2.548c-2.228-0.887-2.603-0.93-2.603-0.93L155.188,96.318z"/>
	</g>
	<g>
		<path style="fill:#FFFFFF;" d="M192.797,96.318c4.744,3.06,8.254,4.373,11.161,4.373c3.024,0,4.916-1.513,4.916-4.064
			c0-1.7-1.134-2.833-4.346-4.158c-10.966-4.631-14.74-8.504-14.74-15.307c0-8.503,7.558-14.647,18.047-14.647
			c4.251,0,7.948,0.563,11.622,1.798c1.219,0.41,2.125,0.926,2.79,1.395l-5.612,8.57c-3.876-2.501-6.581-3.446-9.277-3.446
			c-2.642,0-4.346,1.418-4.346,3.591c0,2.172,1.798,3.779,6.714,5.764c9.16,3.778,12.381,7.183,12.381,13.51
			c0,9.074-7.66,15.213-18.711,15.213c-4.635,0-9.552-0.789-13.99-2.548c-2.228-0.887-2.604-0.93-2.604-0.93L192.797,96.318z"/>
	</g>
</g>
<g id="Layer_1">
</g>
</svg>
