<?xml version="1.0" encoding="iso-8859-1"?>
<!-- Generator: Adobe Illustrator 16.0.0, SVG Export Plug-In . SVG Version: 6.00 Build 0)  -->
<!DOCTYPE svg PUBLIC "-//W3C//DTD SVG 1.1//EN" "http://www.w3.org/Graphics/SVG/1.1/DTD/svg11.dtd">
<svg version="1.1" xmlns="http://www.w3.org/2000/svg" xmlns:xlink="http://www.w3.org/1999/xlink" x="0px" y="0px"
	 width="242.65px" height="153.01px" viewBox="0 0 242.65 153.01" style="enable-background:new 0 0 242.65 153.01;"
	 xml:space="preserve">
<g id="cirrus">
	<g>
		<g>
			<rect x="0.002" y="-0.241" style="fill:#003473;" width="242.646" height="153.492"/>
		</g>
		<g>
			<g>
				<g>
					<g>
						<path style="fill:#007DC5;" d="M143.161,76.504c0,36.684-29.737,66.417-66.421,66.417c-36.68,0-66.417-29.732-66.417-66.417
							c0-36.68,29.737-66.417,66.417-66.417C113.424,10.087,143.161,39.825,143.161,76.504z"/>
						<g>
							<path style="fill:#009DDD;" d="M165.91,10.087c-17.159,0-32.798,6.512-44.586,17.191c-2.399,2.175-4.642,4.529-6.706,7.03
								h13.417c1.837,2.231,3.525,4.577,5.064,7.034h-23.545c-1.41,2.26-2.691,4.605-3.826,7.034h31.196
								c1.065,2.277,2.006,4.623,2.812,7.029h-36.823c-0.768,2.293-1.412,4.638-1.929,7.034h40.68
								c0.978,4.534,1.496,9.24,1.496,14.065c0,7.376-1.204,14.471-3.424,21.097h-36.823c0.808,2.411,1.748,4.756,2.812,7.034
								h31.198c-1.138,2.429-2.416,4.774-3.828,7.033h-23.542c1.538,2.456,3.229,4.804,5.063,7.029h13.415
								c-2.061,2.508-4.305,4.859-6.707,7.036c11.787,10.681,27.425,17.187,44.584,17.187c36.683,0,66.419-29.732,66.419-66.417
								C232.329,39.825,202.593,10.087,165.91,10.087z"/>
						</g>
					</g>
					<path style="fill:#009DDD;" d="M223.477,113.526c0-1.185,0.96-2.145,2.144-2.145c1.187,0,2.145,0.96,2.145,2.145
						s-0.958,2.146-2.145,2.146C224.437,115.673,223.477,114.711,223.477,113.526z M225.62,115.156c0.902,0,1.631-0.729,1.631-1.63
						c0-0.902-0.729-1.63-1.631-1.63c-0.898,0-1.628,0.728-1.628,1.63C223.992,114.427,224.722,115.156,225.62,115.156z
						 M225.331,114.468h-0.438v-1.885h0.796c0.166,0,0.334,0.002,0.48,0.095c0.152,0.106,0.238,0.285,0.238,0.472
						c0,0.215-0.122,0.414-0.324,0.487l0.344,0.831h-0.487l-0.286-0.747h-0.322V114.468z M225.331,113.399h0.242
						c0.092,0,0.188,0.008,0.269-0.035c0.072-0.047,0.109-0.135,0.109-0.219c0-0.07-0.044-0.154-0.105-0.191
						c-0.077-0.045-0.199-0.034-0.28-0.034h-0.234V113.399z"/>
				</g>
			</g>
			<g>
				<g>
					<g>
						<g>
							<path style="fill:#003473;" d="M72.912,61.298c-0.593,2.605-0.904,4.082-1.708,7.253c-4.994-2.118-11.691-3.222-16.829-0.014
								c-4.849,3.086-6.486,7.9-6.133,13.234c0.356,2.566,2.283,5.074,4.995,6.16c4.703,1.736,9.189,1.099,14.185-1.453
								c-0.71,3.212-1.246,5.733-1.866,8.029c-5.991,1.671-11.678,2.223-17.667,0.232c-5.351-1.864-9.702-6.682-10.056-11.88
								c-1.213-8.348,2.781-16.889,10.909-20.81C56.301,58.649,64.924,59.24,72.912,61.298z"/>
						</g>
						<path style="fill:#003473;" d="M157.546,90.972c-1.579,1.581-4.263,5.041-11.554,5.041c-6.641,0-11.303-4.896-8.942-15.892
							c0-0.004,2.746-12.947,2.746-12.947h10.135c0,0-2.753,12.959-2.747,12.947c-0.937,4.401-0.715,7.755,3.759,7.755
							c5.272,0,6.85-3.188,7.845-7.755c-0.007,0.006,2.753-12.947,2.753-12.947h10.572l-4.549,20.812
							c-0.518,2.439-1.012,5.024-1.298,7.574h-9.515C156.751,95.56,157.352,92.096,157.546,90.972z"/>
						<path style="fill:#003473;" d="M175.476,76.152c0,3.598,2.364,6.06,7.736,7.899c4.146,1.447,4.798,1.872,4.798,3.135
							c0,1.796-1.853,2.557-5.849,2.557c-3.044,0-5.868-0.304-9.14-1.091c0,0-1.287,5.888-1.418,6.56
							c2.844,0.507,7.768,0.802,10.628,0.802c10.731,0,15.707-2.999,15.707-9.471c0-3.873-2.087-6.15-7.178-7.899
							c-4.292-1.409-4.768-1.735-4.768-3.081c0-1.507,1.695-2.307,4.994-2.307c1.984,0,4.765,0.167,7.348,0.439l1.425-6.588
							c-2.637-0.312-6.653-0.566-8.972-0.566C179.399,66.54,175.439,70.926,175.476,76.152z"/>
						<polygon style="fill:#003473;" points="76.776,67.174 87.381,67.174 81.338,95.562 70.732,95.562 						"/>
						<path style="fill:#003473;" d="M137.351,67.054c-7.478-0.988-9.611,2.685-11.619,4.512c0.239-1.478,0.681-2.919,0.593-4.392
							h-9.741c-1.338,8.791-3.717,17.687-5.578,26.478l-0.487,1.906h11.027c1.26-5.765,2.721-14.467,4.408-17.099
							c1.685-2.632,4.487-4.734,8.168-3.471L137.351,67.054z"/>
						<path style="fill:#003473;" d="M114.229,67.054c-7.476-0.988-9.609,2.685-11.618,4.512c0.24-1.478,0.681-2.919,0.594-4.392
							h-9.74c-1.339,8.791-3.718,17.687-5.579,26.478l-0.488,1.906h11.025c1.262-5.765,2.723-14.467,4.409-17.099
							c1.685-2.632,4.488-4.734,8.169-3.471L114.229,67.054z"/>
					</g>
				</g>
				<g>
					<path style="fill:#FFFFFF;" d="M201.189,91.335c0-1.186,0.96-2.145,2.146-2.145c1.184,0,2.145,0.959,2.145,2.145
						c0,1.185-0.961,2.146-2.145,2.146C202.149,93.481,201.189,92.52,201.189,91.335z M203.335,92.967
						c0.898,0,1.631-0.729,1.631-1.632c0-0.9-0.732-1.63-1.631-1.63c-0.9,0-1.632,0.729-1.632,1.63
						C201.703,92.237,202.435,92.967,203.335,92.967z M203.045,92.275h-0.44v-1.884h0.797c0.164,0,0.335,0.002,0.479,0.099
						c0.156,0.103,0.241,0.283,0.241,0.47c0,0.211-0.124,0.41-0.326,0.485l0.347,0.83h-0.487l-0.287-0.744h-0.323V92.275z
						 M203.045,91.208h0.243c0.091,0,0.19,0.008,0.268-0.037c0.073-0.045,0.109-0.131,0.109-0.216c0-0.071-0.045-0.153-0.104-0.192
						c-0.077-0.045-0.201-0.035-0.284-0.035h-0.232V91.208z"/>
					<path style="fill:#FFFFFF;" d="M74.986,59.222c-0.592,2.607-0.904,4.083-1.707,7.254c-4.995-2.117-11.691-3.222-16.83-0.015
						c-4.846,3.086-6.484,7.902-6.132,13.235c0.358,2.566,2.283,5.073,4.996,6.162c4.702,1.734,9.188,1.099,14.186-1.456
						c-0.711,3.215-1.248,5.734-1.868,8.032c-5.989,1.669-11.678,2.22-17.665,0.229c-5.352-1.861-9.702-6.679-10.057-11.878
						c-1.212-8.348,2.781-16.891,10.91-20.811C58.377,56.573,66.999,57.164,74.986,59.222z"/>
					<path style="fill:#FFFFFF;" d="M159.622,88.897c-1.581,1.578-4.265,5.039-11.556,5.039c-6.641,0-10.859-4.894-8.5-15.892
						c0-0.002,2.749-12.946,2.749-12.946h10.135c0,0-2.755,12.958-2.751,12.946c-0.936,4.403-0.713,7.757,3.763,7.757
						c5.268,0,6.848-3.188,7.842-7.757c-0.006,0.008,2.753-12.946,2.753-12.946h10.132l-4.55,20.811
						c-0.517,2.438-1.01,5.022-1.296,7.575h-9.516C158.827,93.485,159.428,90.019,159.622,88.897z"/>
					<path style="fill:#FFFFFF;" d="M177.551,74.077c0,3.598,2.363,6.058,7.736,7.897c4.148,1.447,4.798,1.873,4.798,3.134
						c0,1.796-1.853,2.559-5.849,2.559c-3.042,0-5.868-0.305-9.14-1.093c0,0-1.286,5.888-1.419,6.562
						c2.846,0.507,7.768,0.8,10.63,0.8c10.729,0,15.707-2.997,15.707-9.472c0-3.872-2.086-6.148-7.179-7.896
						c-4.292-1.41-4.768-1.737-4.768-3.083c0-1.506,1.697-2.305,4.995-2.305c1.982,0,4.764,0.167,7.348,0.437l1.423-6.587
						c-2.637-0.313-6.652-0.566-8.969-0.566C181.476,64.464,177.515,68.85,177.551,74.077z"/>
					<polygon style="fill:#FFFFFF;" points="79.292,65.099 89.458,65.099 83.414,93.487 73.25,93.487 					"/>
					<path style="fill:#FFFFFF;" d="M139.426,64.979c-7.477-0.988-9.609,2.685-11.619,4.511c0.24-1.477,0.682-2.92,0.592-4.391
						h-9.298c-1.338,8.789-3.719,17.685-5.578,26.475l-0.487,1.909h10.584c1.262-5.765,2.724-14.468,4.409-17.1
						c1.686-2.633,4.489-4.733,8.168-3.47L139.426,64.979z"/>
					<path style="fill:#FFFFFF;" d="M116.307,64.979c-7.478-0.988-9.61,2.685-11.62,4.511c0.24-1.477,0.683-2.92,0.593-4.391H95.98
						c-1.338,8.789-3.716,17.685-5.578,26.475l-0.487,1.909h10.583c1.262-5.765,2.723-14.468,4.41-17.1
						c1.685-2.633,4.488-4.733,8.168-3.47L116.307,64.979z"/>
				</g>
			</g>
		</g>
	</g>
</g>
<g id="Layer_1">
</g>
</svg>
