<?xml version="1.0" encoding="iso-8859-1"?>
<!-- Generator: Adobe Illustrator 16.0.0, SVG Export Plug-In . SVG Version: 6.00 Build 0)  -->
<!DOCTYPE svg PUBLIC "-//W3C//DTD SVG 1.1//EN" "http://www.w3.org/Graphics/SVG/1.1/DTD/svg11.dtd">
<svg version="1.1" xmlns="http://www.w3.org/2000/svg" xmlns:xlink="http://www.w3.org/1999/xlink" x="0px" y="0px"
	 width="242.65px" height="153.01px" viewBox="0 0 242.65 153.01" style="enable-background:new 0 0 242.65 153.01;"
	 xml:space="preserve">
<g id="danske-bank">
	<g>
		<path style="fill:#1C3665;" d="M153.523,59.397v34.216h81.188V59.397H153.523z M233.833,60.274c0,0.844,0,31.619,0,32.462
			c-0.863,0-78.569,0-79.433,0c0-0.844,0-31.619,0-32.462C155.264,60.274,232.97,60.274,233.833,60.274z"/>
		<path style="fill:#1C3665;" d="M7.939,59.397v34.216h142.08V59.397H7.939z"/>
		<path style="fill:#FFFFFF;" d="M233.833,60.274c0,0.844,0,31.619,0,32.462c-0.863,0-78.569,0-79.433,0c0-0.844,0-31.619,0-32.462
			C155.264,60.274,232.97,60.274,233.833,60.274z"/>
		<g>
			<path style="fill:#FFFFFF;" d="M57,78.822c0,3.356-1.789,5.023-5.833,5.023h-6.373V71.25h6.151c4.902,0,6.054,2.377,6.054,4.975
				V78.822z M59.622,78.724v-2.156c0-6.886-5.416-7.156-9.067-7.156h-8.381v16.296h9.116C58.445,85.708,59.622,81.836,59.622,78.724
				z"/>
			<path style="fill:#FFFFFF;" d="M73.81,81.689c0,0.956-0.073,1.812-1.152,2.205c-0.638,0.245-1.544,0.318-3.063,0.318
				c-1.519,0-2.426-0.146-2.965-0.49c-0.367-0.221-0.515-0.588-0.515-1.372c0-0.98,0.246-1.544,0.736-1.765
				c0.466-0.22,1.054-0.269,2.917-0.269h4.043V81.689z M76.286,85.708v-6.396c0-1.201,0-2.059-0.098-2.671
				c-0.123-0.638-0.344-1.079-0.858-1.471c-1.177-0.931-4.093-0.956-5.539-0.956c-1.078,0-4.044,0.123-5.122,1.054
				c-0.367,0.318-0.465,0.686-0.465,1.127c0,0.294,0.049,0.686,0.073,1.201h2.401c0.049-0.295,0.098-1.005,0.368-1.274
				c0.318-0.319,0.882-0.441,2.523-0.441c1.888,0,3.211,0.074,3.75,0.367c0.515,0.295,0.49,0.908,0.49,1.373v1.127h-5.539
				c-1.495,0-3.21,0.025-4.167,1.323c-0.416,0.564-0.612,1.274-0.612,2.206c0,2.694,1.666,3.602,5.931,3.602
				c2.229,0,3.675-0.342,4.558-1.103l0.221,0.932H76.286z"/>
			<path style="fill:#FFFFFF;" d="M91.136,85.708v-6.225c0-2.156-0.099-2.622-0.613-3.014c-0.49-0.368-1.47-0.588-2.965-0.588
				c-1.324,0-2.671,0.171-3.946,0.515v9.312h-2.45V74.313h2.206l0.171,0.809c0.49-0.27,0.858-0.465,1.373-0.613
				c0.809-0.244,1.838-0.367,3.21-0.367c1.568,0,2.769,0.245,3.7,0.662c0.906,0.391,1.397,1.127,1.593,1.985
				c0.123,0.588,0.172,1.102,0.172,2.401v6.519H91.136z"/>
			<path style="fill:#FFFFFF;" d="M109.27,85.021c-1.127,0.563-2.965,0.81-5.367,0.81c-1.666,0-3.039-0.123-4.116-0.393
				c-1.152-0.27-1.716-0.809-1.79-1.788c-0.024-0.516,0-0.981,0.074-1.594h2.353c0.073,0.589,0.073,0.76,0.098,0.883
				c0.098,0.538,0.05,0.833,0.687,1.029c0.612,0.195,1.593,0.27,2.843,0.27c1.569,0,2.646-0.172,3.382-0.49
				c0.514-0.221,0.759-0.638,0.759-1.422c0-0.907-0.195-1.274-1.127-1.422c-0.294-0.048-0.588-0.048-0.882-0.073
				c-0.172-0.024-0.711-0.024-1.568-0.049c-0.417,0-0.882-0.025-1.446-0.049c-2.426-0.123-5.023-0.221-5.023-3.088
				c0-2.573,1.593-3.48,5.931-3.48c1.103,0,2.476,0.074,3.284,0.172c0.955,0.123,1.665,0.293,2.181,0.588
				c0.563,0.318,0.759,0.833,0.759,1.74c0,0.245,0,0.49-0.048,0.882h-2.378l-0.098-0.515c-0.123-0.612-0.171-0.735-0.367-0.882
				c-0.344-0.269-1.397-0.392-2.867-0.392c-1.495,0-2.328,0.073-3.014,0.319c-0.638,0.22-0.908,0.636-0.908,1.445
				c0,0.564,0.197,0.981,0.466,1.152c0.638,0.392,3.995,0.343,5.146,0.367c1.226,0.024,2.034,0.122,2.745,0.367
				c1.25,0.441,1.74,1.25,1.74,2.917C110.716,83.674,110.274,84.508,109.27,85.021z"/>
			<path style="fill:#FFFFFF;" d="M124.339,85.708l-5.881-5.391h-0.882v5.391h-2.45V69.412h2.45v9.288h0.882l4.878-4.386h2.866
				l-5.686,5.024l7.083,6.371H124.339z"/>
			<path style="fill:#FFFFFF;" d="M139.754,78.895h-7.866c0.097-1.42,0.392-2.058,0.955-2.474c0.563-0.417,1.617-0.613,3.161-0.613
				c2.133,0,3.137,0.466,3.505,1.446C139.656,77.67,139.754,78.062,139.754,78.895z M142.009,82.154h-2.426
				c-0.074,0.344-0.123,1.226-0.442,1.544c-0.366,0.368-1.102,0.54-3.087,0.54c-1.936,0-3.014-0.27-3.554-0.809
				c-0.416-0.418-0.661-1.275-0.661-2.623v-0.294h10.243c0.024-0.563,0.049-0.711,0.049-1.151c0-1.887-0.27-2.941-1.077-3.75
				c-0.933-0.956-2.721-1.421-5.172-1.421c-3.137,0-5.072,0.711-5.881,2.279c-0.466,0.907-0.735,2.181-0.735,3.774
				c0,2.476,0.661,4.043,2.107,4.828c0.906,0.489,2.476,0.76,4.46,0.784c1.666,0,2.989-0.074,4.46-0.516
				c1.422-0.44,1.765-1.249,1.765-1.91C142.058,83.257,142.058,82.694,142.009,82.154z"/>
			<path style="fill:#1C3665;" d="M174.357,73.529c0,2.401-1.347,2.892-4.141,2.892h-6.176V71.25h6.494
				C173.011,71.25,174.357,71.47,174.357,73.529z M177.592,81.126c0-2.011-1.151-3.505-3.896-3.921v-0.049
				c2.131-0.563,3.283-1.667,3.283-3.406c0-2.868-1.397-4.338-5.367-4.338h-10.194v16.296h10.611
				C175.606,85.708,177.592,84.091,177.592,81.126z M174.97,81.298c0,2.327-1.641,2.548-4.19,2.548h-6.738v-5.588h7.057
				C174.112,78.258,174.97,79.238,174.97,81.298z"/>
			<path style="fill:#1C3665;" d="M190.922,81.689c0,0.956-0.072,1.812-1.151,2.205c-0.637,0.245-1.543,0.318-3.063,0.318
				c-1.519,0-2.426-0.146-2.964-0.49c-0.367-0.221-0.516-0.588-0.516-1.372c0-0.98,0.246-1.544,0.735-1.765
				c0.466-0.22,1.054-0.269,2.917-0.269h4.042V81.689z M193.398,85.708v-6.396c0-1.201,0-2.059-0.099-2.671
				c-0.122-0.638-0.343-1.079-0.856-1.471c-1.177-0.931-4.093-0.956-5.539-0.956c-1.078,0-4.045,0.123-5.122,1.054
				c-0.367,0.318-0.465,0.686-0.465,1.127c0,0.294,0.048,0.686,0.073,1.201h2.401c0.049-0.295,0.098-1.005,0.367-1.274
				c0.318-0.319,0.883-0.441,2.524-0.441c1.886,0,3.211,0.074,3.75,0.367c0.514,0.295,0.488,0.908,0.488,1.373v1.127h-5.537
				c-1.495,0-3.211,0.025-4.166,1.323c-0.417,0.564-0.612,1.274-0.612,2.206c0,2.694,1.666,3.602,5.93,3.602
				c2.23,0,3.677-0.342,4.559-1.103l0.221,0.932H193.398z"/>
			<path style="fill:#1C3665;" d="M207.637,85.708v-6.225c0-2.156-0.099-2.622-0.613-3.014c-0.491-0.368-1.471-0.588-2.966-0.588
				c-1.323,0-2.67,0.171-3.945,0.515v9.312h-2.45V74.313h2.205l0.172,0.809c0.49-0.27,0.857-0.465,1.372-0.613
				c0.809-0.244,1.838-0.367,3.211-0.367c1.567,0,2.769,0.245,3.7,0.662c0.906,0.391,1.396,1.127,1.592,1.985
				c0.123,0.588,0.173,1.102,0.173,2.401v6.519H207.637z"/>
			<path style="fill:#1C3665;" d="M223.564,85.708l-5.882-5.391h-0.882v5.391h-2.451V69.412h2.451v9.288h0.882l4.877-4.386h2.867
				l-5.685,5.024l7.081,6.371H223.564z"/>
		</g>
	</g>
</g>
<g id="Layer_1">
</g>
</svg>
