<?xml version="1.0" encoding="iso-8859-1"?>
<!-- Generator: Adobe Illustrator 16.0.0, SVG Export Plug-In . SVG Version: 6.00 Build 0)  -->
<!DOCTYPE svg PUBLIC "-//W3C//DTD SVG 1.1//EN" "http://www.w3.org/Graphics/SVG/1.1/DTD/svg11.dtd">
<svg version="1.1" xmlns="http://www.w3.org/2000/svg" xmlns:xlink="http://www.w3.org/1999/xlink" x="0px" y="0px"
	 width="242.65px" height="153.01px" viewBox="0 0 242.65 153.01" style="enable-background:new 0 0 242.65 153.01;"
	 xml:space="preserve">
<g id="diners">
	<g>
		<path d="M36.948,112.058c0,2.994,2.139,3.342,4.043,3.342c8.396,0,11.152-6.334,11.152-12.123c0-7.268-4.663-12.514-12.162-12.514
			c-1.598,0-2.332,0.114-3.033,0.156V112.058z M33.138,93.83c0-3.493-1.825-3.265-3.572-3.3V89.52
			c1.515,0.073,3.068,0.073,4.585,0.073c1.632,0,3.847-0.073,6.724-0.073c10.063,0,15.544,6.72,15.544,13.603
			c0,3.849-2.253,13.522-16.012,13.522c-1.98,0-3.809-0.074-5.634-0.074c-1.748,0-3.46,0.035-5.208,0.074v-1.011
			c2.33-0.234,3.46-0.312,3.572-2.953V93.83z"/>
		<path d="M61.939,92.9c-1.013,0-1.904-0.934-1.904-1.943c0-0.972,0.934-1.87,1.904-1.87c1.009,0,1.905,0.82,1.905,1.87
			C63.845,92.008,62.988,92.9,61.939,92.9 M57.782,115.634h0.737c1.087,0,1.866,0,1.866-1.284v-10.53
			c0-1.707-0.583-1.946-2.021-2.718v-0.621c1.826-0.55,4.003-1.284,4.157-1.398c0.273-0.157,0.503-0.199,0.701-0.199
			c0.19,0,0.271,0.234,0.271,0.549v14.918c0,1.284,0.856,1.284,1.946,1.284h0.657v1.011c-1.322,0-2.684-0.074-4.078-0.074
			c-1.4,0-2.799,0.035-4.236,0.074V115.634z"/>
		<path d="M69.791,104.052c0-1.436-0.43-1.824-2.253-2.562v-0.737c1.668-0.547,3.26-1.053,5.128-1.87c0.117,0,0.23,0.077,0.23,0.389
			v2.527c2.219-1.593,4.125-2.916,6.731-2.916c3.299,0,4.463,2.41,4.463,5.441v10.025c0,1.284,0.858,1.284,1.945,1.284h0.7v1.011
			c-1.365,0-2.723-0.074-4.121-0.074c-1.399,0-2.8,0.035-4.2,0.074v-1.011h0.702c1.089,0,1.863,0,1.863-1.284v-10.061
			c0-2.218-1.354-3.306-3.572-3.306c-1.244,0-3.226,1.008-4.513,1.866v11.5c0,1.284,0.859,1.284,1.949,1.284h0.697v1.011
			c-1.359,0-2.718-0.074-4.122-0.074c-1.396,0-2.796,0.035-4.194,0.074v-1.011h0.701c1.086,0,1.864,0,1.864-1.284V104.052z"/>
		<path d="M96.571,104.676c0.97,0,1.084-0.507,1.084-0.975c0-1.979-1.204-3.571-3.382-3.571c-2.368,0-4,1.743-4.467,4.546H96.571z
			 M89.69,105.92c-0.079,0.349-0.079,0.933,0,2.256c0.229,3.69,2.604,6.721,5.71,6.721c2.141,0,3.813-1.167,5.248-2.604l0.543,0.546
			c-1.79,2.37-4.002,4.393-7.187,4.393c-6.181,0-7.425-5.99-7.425-8.476c0-7.617,5.129-9.873,7.846-9.873
			c3.151,0,6.535,1.98,6.571,6.103c0,0.235,0,0.468-0.037,0.701l-0.352,0.233H89.69z"/>
		<path d="M101.894,115.634h1.049c1.084,0,1.862,0,1.862-1.284v-10.917c0-1.205-1.437-1.441-2.021-1.752v-0.579
			c2.837-1.207,4.393-2.219,4.747-2.219c0.228,0,0.345,0.116,0.345,0.508v3.497h0.082c0.969-1.516,2.604-4.005,4.973-4.005
			c0.971,0,2.214,0.66,2.214,2.061c0,1.048-0.736,1.984-1.823,1.984c-1.209,0-1.209-0.937-2.57-0.937
			c-0.661,0-2.836,0.896-2.836,3.229v9.129c0,1.284,0.777,1.284,1.865,1.284h2.175v1.011c-2.138-0.039-3.766-0.074-5.438-0.074
			c-1.593,0-3.228,0.035-4.625,0.074V115.634z"/>
		<path d="M116.853,111.241c0.508,2.565,2.059,4.743,4.9,4.743c2.29,0,3.143-1.399,3.143-2.757c0-4.59-8.468-3.111-8.468-9.368
			c0-2.179,1.749-4.976,6.026-4.976c1.239,0,2.911,0.353,4.424,1.129l0.274,3.962h-0.895c-0.389-2.448-1.745-3.845-4.236-3.845
			c-1.554,0-3.029,0.892-3.029,2.562c0,4.55,9.015,3.149,9.015,9.249c0,2.566-2.058,5.29-6.685,5.29
			c-1.553,0-3.382-0.548-4.738-1.323l-0.429-4.471L116.853,111.241z"/>
		<path d="M163.1,96.552h-0.97c-0.738-4.544-3.966-6.372-8.316-6.372c-4.474,0-10.962,2.99-10.962,12.316
			c0,7.854,5.6,13.488,11.581,13.488c3.845,0,7.039-2.643,7.815-6.727l0.894,0.234l-0.894,5.676
			c-1.633,1.011-6.025,2.063-8.593,2.063c-9.091,0-14.843-5.87-14.843-14.615c0-7.969,7.112-13.684,14.73-13.684
			c3.147,0,6.178,1.014,9.17,2.063L163.1,96.552z"/>
		<path d="M164.501,115.634h0.736c1.093,0,1.869,0,1.869-1.284V92.709c0-2.529-0.584-2.607-2.062-3.033v-0.623
			c1.555-0.505,3.187-1.203,4.006-1.674c0.423-0.229,0.738-0.426,0.849-0.426c0.241,0,0.315,0.234,0.315,0.546v26.851
			c0,1.284,0.856,1.284,1.945,1.284h0.657v1.011c-1.317,0-2.677-0.074-4.079-0.074c-1.397,0-2.795,0.035-4.236,0.074V115.634z"/>
		<path d="M189.454,114.508c0,0.701,0.425,0.737,1.084,0.737c0.471,0,1.05-0.036,1.558-0.036v0.816
			c-1.673,0.154-4.858,0.97-5.599,1.206l-0.193-0.12v-3.149c-2.329,1.906-4.12,3.27-6.884,3.27c-2.097,0-4.271-1.363-4.271-4.625
			v-9.951c0-1.013-0.155-1.985-2.328-2.175v-0.74c1.4-0.039,4.502-0.271,5.009-0.271c0.432,0,0.432,0.271,0.432,1.126v10.023
			c0,1.168,0,4.508,3.38,4.508c1.319,0,3.067-1.009,4.698-2.365v-10.458c0-0.777-1.863-1.202-3.261-1.592v-0.698
			c3.496-0.235,5.673-0.544,6.062-0.544c0.312,0,0.312,0.271,0.312,0.698V114.508z"/>
		<path d="M197.186,112.252c0,1.478,1.4,3.967,4.003,3.967c4.158,0,5.907-4.082,5.907-7.542c0-4.196-3.184-7.693-6.216-7.693
			c-1.442,0-2.645,0.934-3.694,1.829V112.252z M197.186,101.681c1.555-1.318,3.652-2.798,5.791-2.798c4.51,0,7.229,3.93,7.229,8.164
			c0,5.09-3.732,10.185-9.292,10.185c-2.872,0-4.389-0.938-5.401-1.363l-1.161,0.894l-0.815-0.428
			c0.347-2.291,0.543-4.547,0.543-6.918V92.709c0-2.529-0.585-2.607-2.062-3.033v-0.623c1.556-0.505,3.187-1.203,4.002-1.674
			c0.428-0.229,0.738-0.426,0.857-0.426c0.229,0,0.309,0.235,0.309,0.546V101.681z"/>
		<path d="M29.522,139.243h0.297c0.76,0,1.564-0.104,1.564-1.205V126.96c0-1.104-0.805-1.207-1.564-1.207h-0.297v-0.636
			c0.825,0,2.094,0.084,3.133,0.084c1.056,0,2.323-0.084,3.318-0.084v0.636h-0.299c-0.757,0-1.562,0.104-1.562,1.207v11.078
			c0,1.101,0.805,1.205,1.562,1.205h0.299v0.635c-1.015,0-2.287-0.081-3.34-0.081c-1.039,0-2.287,0.081-3.111,0.081V139.243z"/>
		<path d="M35.882,139.787l0.001-0.449h-0.205c-0.756,0-1.654-0.132-1.659-1.3V126.96c0.005-1.171,0.903-1.301,1.659-1.301h0.204
			v-0.451c-0.976,0.001-2.202,0.085-3.226,0.085c-1.005,0-2.221-0.08-3.041-0.085v0.451h0.204c0.753,0,1.654,0.13,1.654,1.301
			v11.078c0,1.168-0.901,1.3-1.654,1.3h-0.204v0.449c0.819-0.007,2.014-0.085,3.017-0.085
			C33.662,139.702,34.884,139.781,35.882,139.787 M35.974,139.969c-1.023,0-2.289-0.084-3.341-0.084
			c-1.035,0-2.279,0.084-3.11,0.084h-0.091v-0.091v-0.634v-0.093h0.091h0.296c0.768-0.019,1.464-0.079,1.472-1.113V126.96
			c-0.007-1.035-0.704-1.104-1.472-1.115h-0.388v-0.093v-0.728h0.091c0.831,0,2.099,0.083,3.133,0.083
			c1.051,0,2.317-0.083,3.318-0.083h0.094v0.095v0.726h-0.094h-0.296c-0.768,0.012-1.47,0.08-1.474,1.115v11.078
			c0.004,1.034,0.706,1.095,1.474,1.113h0.39v0.093v0.725H35.974z"/>
		<path d="M50.501,135.71l0.042-0.042v-7.928c0-1.736-1.208-1.988-1.841-1.988h-0.466v-0.635c0.996,0,1.968,0.084,2.96,0.084
			c0.867,0,1.739-0.084,2.601-0.084v0.635h-0.313c-0.891,0-1.885,0.169-1.885,2.687v9.621c0,0.74,0.021,1.479,0.125,2.136H50.92
			l-10.889-12.141v8.714c0,1.843,0.358,2.475,1.986,2.475h0.36v0.635c-0.909,0-1.817-0.082-2.727-0.082
			c-0.95,0-1.923,0.082-2.876,0.082v-0.635h0.296c1.459,0,1.902-0.995,1.902-2.681v-8.91c0-1.184-0.975-1.9-1.922-1.9h-0.276v-0.635
			c0.802,0,1.627,0.084,2.43,0.084c0.637,0,1.25-0.084,1.883-0.084L50.501,135.71z"/>
		<path d="M50.451,135.668v-0.008l-0.018-0.013L50.451,135.668z M50.501,135.71l0.067-0.061L50.501,135.71z M50.921,140.101h0.699
			c-0.094-0.636-0.111-1.338-0.111-2.041v-9.621c0-2.539,1.063-2.779,1.975-2.781h0.223v-0.449
			c-0.834,0.005-1.668,0.084-2.509,0.084c-0.969,0-1.91-0.079-2.866-0.084l-0.002,0.449h0.374c0.65,0.002,1.931,0.292,1.931,2.083
			l-0.028,7.995l-0.042,0.042l-0.073,0.066l-9.404-10.636c-0.628,0-1.24,0.084-1.885,0.084c-0.775,0-1.569-0.079-2.336-0.084
			l-0.004,0.449h0.188c0.992,0.002,2.012,0.761,2.012,1.997v8.907c0,1.691-0.471,2.773-1.992,2.778l-0.205-0.005v0.452
			c0.917-0.007,1.86-0.085,2.784-0.085c0.882,0,1.762,0.078,2.635,0.085v-0.447h-0.268c-1.664-0.005-2.076-0.73-2.078-2.571v-8.949
			L50.921,140.101z M51.724,140.283l-0.871-0.027l-10.731-11.962v8.475c0.026,1.841,0.305,2.362,1.896,2.383h0.453v0.092v0.726
			h-0.093c-0.915,0-1.825-0.084-2.727-0.084c-0.947,0-1.918,0.084-2.876,0.084h-0.093v-0.091v-0.727h0.093h0.297
			c1.397-0.01,1.797-0.906,1.812-2.59v-8.907c-0.003-1.126-0.927-1.81-1.832-1.81h-0.371v-0.098v-0.723h0.093
			c0.808,0,1.636,0.083,2.429,0.083c0.631,0,1.242-0.083,1.956-0.05l9.293,10.461v-7.778c-0.01-1.678-1.133-1.884-1.748-1.896h-0.56
			v-0.098v-0.723h0.093c0.999,0,1.973,0.083,2.961,0.083c0.86,0,1.727-0.083,2.601-0.083h0.093v0.093v0.728h-0.093h-0.314
			c-0.874,0.021-1.769,0.098-1.795,2.594v9.621c0,0.739,0.024,1.477,0.125,2.119l0.019,0.104H51.724z"/>
		<path d="M56.967,126.175c-1.588,0-1.649,0.381-1.967,1.923h-0.634c0.083-0.591,0.188-1.183,0.253-1.795
			c0.085-0.595,0.127-1.186,0.127-1.797h0.507c0.17,0.636,0.699,0.611,1.272,0.611h10.907c0.574,0,1.102-0.021,1.146-0.656
			l0.504,0.087c-0.082,0.569-0.168,1.141-0.229,1.712c-0.042,0.572-0.042,1.142-0.042,1.712l-0.637,0.234
			c-0.043-0.779-0.147-2.031-1.563-2.031h-3.469v11.25c0,1.63,0.741,1.818,1.754,1.818H65.3v0.635c-0.824,0-2.306-0.081-3.446-0.081
			c-1.27,0-2.752,0.081-3.577,0.081v-0.635h0.403c1.166,0,1.754-0.104,1.754-1.775v-11.293H56.967z"/>
		<path d="M65.302,139.969c-0.833,0-2.312-0.084-3.448-0.084c-1.269,0-2.747,0.084-3.577,0.084h-0.09v-0.091v-0.727h0.09h0.403
			c1.166-0.028,1.633-0.043,1.661-1.684v-11.203h-3.375v-0.09v-0.095h3.558v11.388c0,1.698-0.685,1.87-1.844,1.872h-0.313v0.445
			c0.834-0.005,2.26-0.083,3.487-0.083c1.102,0,2.514,0.078,3.352,0.083v-0.445h-0.309c-1.022-0.002-1.846-0.254-1.846-1.915V126.08
			h3.56c1.418,0.005,1.606,1.212,1.65,1.997l0.458-0.167c0-0.554,0.002-1.105,0.04-1.663c0.063-0.546,0.139-1.083,0.219-1.626
			l-0.321-0.051c-0.098,0.615-0.694,0.646-1.225,0.639H56.526h-0.11c-0.498,0-1.04-0.021-1.229-0.614h-0.35
			c-0.003,0.586-0.044,1.152-0.124,1.715c-0.063,0.583-0.16,1.141-0.237,1.701h0.451c0.279-1.477,0.459-1.951,2.04-1.931v0.095v0.09
			c-1.566,0.03-1.533,0.292-1.876,1.855l-0.016,0.072H55h-0.74l0.011-0.108c0.086-0.592,0.193-1.184,0.255-1.798
			c0.088-0.589,0.128-1.175,0.128-1.78v-0.094h0.091h0.58l0.016,0.067c0.144,0.532,0.534,0.535,1.074,0.545h0.11h10.906
			c0.589-0.01,1.019-0.016,1.054-0.57l0.008-0.101l0.095,0.02l0.597,0.094l-0.015,0.095c-0.084,0.566-0.166,1.136-0.229,1.703
			c-0.041,0.567-0.041,1.136-0.041,1.707v0.064l-0.062,0.024l-0.748,0.272l-0.006-0.121c-0.057-0.797-0.14-1.947-1.476-1.947h-3.376
			v11.16c0.021,1.595,0.654,1.706,1.662,1.727h0.495v0.092v0.726H65.302z"/>
		<path d="M69.758,139.243h0.298c0.759,0,1.565-0.104,1.565-1.205V126.96c0-1.104-0.806-1.207-1.565-1.207h-0.298v-0.636
			c1.286,0,3.491,0.084,5.263,0.084c1.78,0,3.976-0.084,5.414-0.084c-0.037,0.908-0.018,2.31,0.045,3.236l-0.637,0.169
			c-0.102-1.377-0.355-2.474-2.577-2.474H74.33v5.537h2.514c1.267,0,1.544-0.715,1.669-1.858h0.634
			c-0.042,0.825-0.063,1.651-0.063,2.474c0,0.808,0.021,1.608,0.063,2.411l-0.634,0.127c-0.125-1.268-0.189-2.092-1.648-2.092H74.33
			v4.925c0,1.375,1.223,1.375,2.577,1.375c2.537,0,3.657-0.17,4.293-2.577l0.589,0.145c-0.275,1.124-0.527,2.241-0.716,3.363
			c-1.355,0-3.787-0.081-5.686-0.081c-1.907,0-4.422,0.081-5.629,0.081V139.243z"/>
		<path d="M80.994,139.785c0.185-1.067,0.425-2.138,0.685-3.2l-0.416-0.104c-0.633,2.364-1.86,2.574-4.356,2.56
			c-1.333,0-2.666,0-2.672-1.468v-5.019h2.629c1.477-0.014,1.626,0.874,1.732,2.08l0.457-0.094
			c-0.042-0.781-0.063-1.563-0.063-2.339c0-0.795,0.021-1.586,0.063-2.384h-0.457c-0.119,1.104-0.465,1.875-1.752,1.862h-2.608
			v-5.725h3.032c2.2-0.018,2.564,1.122,2.659,2.451l0.456-0.125c-0.037-0.595-0.062-1.362-0.062-2.068
			c0-0.363,0.009-0.705,0.021-1.005c-1.437,0.005-3.582,0.084-5.32,0.084c-1.736,0-3.877-0.079-5.171-0.084v0.449h0.205
			c0.753,0.002,1.652,0.132,1.657,1.303v11.078c-0.005,1.168-0.904,1.297-1.657,1.302h-0.205v0.445
			c1.231-0.004,3.676-0.083,5.533-0.083C77.25,139.702,79.63,139.781,80.994,139.785 M81.072,139.969
			c-1.358,0-3.79-0.088-5.689-0.088c-1.904,0-4.417,0.088-5.625,0.088h-0.089v-0.091v-0.635v-0.092h0.089h0.298
			c0.765-0.013,1.462-0.079,1.472-1.113V126.96c-0.01-1.033-0.707-1.104-1.472-1.115h-0.387v-0.093v-0.728h0.089
			c1.293,0,3.492,0.083,5.264,0.083c1.779,0,3.975-0.083,5.414-0.083h0.093l-0.003,0.097c-0.013,0.318-0.022,0.693-0.022,1.092
			c0,0.732,0.022,1.531,0.064,2.135l0.003,0.073l-0.071,0.022l-0.744,0.194l-0.002-0.109c-0.125-1.37-0.31-2.37-2.487-2.391h-2.851
			l-0.001,5.356h2.428c1.218-0.013,1.436-0.636,1.581-1.777l0.005-0.084h0.084h0.729l-0.001,0.098
			c-0.041,0.825-0.065,1.648-0.065,2.471c0,0.802,0.024,1.604,0.065,2.407l0.001,0.075l-0.077,0.019l-0.736,0.147l-0.005-0.102
			c-0.147-1.29-0.156-1.998-1.56-2.013h-2.447v4.837c0.003,1.284,1.112,1.278,2.49,1.284c2.545-0.015,3.566-0.139,4.203-2.511
			l0.022-0.085l0.089,0.013l0.678,0.177l-0.02,0.086c-0.275,1.12-0.527,2.238-0.717,3.355l-0.017,0.077H81.072z"/>
		<path d="M87.352,132.263h1.033c2.116,0,3.256-0.802,3.256-3.298c0-1.882-1.206-3.086-3.089-3.086
			c-0.634,0-0.906,0.063-1.201,0.083V132.263z M84.646,127.356c0-1.542-0.847-1.604-1.503-1.604H82.76v-0.635
			c0.677,0,1.988,0.084,3.28,0.084c1.266,0,2.283-0.084,3.404-0.084c2.66,0,5.034,0.718,5.034,3.722c0,1.903-1.27,3.065-2.939,3.725
			l3.614,5.411c0.593,0.893,1.013,1.145,2.051,1.269v0.635c-0.698,0-1.374-0.081-2.071-0.081c-0.655,0-1.335,0.081-1.986,0.081
			c-1.631-2.134-3.028-4.418-4.401-6.854h-1.393v4.529c0,1.627,0.759,1.689,1.729,1.689h0.383v0.635
			c-1.208,0-2.43-0.081-3.638-0.081c-1.015,0-2.008,0.081-3.066,0.081v-0.635h0.382c0.786,0,1.503-0.358,1.503-1.139V127.356z"/>
		<path d="M88.385,132.175c2.094-0.022,3.148-0.748,3.169-3.205c-0.012-1.848-1.16-2.992-3.001-3.002
			c-0.57,0-0.841,0.054-1.11,0.078v6.129H88.385z M87.351,132.353h-0.093v-6.474l0.08-0.009c0.29-0.021,0.576-0.081,1.215-0.081
			c1.926,0,3.179,1.252,3.181,3.181c-0.004,2.524-1.215,3.382-3.348,3.383H87.351z M87.351,132.933h1.446l0.024,0.048
			c1.377,2.429,2.767,4.712,4.325,6.807c0.643,0,1.322-0.085,1.981-0.085c0.674,0,1.328,0.075,1.985,0.083v-0.465
			c-0.991-0.119-1.457-0.419-2.034-1.296l-3.682-5.503l0.104-0.042c1.656-0.654,2.883-1.783,2.884-3.643
			c-0.001-2.934-2.283-3.614-4.94-3.629c-1.114,0-2.131,0.085-3.404,0.085c-1.242,0-2.497-0.08-3.189-0.085v0.449h0.291
			c0.656,0.002,1.591,0.111,1.591,1.699v10.748c0,0.848-0.796,1.233-1.591,1.235h-0.291v0.445c1.016-0.004,1.981-0.083,2.975-0.083
			c1.181,0,2.375,0.079,3.544,0.083v-0.445h-0.289c-0.963-0.002-1.824-0.121-1.824-1.791v-4.616H87.351z M97.204,139.969
			c-0.708,0-1.381-0.084-2.076-0.084c-0.645,0-1.319,0.084-2.057,0.047c-1.624-2.128-3.013-4.398-4.379-6.812h-1.249v4.429
			c0.023,1.592,0.661,1.58,1.639,1.603h0.474v0.092v0.726h-0.094c-1.208,0-2.437-0.084-3.636-0.084c-1.01,0-2.004,0.084-3.065,0.084
			h-0.092v-0.091v-0.727h0.092h0.382c0.761-0.007,1.404-0.337,1.406-1.047v-10.748c-0.015-1.5-0.75-1.491-1.406-1.512h-0.474v-0.092
			v-0.729h0.092c0.685,0,1.99,0.083,3.28,0.083c1.263,0,2.276-0.083,3.404-0.083c2.665,0.006,5.119,0.74,5.125,3.812
			c0,1.908-1.261,3.1-2.892,3.767l3.55,5.319c0.592,0.877,0.961,1.097,1.989,1.229l0.076,0.012v0.08v0.726H97.204z"/>
		<path d="M111.562,135.71l0.037-0.042v-7.928c0-1.736-1.201-1.988-1.837-1.988h-0.462v-0.635c0.994,0,1.963,0.084,2.958,0.084
			c0.87,0,1.731-0.084,2.603-0.084v0.635h-0.318c-0.888,0-1.881,0.169-1.881,2.687v9.621c0,0.74,0.021,1.479,0.125,2.136h-0.8
			l-10.89-12.141v8.714c0,1.843,0.358,2.475,1.985,2.475h0.36v0.635c-0.909,0-1.82-0.082-2.728-0.082
			c-0.956,0-1.927,0.082-2.877,0.082v-0.635h0.293c1.459,0,1.907-0.995,1.907-2.681v-8.91c0-1.184-0.974-1.9-1.924-1.9h-0.276
			v-0.635c0.8,0,1.631,0.084,2.434,0.084c0.628,0,1.244-0.084,1.88-0.084L111.562,135.71z"/>
		<path d="M111.508,135.668v-0.005l-0.014-0.016L111.508,135.668z M111.56,135.71l0.069-0.061L111.56,135.71z M111.985,140.101
			h0.692c-0.093-0.631-0.112-1.338-0.112-2.041v-9.621c0.001-2.539,1.072-2.773,1.977-2.781h0.223v-0.449
			c-0.833,0.005-1.667,0.084-2.508,0.084c-0.97,0-1.914-0.079-2.87-0.084v0.449h0.374c0.652,0.008,1.934,0.292,1.934,2.083
			l-0.031,7.995l-0.038,0.042l-0.065,0.067l-9.41-10.637c-0.629,0-1.243,0.084-1.881,0.084c-0.784,0-1.574-0.079-2.343-0.084v0.449
			h0.187c0.994,0.008,2.012,0.758,2.012,1.995v8.903c0,1.697-0.479,2.779-1.995,2.784l-0.204-0.002v0.448
			c0.913-0.006,1.856-0.084,2.783-0.084c0.887,0,1.766,0.078,2.641,0.084v-0.446h-0.269c-1.664-0.002-2.079-0.729-2.083-2.572
			v-8.944L111.985,140.101z M112.786,140.283l-0.869-0.027l-10.734-11.962v8.474c0.025,1.844,0.304,2.363,1.899,2.384h0.448v0.092
			v0.726h-0.092c-0.915,0-1.821-0.088-2.728-0.088c-0.944,0-1.922,0.088-2.874,0.088h-0.094v-0.091v-0.727h0.094h0.294
			c1.397-0.007,1.797-0.906,1.811-2.596v-8.903c-0.002-1.128-0.925-1.808-1.828-1.808h-0.372v-0.093v-0.728h0.094
			c0.808,0,1.635,0.083,2.434,0.083c0.622,0,1.233-0.083,1.943-0.055l9.295,10.466v-7.778c-0.005-1.678-1.132-1.888-1.747-1.896
			h-0.558v-0.093v-0.728h0.092c0.999,0,1.974,0.083,2.962,0.083c0.862,0,1.728-0.083,2.601-0.083h0.092v0.095v0.726h-0.092h-0.316
			c-0.871,0.021-1.771,0.098-1.792,2.594v9.621c0,0.739,0.02,1.473,0.127,2.121l0.011,0.103H112.786z"/>
		<path d="M121.349,127.486h-0.044l-1.964,5.985h3.952L121.349,127.486z M118.262,136.854c-0.214,0.718-0.47,1.271-0.47,1.648
			c0,0.636,0.891,0.741,1.587,0.741h0.236v0.634c-0.849-0.046-1.713-0.081-2.563-0.081c-0.761,0-1.52,0.035-2.281,0.081v-0.634
			h0.128c0.823,0,1.523-0.488,1.837-1.378l3.384-9.702c0.276-0.783,0.657-1.84,0.785-2.624c0.673-0.232,1.523-0.653,1.923-0.91
			c0.067-0.021,0.105-0.043,0.17-0.043c0.063,0,0.101,0,0.147,0.067c0.062,0.165,0.124,0.357,0.191,0.526l3.891,11.06
			c0.256,0.74,0.507,1.521,0.777,2.158c0.257,0.594,0.701,0.846,1.401,0.846h0.127v0.634c-0.952-0.046-1.907-0.081-2.918-0.081
			c-1.035,0-2.095,0.035-3.174,0.081v-0.634h0.232c0.482,0,1.312-0.084,1.312-0.613c0-0.273-0.19-0.845-0.425-1.524l-0.826-2.452
			h-4.799L118.262,136.854z"/>
		<path d="M121.256,127.515l0.05-0.019L121.256,127.515z M119.463,133.378h3.703l-1.84-5.667L119.463,133.378z M119.21,133.561
			l2.024-6.169h0.071h0.043v0.095l-0.022,0.006l0.022-0.006v-0.095h0.063l2.011,6.169H119.21z M123.533,139.78
			c1.047-0.037,2.072-0.078,3.082-0.078c0.983,0,1.905,0.041,2.824,0.078v-0.442h-0.033c-0.726,0.004-1.223-0.281-1.482-0.904
			c-0.276-0.638-0.532-1.424-0.783-2.165l-3.893-11.06c-0.065-0.17-0.124-0.357-0.178-0.507c-0.022-0.022-0.02-0.022-0.034-0.022
			h-0.04c-0.042,0-0.068,0.013-0.122,0.026c-0.407,0.265-1.255,0.68-1.883,0.847c-0.129,0.8-0.51,1.856-0.786,2.641l-3.382,9.704
			c-0.323,0.919-1.065,1.442-1.923,1.44h-0.037v0.442c0.726-0.037,1.458-0.078,2.192-0.078c0.817,0,1.652,0.041,2.461,0.078v-0.442
			h-0.137c-0.69-0.011-1.653-0.085-1.677-0.834c0.001-0.42,0.261-0.961,0.469-1.675l0.09,0.025l-0.09-0.028l0.696-2.26h4.93
			l0.849,2.51c0.236,0.682,0.429,1.246,0.429,1.555c-0.029,0.646-0.922,0.695-1.4,0.707h-0.141V139.78z M129.527,139.969
			c-0.95-0.041-1.905-0.088-2.912-0.088c-1.035,0-2.09,0.047-3.17,0.088l-0.098,0.005v-0.096v-0.731h0.094h0.232
			c0.491,0,1.218-0.11,1.219-0.516c0.004-0.241-0.185-0.821-0.417-1.493l-0.808-2.393h-4.664l-0.657,2.136
			c-0.213,0.72-0.469,1.278-0.466,1.623c0.008,0.517,0.797,0.643,1.499,0.643h0.325v0.098v0.729l-0.096-0.005
			c-0.846-0.041-1.708-0.088-2.554-0.088c-0.756,0-1.521,0.047-2.277,0.088l-0.098,0.005v-0.096v-0.731h0.092h0.128
			c0.784-0.002,1.442-0.449,1.748-1.308l3.386-9.707c0.274-0.784,0.658-1.836,0.839-2.68c0.666-0.225,1.516-0.652,1.921-0.907
			c0.06-0.021,0.119-0.049,0.203-0.049c0.052-0.003,0.166,0.01,0.234,0.121c0.062,0.175,0.127,0.364,0.192,0.533l3.891,11.062
			c0.251,0.739,0.505,1.521,0.78,2.147c0.246,0.562,0.633,0.785,1.312,0.787h0.215v0.098v0.729L129.527,139.969z"/>
		<path d="M130.463,126.175c-1.586,0-1.651,0.381-1.968,1.923h-0.636c0.084-0.591,0.19-1.183,0.257-1.795
			c0.081-0.595,0.122-1.186,0.122-1.797h0.512c0.167,0.636,0.696,0.611,1.267,0.611h10.914c0.567,0,1.097-0.021,1.139-0.656
			l0.506,0.087c-0.078,0.569-0.163,1.141-0.231,1.712c-0.045,0.572-0.045,1.142-0.045,1.712l-0.633,0.234
			c-0.036-0.779-0.142-2.031-1.563-2.031h-3.468v11.25c0,1.63,0.742,1.818,1.754,1.818h0.406v0.635
			c-0.824,0-2.304-0.081-3.448-0.081c-1.267,0-2.752,0.081-3.573,0.081v-0.635h0.4c1.165,0,1.755-0.104,1.755-1.775v-11.293H130.463
			z"/>
		<path d="M138.795,139.969c-0.83,0-2.314-0.084-3.45-0.084c-1.264,0-2.743,0.084-3.57,0.084h-0.095v-0.091v-0.727h0.095h0.399
			c1.166-0.028,1.635-0.043,1.664-1.684l-0.002-11.203h-3.373v-0.09v-0.095h3.557v11.388c0,1.698-0.686,1.867-1.846,1.87h-0.312
			v0.449c0.837-0.007,2.258-0.085,3.482-0.085c1.105,0,2.519,0.078,3.354,0.085v-0.449h-0.312c-1.017-0.003-1.842-0.249-1.844-1.913
			V126.08h3.559c1.423,0.005,1.606,1.212,1.647,1.997l0.46-0.167c0-0.554,0.001-1.105,0.045-1.66
			c0.059-0.544,0.137-1.086,0.216-1.626l-0.321-0.054c-0.095,0.615-0.693,0.647-1.219,0.639h-10.914h-0.109
			c-0.497,0.004-1.035-0.021-1.23-0.615h-0.345c-0.005,0.586-0.047,1.153-0.128,1.716c-0.059,0.586-0.161,1.144-0.24,1.701h0.452
			c0.281-1.477,0.462-1.955,2.047-1.931v0.095v0.09c-1.567,0.026-1.533,0.292-1.879,1.855l-0.016,0.072h-0.073h-0.743l0.015-0.104
			c0.088-0.596,0.19-1.188,0.252-1.799c0.086-0.592,0.127-1.178,0.127-1.783v-0.094h0.093h0.578l0.018,0.067
			c0.148,0.532,0.534,0.535,1.073,0.545h0.109h10.914c0.584-0.01,1.013-0.016,1.049-0.568l0.004-0.103l0.097,0.02l0.602,0.094
			l-0.014,0.095c-0.087,0.566-0.168,1.136-0.232,1.703c-0.044,0.567-0.044,1.137-0.044,1.707v0.064l-0.061,0.024l-0.749,0.272
			l-0.003-0.121c-0.054-0.797-0.137-1.947-1.477-1.947h-3.376v11.16c0.021,1.595,0.654,1.706,1.661,1.727h0.495v0.092v0.726H138.795
			z"/>
		<path d="M143.355,139.243h0.298c0.762,0,1.563-0.104,1.563-1.205V126.96c0-1.104-0.802-1.207-1.563-1.207h-0.298v-0.636
			c0.828,0,2.093,0.084,3.128,0.084c1.062,0,2.329-0.084,3.326-0.084v0.636h-0.299c-0.763,0-1.565,0.104-1.565,1.207v11.078
			c0,1.101,0.803,1.205,1.565,1.205h0.299v0.635c-1.017,0-2.286-0.081-3.343-0.081c-1.039,0-2.283,0.081-3.111,0.081V139.243z"/>
		<path d="M149.713,139.785v-0.447h-0.201c-0.757,0-1.653-0.132-1.653-1.3V126.96c0-1.171,0.896-1.301,1.653-1.303h0.201v-0.449
			c-0.976,0.005-2.2,0.084-3.229,0.084c-1.002,0-2.214-0.079-3.035-0.084v0.449h0.206c0.751,0.002,1.653,0.132,1.655,1.303v11.078
			c-0.002,1.168-0.904,1.3-1.655,1.3h-0.206v0.447c0.815-0.008,2.012-0.083,3.019-0.083
			C147.491,139.702,148.715,139.78,149.713,139.785 M149.81,139.969c-1.023,0-2.287-0.088-3.343-0.088
			c-1.034,0-2.283,0.088-3.111,0.088h-0.09v-0.091v-0.635v-0.092h0.09h0.299c0.761-0.013,1.464-0.078,1.47-1.113V126.96
			c-0.006-1.033-0.709-1.104-1.47-1.115h-0.389v-0.093v-0.728h0.09c0.828,0,2.1,0.083,3.128,0.083c1.055,0,2.322-0.083,3.326-0.083
			h0.088v0.093v0.728h-0.088h-0.298c-0.773,0.012-1.469,0.082-1.477,1.115v11.078c0.008,1.035,0.703,1.101,1.477,1.113h0.386v0.092
			v0.726H149.81z"/>
		<path d="M158.56,139.265c4.105,0,4.819-3.618,4.819-6.701c0-3.091-1.666-6.833-5.178-6.833c-3.701,0-4.802,3.3-4.802,6.132
			C153.399,135.646,155.135,139.265,158.56,139.265 M158.24,124.8c4.51,0,8.101,2.795,8.101,7.298c0,4.866-3.488,8.098-7.99,8.098
			c-4.487,0-7.91-3.046-7.91-7.592C150.44,128.206,153.844,124.8,158.24,124.8"/>
		<path d="M153.309,131.862c0.005-2.847,1.116-6.226,4.892-6.226c3.591,0.008,5.265,3.817,5.272,6.927
			c-0.008,3.083-0.733,6.788-4.912,6.788v-0.087v-0.093c4.021-0.004,4.721-3.525,4.727-6.608c0-3.065-1.65-6.736-5.087-6.741
			c-3.629,0.003-4.699,3.222-4.71,6.04c0.002,3.765,1.723,7.304,5.07,7.31v0.093v0.087
			C155.051,139.348,153.313,135.668,153.309,131.862 M150.345,132.604c0.011-4.449,3.452-7.889,7.895-7.896v0.093v0.093
			c-4.347,0-7.709,3.359-7.715,7.711c0.011,4.495,3.383,7.495,7.827,7.497c4.455-0.002,7.896-3.188,7.9-8.006
			c-0.003-4.446-3.539-7.198-8.013-7.202V124.8v-0.093c4.54,0.005,8.186,2.828,8.192,7.388c-0.005,4.915-3.536,8.183-8.08,8.188
			C153.828,140.277,150.355,137.2,150.345,132.604"/>
		<path d="M180.593,135.71l0.044-0.042v-7.928c0-1.736-1.21-1.988-1.843-1.988h-0.462v-0.635c0.993,0,1.966,0.084,2.956,0.084
			c0.871,0,1.736-0.084,2.606-0.084v0.635h-0.319c-0.888,0-1.883,0.169-1.883,2.687v9.621c0,0.74,0.021,1.479,0.129,2.136h-0.806
			l-10.893-12.141v8.714c0,1.843,0.362,2.475,1.987,2.475h0.361v0.635c-0.909,0-1.816-0.082-2.727-0.082
			c-0.952,0-1.926,0.082-2.879,0.082v-0.635h0.299c1.46,0,1.9-0.995,1.9-2.681v-8.91c0-1.184-0.969-1.9-1.924-1.9h-0.275v-0.635
			c0.806,0,1.627,0.084,2.435,0.084c0.633,0,1.241-0.084,1.878-0.084L180.593,135.71z"/>
		<path d="M180.543,135.668v-0.005l-0.016-0.016L180.543,135.668z M180.593,135.71l0.067-0.061L180.593,135.71z M181.016,140.101
			h0.693c-0.09-0.636-0.109-1.338-0.109-2.041v-9.621c0-2.544,1.067-2.773,1.974-2.781h0.231v-0.449
			c-0.84,0.005-1.671,0.084-2.52,0.084c-0.962,0-1.907-0.079-2.864-0.084v0.449h0.373c0.652,0.008,1.929,0.296,1.929,2.083
			l-0.022,7.995l-0.04,0.042l-0.067,0.067l-9.412-10.637c-0.625,0-1.241,0.084-1.881,0.084c-0.78,0-1.574-0.079-2.345-0.084v0.449
			h0.188c0.994,0.008,2.014,0.758,2.014,1.995v8.909c0,1.691-0.47,2.773-1.992,2.778l-0.209-0.002v0.448
			c0.919-0.006,1.861-0.084,2.79-0.084c0.882,0,1.759,0.078,2.636,0.084v-0.446h-0.274c-1.658-0.002-2.076-0.729-2.076-2.571v-8.949
			L181.016,140.101z M181.822,140.283l-0.875-0.027l-10.733-11.962v8.475c0.025,1.843,0.305,2.36,1.893,2.378h0.456v0.098v0.725
			h-0.09c-0.915,0-1.825-0.084-2.728-0.084c-0.948,0-1.921,0.084-2.88,0.084h-0.088v-0.091v-0.731h0.088h0.299
			c1.394-0.005,1.795-0.901,1.811-2.585v-8.909c0-1.128-0.924-1.808-1.832-1.808h-0.365v-0.093v-0.728h0.088
			c0.812,0,1.635,0.083,2.435,0.083c0.627,0,1.235-0.083,1.951-0.05l9.292,10.461v-7.778c-0.009-1.678-1.132-1.884-1.749-1.896
			h-0.559v-0.093v-0.728h0.097c0.994,0,1.97,0.083,2.953,0.083c0.867,0,1.731-0.083,2.61-0.083h0.088v0.093v0.728h-0.088h-0.322
			c-0.869,0.021-1.77,0.102-1.787,2.594v9.621c0,0.739,0.017,1.477,0.119,2.121l0.017,0.103H181.822z"/>
		<path d="M190.381,127.486h-0.042l-1.97,5.985h3.961L190.381,127.486z M187.29,136.854c-0.208,0.718-0.463,1.271-0.463,1.648
			c0,0.636,0.892,0.741,1.584,0.741h0.236v0.634c-0.846-0.046-1.715-0.081-2.561-0.081c-0.763,0-1.522,0.035-2.279,0.081v-0.634
			h0.12c0.826,0,1.527-0.488,1.837-1.378l3.392-9.702c0.273-0.783,0.654-1.84,0.778-2.624c0.68-0.232,1.521-0.653,1.93-0.91
			c0.059-0.021,0.101-0.043,0.167-0.043c0.061,0,0.102,0,0.145,0.067c0.065,0.165,0.128,0.357,0.192,0.526l3.891,11.06
			c0.252,0.74,0.508,1.521,0.783,2.158c0.255,0.594,0.698,0.846,1.396,0.846h0.13v0.634c-0.954-0.046-1.906-0.081-2.922-0.081
			c-1.033,0-2.093,0.035-3.174,0.081v-0.634h0.234c0.483,0,1.313-0.084,1.313-0.613c0-0.273-0.19-0.845-0.426-1.524l-0.823-2.452
			h-4.801L187.29,136.854z"/>
		<path d="M190.293,127.515l0.042-0.019L190.293,127.515z M188.498,133.378h3.699l-1.84-5.663L188.498,133.378z M188.243,133.56
			l2.029-6.168h0.062h0.046v0.095l-0.022,0.006l0.022-0.006v-0.095h0.065l1.998,6.168H188.243z M192.562,139.781
			c1.047-0.038,2.075-0.079,3.084-0.079c0.982,0,1.902,0.041,2.825,0.078l-0.003-0.442h-0.034c-0.718,0.002-1.216-0.281-1.48-0.904
			c-0.277-0.638-0.53-1.424-0.782-2.161l-3.891-11.063c-0.063-0.17-0.13-0.357-0.18-0.504c-0.019-0.025-0.017-0.025-0.029-0.025
			h-0.042c-0.046,0-0.069,0.015-0.118,0.028c-0.414,0.26-1.261,0.682-1.887,0.845c-0.131,0.8-0.514,1.854-0.787,2.641l-3.387,9.704
			c-0.32,0.919-1.06,1.442-1.924,1.44h-0.031v0.442c0.726-0.037,1.453-0.078,2.19-0.078c0.818,0,1.654,0.041,2.468,0.078v-0.442
			h-0.144c-0.688-0.011-1.652-0.083-1.68-0.835c0.006-0.419,0.266-0.958,0.475-1.674l0.084,0.025l-0.084-0.028l0.694-2.26h4.93
			l0.849,2.51c0.235,0.682,0.427,1.246,0.427,1.555c-0.031,0.646-0.92,0.695-1.4,0.707h-0.143V139.781z M198.556,139.969
			c-0.95-0.038-1.9-0.084-2.909-0.084c-1.031,0-2.092,0.046-3.169,0.084l-0.095,0.005v-0.096v-0.727h0.091h0.231
			c0.49,0,1.22-0.115,1.221-0.521c0.007-0.241-0.185-0.818-0.424-1.493l-0.801-2.393h-4.669l-0.653,2.136
			c-0.213,0.725-0.462,1.278-0.46,1.622c0,0.518,0.794,0.648,1.492,0.648h0.322v0.092v0.73l-0.093-0.005
			c-0.846-0.038-1.711-0.084-2.554-0.084c-0.76,0-1.517,0.046-2.279,0.084l-0.092,0.005v-0.096v-0.727h0.092h0.12
			c0.786-0.005,1.447-0.455,1.757-1.312l3.382-9.707c0.272-0.784,0.652-1.836,0.84-2.678c0.665-0.229,1.512-0.654,1.923-0.909
			c0.057-0.021,0.114-0.046,0.201-0.046c0.055-0.006,0.166,0.007,0.23,0.122c0.064,0.169,0.126,0.36,0.196,0.529l3.888,11.062
			c0.254,0.739,0.508,1.521,0.781,2.152c0.25,0.558,0.632,0.78,1.309,0.787h0.219v0.092v0.73L198.556,139.969z"/>
		<path d="M203.893,137.804c0,0.851,0.589,1.1,1.268,1.188c0.863,0.062,1.817,0.062,2.793-0.045c0.885-0.105,1.649-0.61,2.026-1.144
			c0.337-0.465,0.526-1.057,0.657-1.521h0.612c-0.233,1.207-0.528,2.393-0.784,3.595c-1.854,0-3.721-0.081-5.581-0.081
			c-1.861,0-3.72,0.081-5.582,0.081v-0.635h0.293c0.763,0,1.591-0.104,1.591-1.417V126.96c0-1.104-0.828-1.208-1.591-1.208h-0.293
			v-0.635c1.12,0,2.221,0.084,3.339,0.084c1.081,0,2.137-0.084,3.218-0.084v0.635h-0.531c-0.803,0-1.435,0.022-1.435,1.144V137.804z
			"/>
		<path d="M210.391,139.785c0.244-1.148,0.521-2.271,0.75-3.413h-0.437c-0.131,0.462-0.318,1.03-0.65,1.49
			c-0.396,0.548-1.178,1.062-2.097,1.178c-0.552,0.056-1.103,0.084-1.62,0.084c-0.409,0-0.806-0.017-1.191-0.046
			c-0.686-0.074-1.352-0.369-1.351-1.274v-10.908c0-1.178,0.744-1.238,1.532-1.238h0.435v-0.449
			c-1.039,0.005-2.068,0.085-3.122,0.085c-1.092,0-2.163-0.08-3.246-0.085v0.449h0.201c0.756,0,1.679,0.132,1.679,1.298v10.871
			c0,1.37-0.921,1.512-1.679,1.512h-0.201v0.447c1.826-0.004,3.656-0.083,5.49-0.083
			C206.724,139.702,208.559,139.781,210.391,139.785 M210.466,139.969c-1.864,0-3.726-0.084-5.582-0.084
			c-1.859,0-3.719,0.084-5.586,0.084h-0.088v-0.091v-0.727h0.088h0.297c0.764-0.019,1.491-0.073,1.5-1.325v-10.871
			c-0.009-1.028-0.731-1.099-1.5-1.11h-0.385v-0.093v-0.728h0.088c1.126,0,2.227,0.083,3.342,0.083c1.077,0,2.131-0.083,3.219-0.083
			h0.086v0.093v0.728h-0.086h-0.531c-0.819,0.021-1.329-0.019-1.347,1.051v10.908c0.004,0.791,0.523,1.004,1.185,1.097
			c0.371,0.024,0.766,0.041,1.172,0.041c0.518,0,1.053-0.024,1.601-0.083c0.861-0.103,1.602-0.601,1.969-1.104
			c0.326-0.455,0.511-1.033,0.64-1.493l0.018-0.069h0.071h0.727l-0.021,0.111c-0.238,1.208-0.529,2.388-0.786,3.594l-0.017,0.071
			H210.466z"/>
		<path d="M210.635,126.748h0.263c0.289,0,0.421-0.217,0.421-0.568c0-0.354-0.205-0.479-0.436-0.479h-0.248V126.748z
			 M209.885,127.923v-0.107c0.27-0.038,0.322-0.032,0.322-0.198v-1.65c0-0.232-0.023-0.314-0.316-0.299v-0.114h1.142
			c0.393,0,0.752,0.186,0.752,0.593c0,0.33-0.218,0.576-0.527,0.67l0.369,0.511c0.17,0.232,0.364,0.45,0.488,0.524v0.071h-0.433
			c-0.209,0-0.392-0.437-0.801-1.021h-0.246v0.736c0,0.146,0.05,0.14,0.325,0.178v0.107H209.885z M210.989,128.555
			c1.001,0,1.764-0.848,1.764-1.807s-0.755-1.813-1.764-1.813c-1,0-1.762,0.854-1.762,1.813S209.989,128.555,210.989,128.555
			 M210.989,124.517c1.275,0,2.229,0.979,2.229,2.231c0,1.253-0.954,2.222-2.229,2.222c-1.272,0-2.224-0.969-2.224-2.222
			C208.766,125.496,209.717,124.517,210.989,124.517"/>
	</g>
	<g>
		<circle style="fill:#FFFFFF;" cx="114.725" cy="50.461" r="35.814"/>
		<path style="fill:#004A97;" d="M114.775,86.914c-20.526,0.099-37.418-16.53-37.418-36.771c0-22.121,16.892-37.422,37.418-37.418
			h9.618c20.28-0.004,38.793,15.29,38.793,37.418c0,20.234-18.513,36.771-38.793,36.771H114.775z M114.859,15.793
			C96.103,15.8,80.906,31,80.903,49.756c0.003,18.754,15.2,33.949,33.956,33.953c18.756-0.004,33.954-15.199,33.96-33.953
			C148.812,31,133.615,15.8,114.859,15.793z M107.149,69.838v-40.17c-8.072,3.108-13.795,10.918-13.817,20.088
			C93.354,58.922,99.077,66.732,107.149,69.838z M136.386,49.756c-0.017-9.172-5.749-16.994-13.825-20.092v40.182
			C130.637,66.744,136.369,58.929,136.386,49.756z"/>
	</g>
</g>
<g id="Layer_1">
</g>
</svg>
