<?xml version="1.0" encoding="iso-8859-1"?>
<!-- Generator: Adobe Illustrator 16.0.0, SVG Export Plug-In . SVG Version: 6.00 Build 0)  -->
<!DOCTYPE svg PUBLIC "-//W3C//DTD SVG 1.1//EN" "http://www.w3.org/Graphics/SVG/1.1/DTD/svg11.dtd">
<svg version="1.1" xmlns="http://www.w3.org/2000/svg" xmlns:xlink="http://www.w3.org/1999/xlink" x="0px" y="0px"
	 width="242.65px" height="153.01px" viewBox="0 0 242.65 153.01" style="enable-background:new 0 0 242.65 153.01;"
	 xml:space="preserve">
<g id="fbg1886">
	<g>
		<g>
			<path style="fill:#FFFFFF;" d="M123.768,143.116c41.441-0.477,57.29-12.352,60.263-51.664c0.68-8.969,0.601-14.947,0.601-14.947
				s0.079-5.977-0.601-14.947c-2.973-39.313-18.821-51.187-60.263-51.664c-0.638-0.004-1.255-0.004-1.885-0.004h-1.117
				c-0.628,0-1.247,0-1.883,0.004c-41.443,0.477-57.289,12.35-60.266,51.664c-0.678,8.97-0.598,14.947-0.598,14.947
				s-0.08,5.978,0.598,14.947c2.977,39.312,18.822,51.188,60.266,51.664C119.519,143.12,123.13,143.12,123.768,143.116"/>
		</g>
		<g>
			<path style="fill:#659AD2;" d="M84.663,114.214c0,0,6.775,0.439,11.471-5.434c3.609-4.508,3.92-8.703,3.888-9.934
				c-0.014-0.371,0.159-14.99,0.163-15.508l0,0l-42.032,0.016c0.088,2.262,0.229,4.992,0.465,8.098
				c1.952,25.779,9.438,39.76,26.046,46.465V114.214z"/>
			<path style="fill:#659AD2;" d="M59.306,61.248h39.771h1.107c0,0,0.661-27.723,7.332-35.79
				c12.42-15.004,26.111-14.382,29.75-14.743c0.359-0.039,0.678-0.05,1.004-0.061c-4.445-0.455-9.268-0.699-14.503-0.759
				c-0.638-0.004-1.255-0.004-1.885-0.004h-1.117c-0.628,0-1.247,0-1.883,0.004C77.549,10.37,61.682,22.186,58.645,61.248H59.306z"
				/>
			<path style="fill:#659AD2;" d="M98.643,141.606c0.21,0.004,0.423,0.01,0.638,0.006C99.063,141.616,98.853,141.61,98.643,141.606
				L98.643,141.606z"/>
			<path style="fill:#659AD2;" d="M184.03,61.559c-2.184-28.88-11.332-42.938-32.453-48.563v29.281
				c-0.004,0-0.153-0.011-0.418-0.027c-2.529-0.134-15.717-0.474-20.361,6.752c-1.727,2.693-2.589,5.07-2.991,7.001
				c-0.002,0.009-0.004,0.018-0.004,0.024c-0.057,0.278-0.1,0.542-0.14,0.802c-0.004,0.042-0.017,0.088-0.021,0.131
				c-0.033,0.23-0.058,0.446-0.077,0.66c-0.004,0.063-0.014,0.13-0.018,0.189c-0.019,0.196-0.026,0.372-0.03,0.549
				c-0.002,0.073-0.01,0.151-0.01,0.219c-0.009,0.166,0,0.314,0,0.465c0.002,0.069,0,0.145,0.002,0.213
				c0.002,0.143,0.012,0.267,0.02,0.395c0.006,0.061,0.006,0.13,0.01,0.19c0.013,0.12,0.024,0.22,0.04,0.325
				c0.004,0.054,0.006,0.116,0.018,0.164c0.013,0.099,0.026,0.183,0.042,0.266c0.008,0.041,0.011,0.087,0.021,0.122
				c0.012,0.085,0.027,0.147,0.044,0.211c0.002,0.023,0.008,0.052,0.01,0.07c0.021,0.066,0.029,0.11,0.042,0.15
				c0.002,0.008,0.004,0.022,0.006,0.029c0.008,0.042,0.018,0.065,0.018,0.065c0.002,0.001,0.002,0.004,0.002,0.004h22.696h1.101
				v22.091h-1.101H127.78v0.006h-0.002v22.336c0,0-0.729,10.502-3.443,16.385c-6.213,13.453-16.652,19.236-24.15,19.666
				c-0.203,0.014-0.398,0.014-0.599,0.016c5.714,0.85,12.109,1.285,19.297,1.369c0.636,0.004,4.247,0.004,4.885,0
				c41.441-0.477,57.29-12.352,60.263-51.664c0.68-8.969,0.601-14.947,0.601-14.947S184.71,70.529,184.03,61.559z"/>
		</g>
	</g>
</g>
<g id="Layer_1">
</g>
</svg>
