<?xml version="1.0" encoding="iso-8859-1"?>
<!-- Generator: Adobe Illustrator 16.0.0, SVG Export Plug-In . SVG Version: 6.00 Build 0)  -->
<!DOCTYPE svg PUBLIC "-//W3C//DTD SVG 1.1//EN" "http://www.w3.org/Graphics/SVG/1.1/DTD/svg11.dtd">
<svg version="1.1" xmlns="http://www.w3.org/2000/svg" xmlns:xlink="http://www.w3.org/1999/xlink" x="0px" y="0px"
	 width="242.65px" height="153.01px" viewBox="0 0 242.65 153.01" style="enable-background:new 0 0 242.65 153.01;"
	 xml:space="preserve">
<g id="ideal">
	<rect x="91.693" y="85.416" style="fill:#010101;" width="26.049" height="43.254"/>
	<circle style="fill:#010101;" cx="104.964" cy="63.792" r="14.745"/>
	<g>
		<g>
			<path style="fill:#010101;" d="M167.082,5.639H73.625v141.732h93.458v-0.027c20.415-0.277,36.587-5.35,48.063-15.113
				c13.958-11.875,21.034-30.623,21.034-55.726c0-11.999-1.861-22.762-5.532-31.989c-3.512-8.828-8.702-16.333-15.426-22.308
				c-11.841-10.524-28.464-16.214-48.14-16.538V5.639z M165.313,15.052c18.113,0,33.209,4.907,43.655,14.191
				c11.81,10.495,17.798,26.396,17.798,47.261c0,41.352-20.102,61.453-61.453,61.453c-3.213,0-74.012,0-82.275,0
				c0-8.433,0-114.474,0-122.906C91.302,15.052,162.101,15.052,165.313,15.052z"/>
		</g>
	</g>
	<g>
		<g>
			<path style="fill:#CC1B69;" d="M162.743,128.717h-33.041V26.512h33.041h-1.333c27.555,0,56.885,10.875,56.885,51.237
				c0,42.67-29.33,50.968-56.885,50.968H162.743z"/>
		</g>
	</g>
	<g>
		<g>
			<path style="fill:#FFFFFF;" d="M124.007,52.896h9.072c2.046,0,3.605,0.156,4.678,0.469c1.442,0.425,2.678,1.18,3.706,2.265
				c1.029,1.085,1.812,2.414,2.348,3.985c0.536,1.57,0.805,3.508,0.805,5.812c0,2.024-0.251,3.769-0.754,5.234
				c-0.615,1.79-1.492,3.238-2.633,4.345c-0.86,0.839-2.023,1.493-3.487,1.963c-1.097,0.347-2.561,0.52-4.394,0.52h-9.341V52.896z
				 M128.966,57.064v16.255h3.715c1.39,0,2.393-0.078,3.009-0.234c0.807-0.201,1.478-0.542,2.009-1.021
				c0.532-0.48,0.967-1.27,1.303-2.369c0.337-1.099,0.505-2.597,0.505-4.495c0-1.897-0.168-3.353-0.505-4.369
				c-0.336-1.015-0.807-1.808-1.412-2.377c-0.604-0.569-1.372-0.954-2.303-1.155c-0.694-0.156-2.056-0.234-4.084-0.234H128.966z"/>
			<path style="fill:#FFFFFF;" d="M123.334,52.223v25.937h10.014c1.894,0,3.439-0.185,4.596-0.55c1.56-0.5,2.822-1.214,3.754-2.123
				c1.212-1.175,2.153-2.726,2.8-4.608c0.524-1.529,0.791-3.363,0.791-5.452c0-2.367-0.282-4.396-0.841-6.03
				c-0.566-1.656-1.405-3.079-2.496-4.229c-1.106-1.167-2.453-1.99-4.004-2.447c-1.147-0.334-2.739-0.497-4.868-0.497H123.334z
				 M133.079,53.567c1.973,0,3.483,0.149,4.49,0.443c1.317,0.389,2.465,1.089,3.406,2.082c0.956,1.009,1.696,2.267,2.199,3.739
				c0.51,1.494,0.769,3.376,0.769,5.595c0,1.94-0.241,3.627-0.718,5.015c-0.577,1.681-1.407,3.054-2.465,4.081
				c-0.783,0.763-1.868,1.37-3.225,1.805c-1.023,0.323-2.433,0.487-4.188,0.487c0,0-7.51,0-8.668,0c0-1.236,0-22.011,0-23.248
				C125.832,53.567,133.079,53.567,133.079,53.567z"/>
			<path style="fill:#FFFFFF;" d="M128.294,56.392v17.6h4.387c1.459,0,2.498-0.083,3.175-0.255c0.908-0.226,1.681-0.621,2.294-1.173
				c0.63-0.569,1.119-1.442,1.495-2.672c0.358-1.174,0.533-2.708,0.533-4.691c0-1.988-0.176-3.486-0.538-4.58
				c-0.37-1.118-0.905-2.012-1.589-2.656c-0.693-0.651-1.575-1.096-2.623-1.323c-0.745-0.167-2.13-0.25-4.226-0.25H128.294z
				 M131.202,57.737c2.451,0,3.494,0.118,3.938,0.218c0.81,0.175,1.477,0.507,1.989,0.989c0.52,0.489,0.935,1.195,1.234,2.098
				c0.312,0.942,0.47,2.341,0.47,4.158c0,1.822-0.159,3.268-0.475,4.298c-0.298,0.976-0.672,1.671-1.11,2.066
				c-0.447,0.403-1.025,0.695-1.721,0.868c-0.562,0.143-1.519,0.214-2.847,0.214c0,0-2.14,0-3.043,0c0-1.182,0-13.728,0-14.91
				C130.296,57.737,131.202,57.737,131.202,57.737z"/>
		</g>
		<g>
			<path style="fill:#FFFFFF;" d="M150.227,77.488V52.896h18.204v4.168h-13.245v5.446h12.321v4.169h-12.321v6.64h13.717v4.169
				H150.227z"/>
			<path style="fill:#FFFFFF;" d="M149.555,52.223v25.937h20.02v-5.513c0,0-12.5,0-13.717,0c0-0.964,0-4.331,0-5.295
				c1.202,0,12.322,0,12.322,0v-5.514c0,0-11.12,0-12.322,0c0-0.887,0-3.214,0-4.101c1.212,0,13.246,0,13.246,0v-5.514H149.555z
				 M167.759,53.567c0,0.765,0,2.06,0,2.824c-1.211,0-13.245,0-13.245,0v6.791c0,0,11.118,0,12.32,0c0,0.764,0,2.06,0,2.824
				c-1.202,0-12.32,0-12.32,0v7.985c0,0,12.5,0,13.716,0c0,0.764,0,2.06,0,2.824c-1.202,0-16.128,0-17.331,0
				c0-1.236,0-22.011,0-23.248C152.099,53.567,166.56,53.567,167.759,53.567z"/>
		</g>
		<g>
			<path style="fill:#FFFFFF;" d="M196.672,77.488h-5.401l-2.146-5.581h-9.825l-2.035,5.581h-5.268l9.557-24.592h5.285
				L196.672,77.488z M187.53,67.738l-3.39-9.111l-3.321,9.111H187.53z"/>
			<path style="fill:#FFFFFF;" d="M181.092,52.223l-10.079,25.937h6.722c0,0,1.762-4.83,2.035-5.58c0.811,0,8.096,0,8.893,0
				c0.282,0.734,2.146,5.58,2.146,5.58h6.857l-10.372-25.937H181.092z M186.382,53.567c0.314,0.786,8.626,21.57,9.297,23.248
				c-1.184,0-3.33,0-3.947,0c-0.282-0.734-2.146-5.581-2.146-5.581h-10.757c0,0-1.763,4.832-2.035,5.581c-0.621,0-2.658,0-3.815,0
				c0.647-1.667,8.724-22.451,9.033-23.248C182.707,53.567,185.694,53.567,186.382,53.567z"/>
			<path style="fill:#FFFFFF;" d="M179.858,68.411h8.641l-4.365-11.729L179.858,68.411z M184.146,60.572
				c0.737,1.981,1.983,5.33,2.416,6.494c-1.18,0-3.609,0-4.783,0C182.202,65.907,183.423,62.557,184.146,60.572z"/>
		</g>
		<g>
			<path style="fill:#FFFFFF;" d="M200.82,77.488V53.097h4.959v20.222h12.355v4.169H200.82z"/>
			<path style="fill:#FFFFFF;" d="M200.148,52.425v25.734h18.658v-5.513c0,0-11.152,0-12.355,0c0-1.257,0-20.222,0-20.222H200.148z
				 M205.107,53.769c0,1.257,0,20.222,0,20.222s11.152,0,12.354,0c0,0.764,0,2.06,0,2.824c-1.192,0-14.777,0-15.97,0
				c0-1.235,0-21.81,0-23.046C202.34,53.769,204.26,53.769,205.107,53.769z"/>
		</g>
	</g>
</g>
<g id="Layer_1">
</g>
</svg>
