<?xml version="1.0" encoding="iso-8859-1"?>
<!-- Generator: Adobe Illustrator 16.0.0, SVG Export Plug-In . SVG Version: 6.00 Build 0)  -->
<!DOCTYPE svg PUBLIC "-//W3C//DTD SVG 1.1//EN" "http://www.w3.org/Graphics/SVG/1.1/DTD/svg11.dtd">
<svg version="1.1" xmlns="http://www.w3.org/2000/svg" xmlns:xlink="http://www.w3.org/1999/xlink" x="0px" y="0px"
	 width="242.65px" height="153.01px" viewBox="0 0 242.65 153.01" style="enable-background:new 0 0 242.65 153.01;"
	 xml:space="preserve">
<g id="klarna">
	<g>
		<g>
			<defs>
				<rect id="SVGID_1_" x="12.269" y="47.206" width="226.771" height="62.613"/>
			</defs>
			<clipPath id="SVGID_2_">
				<use xlink:href="#SVGID_1_"  style="overflow:visible;"/>
			</clipPath>
			<path style="clip-path:url(#SVGID_2_);" d="M190.39,78.556c0.088,8.76,0.021,17.52,0.021,26.285c0,2.051-0.223,2.295-2.334,2.295
				c-2.424,0-4.869,0-7.299,0c-1.883,0-2.105-0.205-2.105-2.074c0-8.52,0.021-17.014-0.027-25.527c0-1.424-0.195-2.845-0.439-4.243
				c-0.379-2.029-1.756-3.182-3.713-3.49c-3.58-0.603-6.781,0.531-9.76,2.379c-0.4,0.239-0.551,1.134-0.551,1.709
				c-0.051,7.157-0.027,14.317-0.027,21.476c0,2.689-0.023,5.381,0.027,8.076c0.018,1.244-0.539,1.711-1.74,1.695
				c-2.689-0.051-5.375,0-8.07-0.027c-1.557,0-1.979-0.439-1.979-2.023c0-13.545,0-27.085,0-40.629c0-1.423,0.422-1.868,1.846-1.868
				c2.445-0.022,4.869-0.022,7.293-0.022c1.555,0.022,1.822,0.314,1.844,1.851c0.023,0.575,0.068,1.156,0.111,2.09
				c0.801-0.514,1.268-0.803,1.734-1.095c4.736-3.221,9.982-3.999,15.52-3.021c5.047,0.887,7.803,4.271,8.826,9.074
				C190.077,73.776,190.366,76.178,190.39,78.556L190.39,78.556z M238.595,59.522l-0.555,1.512c-0.135,0.4-0.246,0.733-0.334,1.064
				c-0.09-0.331-0.178-0.687-0.312-1.064l-0.533-1.512h-0.512l-0.221,3.135h0.377l0.09-1.354c0.021-0.467,0.043-1.003,0.066-1.378
				c0.094,0.375,0.223,0.775,0.355,1.217l0.512,1.492h0.311l0.557-1.531c0.154-0.428,0.289-0.825,0.4-1.178
				c0,0.375,0.021,0.912,0.066,1.353l0.066,1.379h0.4l-0.207-3.135H238.595z M115.928,75.58c0.244,9.935,0.2,19.851,0.267,29.794
				c0,1.334-0.489,1.762-1.846,1.762c-2.334,0.016-4.69,0.016-7.025,0c-1.979,0-2.223-0.244-2.334-2.207
				c0-0.199-0.045-0.422-0.089-0.822c-1.334,0.734-2.468,1.445-3.674,2.023c-4.18,2.023-8.516,2.207-12.895,0.91
				c-3.935-1.178-6.358-3.891-7.314-7.875c-0.689-2.867-0.756-5.758-0.178-8.621c0.912-4.451,3.891-6.92,8.048-8.164
				c4.046-1.223,8.181-1.357,12.339-1.312c2.984,0.045,2.984,0,2.984-3c0-0.778,0.045-1.579-0.089-2.334
				c-0.444-2.445-2.067-3.955-4.764-3.955c-4.49,0-9.004,0.2-13.495,0.445c-2.201,0.13-2.49,0.022-2.49-2.204
				c0-1.553,0.022-3.135-0.022-4.691c-0.022-0.873,0.333-1.448,1.156-1.623c6.981-1.492,14.006-2.515,21.083-0.759
				C111.97,64.503,115.75,68.955,115.928,75.58L115.928,75.58z M104.5,95.72c-0.111-1.023-0.022-2.068-0.022-3.113
				c0-1.35,0.045-2.689-0.044-4.047c-0.022-0.332-0.489-0.91-0.734-0.91c-2.718,0.111-5.43,0.178-8.143,0.516
				c-1.645,0.195-2.846,1.396-3.179,3.068c-0.312,1.529-0.4,3.174-0.289,4.73c0.155,1.734,1.4,2.756,3.112,3.045
				c2.734,0.467,5.313-0.066,7.854-1.045C104.167,97.542,104.634,96.925,104.5,95.72L104.5,95.72z M231.837,78.044
				c0.021,9.027,0,18.053,0,27.086c0,1.783-0.223,2.006-2.047,2.006c-2.244,0-4.512,0-6.758,0c-1.93,0-2.068-0.139-2.156-2.029
				c-0.023-0.223-0.045-0.422-0.09-0.645c0-0.09-0.088-0.133-0.223-0.334c-0.289,0.135-0.533,0.201-0.732,0.355
				c-3.023,2.268-6.514,3.141-10.205,3.424c-7.314,0.578-12.9-4.223-13.256-11.543c-0.066-1.795-0.133-3.646,0.156-5.426
				c0.666-4.268,3.295-7.092,7.342-8.242c3.068-0.85,6.27-1.207,9.449-1.584c1.844-0.223,3.734-0.066,5.602-0.045
				c0.801,0.023,1.201-0.244,1.156-1.111c-0.066-1.289,0.066-2.623-0.16-3.89c-0.484-2.843-2.107-4.31-4.98-4.31
				c-4.463,0.022-8.91,0.222-13.379,0.489c-2.223,0.108-2.557-0.069-2.557-2.379c0-1.423,0.021-2.868,0-4.293
				c0-1.117,0.488-1.737,1.623-2.004c5.18-1.156,10.428-1.801,15.719-1.47c2.223,0.161,4.469,0.65,6.58,1.339
				c5.047,1.689,7.826,5.402,8.627,10.583C231.765,75.358,231.813,76.711,231.837,78.044L231.837,78.044z M220.364,96.142
				c-0.066-1.178-0.021-2.357-0.021-3.514c0-1.244-0.023-2.512,0.021-3.779c0.018-0.844-0.289-1.289-1.201-1.244
				c-1.645,0.045-3.312-0.09-4.936,0.021c-5.49,0.422-6.469,2.469-6.535,6.959c-0.045,2.668,1.178,4.092,3.289,4.447
				c2.936,0.488,5.67-0.135,8.338-1.312C220.03,97.415,220.382,96.964,220.364,96.142L220.364,96.142z M72.369,47.206h-7.537
				c-1.89,0.022-2.067,0.197-2.067,2.112v55.966c0,1.557,0.267,1.824,1.801,1.852c2.468,0,4.936,0,7.426,0
				c2.312,0,2.534-0.205,2.534-2.518v-47.5c0-2.623,0-5.202,0-7.826C74.525,47.542,74.191,47.228,72.369,47.206L72.369,47.206z
				 M233.548,59.856h0.957v2.802h0.4v-2.802h0.955v-0.333h-2.312V59.856z M145.808,62.06c-3.379,0.13-6.447,1.201-9.182,3.176
				c-0.379,0.267-0.756,0.534-1.312,0.934c-0.045-0.623-0.088-1.003-0.088-1.378c-0.045-1.868-0.379-2.204-2.201-2.204
				c-2.357-0.022-4.691,0-7.025,0c-2.156,0-2.513,0.336-2.513,2.471v17.966c0,7.275,0,14.496,0,21.754
				c0,1.906,0.423,2.357,2.268,2.357c2.468,0,4.935,0,7.403,0c2,0,2.312-0.316,2.312-2.357c0.021-9.637,0.021-19.287,0-28.912
				c0-0.958,0.266-1.487,1.133-1.915c2.914-1.354,5.869-2.379,9.139-2.243c1.178,0.047,1.756-0.397,1.734-1.667
				c-0.045-2.134-0.045-4.249,0-6.384C147.476,62.504,146.964,62.016,145.808,62.06L145.808,62.06z M22.918,47.228
				c-2.312-0.022-4.603-0.022-6.915,0c-2.401,0.022-3.735,1.401-3.735,3.824V77.89c0,9.076,0,18.119,0,27.195
				c0,1.6,0.222,1.828,1.801,1.828c2.356,0.018,4.691,0.018,7.025,0c2.468-0.021,3.69-1.25,3.69-3.695V49.185
				C24.808,47.586,24.474,47.228,22.918,47.228L22.918,47.228z M48.774,88.071c-5.025-5.27-11.206-8.16-17.942-8.826
				c-2.179-0.023-2.201-0.023-2.134,1.6c0.022,0.602,0.133,1.201,0.222,1.801c1.201,8.004,5.114,14.363,11.605,19.121
				c4.269,3.141,9.093,4.764,14.346,5.252c1.556,0.156,1.823,0.045,1.667-1.49C55.872,98.854,53.443,92.94,48.774,88.071
				L48.774,88.071z M54.916,47.364c-0.601,0.086-1.223,0.064-1.807,0.153c-6.848,1.089-12.65,4.116-17.274,9.296
				c-4.224,4.758-6.581,10.338-7.137,16.672c-0.133,1.645-0.044,1.645,1.689,1.873c2.379-0.581,4.869-0.956,7.137-1.804
				c11.361-4.338,17.592-12.695,19.037-24.728C56.739,47.295,56.472,47.12,54.916,47.364L54.916,47.364z M54.916,47.364"/>
		</g>
	</g>
</g>
<g id="Layer_1">
</g>
</svg>
