<?xml version="1.0" encoding="iso-8859-1"?>
<!-- Generator: Adobe Illustrator 16.0.4, SVG Export Plug-In . SVG Version: 6.00 Build 0)  -->
<!DOCTYPE svg PUBLIC "-//W3C//DTD SVG 1.1//EN" "http://www.w3.org/Graphics/SVG/1.1/DTD/svg11.dtd">
<svg version="1.1" xmlns="http://www.w3.org/2000/svg" xmlns:xlink="http://www.w3.org/1999/xlink" x="0px" y="0px"
	 width="242.65px" height="153.01px" viewBox="0 0 242.65 153.01" style="enable-background:new 0 0 242.65 153.01;"
	 xml:space="preserve">
<g id="maestro">
	<g>
		<g>
			<path d="M90.501,136.576v-8.014c0-3.016-1.918-5.05-5.023-5.086c-1.63-0.017-3.311,0.481-4.489,2.284
				c-0.883-1.428-2.272-2.284-4.221-2.284c-1.365,0-2.704,0.411-3.745,1.91v-1.589h-2.779v12.778h2.805v-7.086
				c0-2.212,1.229-3.391,3.129-3.391c1.842,0,2.779,1.209,2.779,3.374v7.103h2.808v-7.086c0-2.212,1.284-3.391,3.126-3.391
				c1.898,0,2.808,1.209,2.808,3.374v7.103H90.501z M106.171,130.187v-6.389h-2.784v1.553c-0.884-1.143-2.219-1.874-4.033-1.874
				c-3.585,0-6.389,2.819-6.389,6.71c0,3.909,2.804,6.711,6.389,6.711c1.814,0,3.149-0.714,4.033-1.873v1.552h2.784V130.187z
				 M95.822,130.187c0-2.237,1.469-4.087,3.879-4.087c2.293,0,3.846,1.768,3.846,4.087c0,2.333-1.553,4.099-3.846,4.099
				C97.291,134.285,95.822,132.436,95.822,130.187z M165.644,123.466c0.999,0,1.912,0.168,2.74,0.522
				c0.848,0.335,1.576,0.811,2.188,1.407c0.606,0.599,1.087,1.303,1.444,2.135c0.339,0.815,0.509,1.695,0.509,2.656
				c0,0.963-0.17,1.86-0.509,2.674c-0.357,0.815-0.838,1.521-1.444,2.133c-0.612,0.601-1.341,1.068-2.188,1.411
				c-0.828,0.335-1.741,0.515-2.74,0.515c-0.98,0-1.895-0.18-2.741-0.515c-0.835-0.343-1.562-0.811-2.165-1.411
				c-0.622-0.611-1.101-1.317-1.439-2.133c-0.346-0.813-0.526-1.711-0.526-2.674c0-0.961,0.181-1.841,0.526-2.656
				c0.339-0.832,0.817-1.536,1.439-2.135c0.603-0.597,1.33-1.072,2.165-1.407C163.749,123.634,164.663,123.466,165.644,123.466z
				 M165.644,126.096c-0.559,0-1.09,0.104-1.577,0.308c-0.489,0.188-0.913,0.476-1.275,0.828c-0.358,0.366-0.639,0.798-0.847,1.293
				c-0.189,0.516-0.294,1.062-0.294,1.662c0,0.613,0.104,1.167,0.294,1.663c0.208,0.509,0.488,0.941,0.847,1.292
				c0.362,0.366,0.786,0.642,1.275,0.847c0.487,0.205,1.019,0.303,1.577,0.303c0.576,0,1.108-0.098,1.596-0.303
				c0.486-0.205,0.913-0.48,1.272-0.847c0.354-0.351,0.644-0.783,0.839-1.292c0.209-0.496,0.312-1.05,0.312-1.663
				c0-0.6-0.104-1.146-0.312-1.662c-0.195-0.495-0.485-0.927-0.839-1.293c-0.359-0.353-0.786-0.641-1.272-0.828
				C166.752,126.199,166.22,126.096,165.644,126.096z M121.294,130.187c-0.026-3.979-2.489-6.71-6.067-6.71
				c-3.739,0-6.363,2.73-6.363,6.71c0,4.069,2.731,6.711,6.55,6.711c1.927,0,3.685-0.482,5.238-1.784l-1.365-2.06
				c-1.071,0.856-2.428,1.339-3.712,1.339c-1.794,0-3.427-0.832-3.829-3.135h9.495C121.268,130.919,121.294,130.561,121.294,130.187
				z M111.774,129.063c0.293-1.839,1.417-3.088,3.399-3.088c1.793,0,2.936,1.119,3.229,3.088H111.774z M132.993,127.064
				c-0.768-0.483-2.338-1.089-3.979-1.089c-1.518,0-2.428,0.553-2.428,1.492c0,0.857,0.964,1.095,2.159,1.256l1.321,0.18
				c2.766,0.409,4.462,1.588,4.462,3.831c0,2.433-2.142,4.163-5.837,4.163c-2.089,0-3.996-0.536-5.532-1.66l1.321-2.158
				c0.928,0.725,2.32,1.338,4.248,1.338c1.891,0,2.908-0.56,2.908-1.553c0-0.714-0.713-1.125-2.249-1.339l-1.303-0.178
				c-2.854-0.411-4.407-1.696-4.407-3.772c0-2.547,2.088-4.099,5.318-4.099c2.034,0,3.872,0.465,5.211,1.338L132.993,127.064z
				 M146.356,126.35h-4.553v5.766c0,1.284,0.466,2.141,1.856,2.141c0.714,0,1.625-0.238,2.465-0.721l0.796,2.381
				c-0.887,0.606-2.278,0.981-3.474,0.981c-3.284,0-4.444-1.768-4.444-4.73v-5.817h-2.588v-2.552h2.588l-0.001-3.873h2.802v3.873
				h4.553V126.35z M155.974,123.477c0.571,0,1.374,0.107,1.981,0.357l-0.856,2.623c-0.59-0.25-1.179-0.321-1.731-0.321
				c-1.82,0-2.731,1.173-2.731,3.284v7.156h-2.783v-12.778h2.76v1.553C153.333,124.226,154.367,123.477,155.974,123.477
				L155.974,123.477z M175.224,134.725c0.18,0,0.346,0.025,0.504,0.099c0.159,0.069,0.285,0.148,0.41,0.273
				c0.121,0.118,0.203,0.243,0.282,0.4c0.062,0.156,0.097,0.32,0.097,0.489c0,0.183-0.034,0.348-0.097,0.501
				c-0.079,0.146-0.161,0.289-0.282,0.401c-0.125,0.112-0.251,0.209-0.41,0.273c-0.158,0.062-0.324,0.102-0.504,0.102
				c-0.186,0-0.354-0.039-0.514-0.102c-0.16-0.064-0.305-0.161-0.419-0.273c-0.113-0.112-0.209-0.256-0.273-0.401
				c-0.062-0.153-0.103-0.318-0.103-0.501c0-0.169,0.04-0.333,0.103-0.489c0.064-0.157,0.16-0.282,0.273-0.4
				c0.114-0.125,0.259-0.204,0.419-0.273C174.87,134.75,175.038,134.725,175.224,134.725z M175.224,136.989
				c0.135,0,0.256-0.037,0.387-0.09c0.116-0.052,0.222-0.117,0.299-0.212c0.096-0.077,0.16-0.184,0.211-0.307
				c0.052-0.127,0.088-0.249,0.088-0.395c0-0.125-0.036-0.267-0.088-0.383c-0.051-0.115-0.115-0.221-0.211-0.316
				c-0.077-0.082-0.183-0.161-0.299-0.212c-0.131-0.051-0.252-0.068-0.387-0.068c-0.14,0-0.27,0.018-0.397,0.068
				c-0.116,0.051-0.223,0.13-0.318,0.212c-0.077,0.096-0.16,0.201-0.211,0.316c-0.049,0.116-0.069,0.258-0.069,0.383
				c0,0.146,0.021,0.268,0.069,0.395c0.051,0.123,0.134,0.229,0.211,0.307c0.096,0.095,0.202,0.16,0.318,0.212
				C174.954,136.952,175.084,136.989,175.224,136.989z M175.299,135.394c0.155,0,0.269,0.04,0.342,0.104
				c0.09,0.062,0.135,0.159,0.135,0.273c0,0.101-0.04,0.184-0.102,0.25c-0.062,0.061-0.158,0.104-0.274,0.114l0.382,0.44h-0.309
				l-0.353-0.439H175v0.439h-0.243v-1.182H175.299z M175,135.612v0.317h0.296c0.062,0,0.116-0.009,0.161-0.033
				c0.036-0.028,0.057-0.072,0.057-0.126s-0.021-0.085-0.057-0.114c-0.045-0.022-0.099-0.044-0.161-0.044H175z"/>
			<g id="XMLID_12_">
				<rect x="100.245" y="26.294" style="fill:#7E72B3;" width="42.149" height="75.752"/>
				<path id="XMLID_16_" style="fill:#E10814;" d="M102.925,64.17c0-15.366,7.197-29.057,18.4-37.876
					c-8.194-6.453-18.534-10.303-29.778-10.303c-26.606,0-48.175,21.572-48.175,48.179c0,26.621,21.569,48.181,48.175,48.181
					c11.245,0,21.584-3.845,29.778-10.306C110.122,93.229,102.925,79.537,102.925,64.17z"/>
				<path style="fill:#229FDA;" d="M194.686,94.029v-1.554h0.624v-0.317h-1.592v0.317h0.625v1.554H194.686z M197.773,94.029v-1.873
					h-0.494l-0.553,1.286l-0.57-1.286h-0.488v1.873h0.355v-1.406l0.525,1.205h0.351l0.53-1.207v1.408H197.773z"/>
				<path style="fill:#229FDA;" d="M199.277,64.17c0,26.621-21.564,48.181-48.184,48.181c-11.235,0-21.565-3.845-29.769-10.306
					c11.213-8.817,18.409-22.509,18.409-37.875c0-15.366-7.196-29.057-18.409-37.876c8.203-6.453,18.533-10.303,29.769-10.303
					C177.713,15.991,199.277,37.563,199.277,64.17z"/>
			</g>
		</g>
	</g>
</g>
<g id="Layer_1">
</g>
</svg>
