<?xml version="1.0" encoding="iso-8859-1"?>
<!-- Generator: Adobe Illustrator 16.0.4, SVG Export Plug-In . SVG Version: 6.00 Build 0)  -->
<!DOCTYPE svg PUBLIC "-//W3C//DTD SVG 1.1//EN" "http://www.w3.org/Graphics/SVG/1.1/DTD/svg11.dtd">
<svg version="1.1" xmlns="http://www.w3.org/2000/svg" xmlns:xlink="http://www.w3.org/1999/xlink" x="0px" y="0px"
	 width="242.65px" height="153.01px" viewBox="0 0 242.65 153.01" style="enable-background:new 0 0 242.65 153.01;"
	 xml:space="preserve">
<g id="mastercard">
	<g>
		<defs>
			<path id="SVGID_1_" d="M77.096,130.303c0-2.273,1.472-4.148,3.88-4.148c2.275,0,3.881,1.741,3.881,4.148
				c0,2.276-1.606,4.151-3.881,4.151C78.568,134.316,77.096,132.579,77.096,130.303z M87.534,130.303v-6.422h-2.811v1.604
				c-0.935-1.203-2.273-1.873-4.015-1.873c-3.612,0-6.423,2.812-6.423,6.691c0,3.882,2.811,6.69,6.423,6.69
				c1.874,0,3.212-0.669,4.015-1.871v1.605h2.811V130.303z M181.479,130.303c0-2.273,1.472-4.148,3.88-4.148
				c2.275,0,3.883,1.741,3.883,4.148c0,2.276-1.607,4.151-3.883,4.151C182.951,134.316,181.479,132.579,181.479,130.303z
				 M191.783,130.303v-11.509h-2.81v6.69c-0.938-1.203-2.276-1.873-4.016-1.873c-3.612,0-6.424,2.812-6.424,6.691
				c0,3.882,2.812,6.69,6.424,6.69c1.875,0,3.212-0.669,4.016-1.871v1.605h2.81V130.303z M122.061,126.021
				c1.74,0,2.944,1.072,3.212,3.079h-6.69C118.849,127.359,120.054,126.021,122.061,126.021z M122.061,123.611
				c-3.746,0-6.423,2.677-6.423,6.691c0,4.014,2.677,6.69,6.557,6.69c1.875,0,3.748-0.532,5.219-1.737l-1.337-2.007
				c-1.071,0.802-2.409,1.337-3.747,1.337c-1.74,0-3.48-0.802-3.881-3.078h9.501v-1.07
				C128.083,126.288,125.674,123.611,122.061,123.611z M155.651,130.303c0-2.273,1.472-4.148,3.88-4.148
				c2.276,0,3.882,1.741,3.882,4.148c0,2.276-1.605,4.151-3.882,4.151C157.123,134.316,155.651,132.579,155.651,130.303z
				 M165.954,130.303v-6.422h-2.809v1.604c-0.938-1.203-2.275-1.873-4.015-1.873c-3.614,0-6.423,2.812-6.423,6.691
				c0,3.882,2.809,6.69,6.423,6.69c1.872,0,3.211-0.669,4.015-1.871v1.605h2.809V130.303z M139.994,130.303
				c0,3.882,2.677,6.69,6.825,6.69c1.872,0,3.212-0.4,4.55-1.471l-1.338-2.273c-1.072,0.802-2.143,1.205-3.347,1.205
				c-2.274,0-3.88-1.608-3.88-4.151c0-2.407,1.605-4.015,3.88-4.148c1.204,0,2.274,0.403,3.347,1.205l1.338-2.273
				c-1.338-1.073-2.678-1.475-4.55-1.475C142.671,123.611,139.994,126.424,139.994,130.303z M175.858,123.611
				c-1.605,0-2.676,0.805-3.345,1.873v-1.604h-2.811v12.847h2.811v-7.227c0-2.142,0.938-3.347,2.677-3.347
				c0.534,0,1.203,0.134,1.739,0.27l0.802-2.677C177.197,123.611,176.394,123.611,175.858,123.611z M101.185,124.949
				c-1.338-0.937-3.212-1.338-5.22-1.338c-3.212,0-5.354,1.607-5.354,4.15c0,2.141,1.606,3.346,4.417,3.746l1.338,0.132
				c1.473,0.27,2.275,0.67,2.275,1.34c0,0.938-1.07,1.606-2.945,1.606c-1.873,0-3.345-0.669-4.282-1.337l-1.338,2.14
				c1.473,1.072,3.48,1.604,5.487,1.604c3.748,0,5.888-1.737,5.888-4.147c0-2.273-1.739-3.479-4.416-3.881l-1.338-0.134
				c-1.203-0.134-2.14-0.4-2.14-1.205c0-0.937,0.937-1.472,2.409-1.472c1.606,0,3.212,0.67,4.015,1.071L101.185,124.949z
				 M137.184,123.611c-1.607,0-2.677,0.805-3.347,1.873v-1.604h-2.809v12.847h2.809v-7.227c0-2.142,0.938-3.347,2.677-3.347
				c0.535,0,1.205,0.134,1.739,0.27l0.804-2.677C138.521,123.611,137.719,123.611,137.184,123.611z M113.362,123.881h-4.55v-3.882
				h-2.81v3.882h-2.543v2.543h2.543v5.886c0,2.946,1.205,4.684,4.417,4.684c1.204,0,2.542-0.4,3.48-0.936l-0.804-2.409
				c-0.802,0.536-1.74,0.668-2.408,0.668c-1.338,0-1.874-0.802-1.874-2.14v-5.753h4.55V123.881z M71.743,136.728v-8.03
				c0-3.078-1.874-5.086-5.086-5.086c-1.604,0-3.345,0.536-4.549,2.276c-0.937-1.472-2.275-2.276-4.283-2.276
				c-1.338,0-2.676,0.401-3.747,1.873v-1.604h-2.811v12.847h2.811v-7.095c0-2.273,1.204-3.345,3.078-3.345
				c1.874,0,2.81,1.205,2.81,3.345v7.095h2.811v-7.095c0-2.273,1.338-3.345,3.078-3.345c1.875,0,2.81,1.205,2.81,3.345v7.095H71.743
				z"/>
		</defs>
		<clipPath id="SVGID_2_">
			<use xlink:href="#SVGID_1_"  style="overflow:visible;"/>
		</clipPath>
		<rect x="44.577" y="112.103" style="clip-path:url(#SVGID_2_);fill:#13110C;" width="153.897" height="31.582"/>
	</g>
	<g>
		<defs>
			<rect id="SVGID_3_" x="100.248" y="26.321" width="42.155" height="75.746"/>
		</defs>
		<clipPath id="SVGID_4_">
			<use xlink:href="#SVGID_3_"  style="overflow:visible;"/>
		</clipPath>
		<rect x="93.557" y="19.63" style="clip-path:url(#SVGID_4_);fill:#EA560D;" width="55.537" height="89.128"/>
	</g>
	<g>
		<defs>
			<path id="SVGID_5_" d="M102.924,64.194c0-15.391,7.226-29.04,18.334-37.873c-8.164-6.424-18.469-10.304-29.709-10.304
				c-26.632,0-48.177,21.545-48.177,48.177c0,26.63,21.545,48.178,48.177,48.178c11.24,0,21.545-3.882,29.709-10.306
				C110.15,93.367,102.924,79.585,102.924,64.194z"/>
		</defs>
		<clipPath id="SVGID_6_">
			<use xlink:href="#SVGID_5_"  style="overflow:visible;"/>
		</clipPath>
		<rect x="36.681" y="9.325" style="clip-path:url(#SVGID_6_);fill:#E20714;" width="91.268" height="109.737"/>
	</g>
	<g>
		<defs>
			<path id="SVGID_7_" d="M199.277,64.194c0,26.63-21.546,48.178-48.177,48.178c-11.24,0-21.546-3.882-29.708-10.306
				c11.241-8.832,18.333-22.481,18.333-37.873c0-15.391-7.227-29.04-18.333-37.873c8.163-6.424,18.468-10.304,29.708-10.304
				C177.731,16.017,199.277,37.696,199.277,64.194z"/>
		</defs>
		<clipPath id="SVGID_8_">
			<use xlink:href="#SVGID_7_"  style="overflow:visible;"/>
		</clipPath>
		<rect x="114.7" y="9.325" style="clip-path:url(#SVGID_8_);fill:#F49E00;" width="91.269" height="109.737"/>
	</g>
</g>
<g id="Layer_1">
</g>
</svg>
