<?xml version="1.0" encoding="iso-8859-1"?>
<!-- Generator: Adobe Illustrator 16.0.0, SVG Export Plug-In . SVG Version: 6.00 Build 0)  -->
<!DOCTYPE svg PUBLIC "-//W3C//DTD SVG 1.1//EN" "http://www.w3.org/Graphics/SVG/1.1/DTD/svg11.dtd">
<svg version="1.1" xmlns="http://www.w3.org/2000/svg" xmlns:xlink="http://www.w3.org/1999/xlink" x="0px" y="0px"
	 width="242.65px" height="153.01px" viewBox="0 0 242.65 153.01" style="enable-background:new 0 0 242.65 153.01;"
	 xml:space="preserve">
<g id="nordea">
	<g>
		<path style="fill:#004987;" d="M40.753,88.28c0,7.288,6.253,12.378,15.205,12.378S71.16,95.568,71.16,88.28
			c0-7.289-6.251-12.379-15.203-12.379S40.753,80.991,40.753,88.28L40.753,88.28z M46.99,88.281c0-4.303,3.604-7.193,8.967-7.193
			c5.363,0,8.967,2.891,8.967,7.193c0,4.3-3.604,7.19-8.967,7.19C50.594,95.472,46.99,92.581,46.99,88.281L46.99,88.281z"/>
		<path style="fill:#004987;" d="M79.788,78.363c0-0.512,0-1.852,0-1.852h-6.001v23.519h6.057v-12.52
			c0-2.142,0.242-4.321,3.134-5.38c0.958-0.352,1.917-0.507,3.112-0.504l0.869,0.002v-5.733
			C86.958,75.896,83.049,75.896,79.788,78.363L79.788,78.363z"/>
		<path style="fill:#004987;" d="M111.634,67.864c0,0,0,9.45,0,10.476c-2.368-1.567-5.669-2.468-9.189-2.468
			c-8.952,0-15.204,5.09-15.204,12.378c0,7.289,6.252,12.378,15.204,12.378c3.512,0,6.662-0.795,9.192-2.257
			c0,0.532,0,1.648,0,1.648h6.008V88.181c0,0.005,0.001-0.049,0.001-0.049V67.864H111.634L111.634,67.864z M93.478,88.281
			c0-4.303,3.604-7.193,8.967-7.193s8.967,2.891,8.967,7.193c0,4.3-3.604,7.19-8.967,7.19S93.478,92.581,93.478,88.281
			L93.478,88.281z"/>
		<path style="fill:#004987;" d="M152.926,88.269c0,7.404,6.064,12.379,15.088,12.379c3.668,0,7.006-0.646,9.301-2.245
			c0,0.631,0.002,1.641,0.002,1.641h6.014V88.394c0-7.479-6.109-12.504-15.201-12.504C159.178,75.889,152.926,80.98,152.926,88.269
			L152.926,88.269z M159.16,88.269c0-4.302,3.604-7.191,8.969-7.191c5.363,0,8.967,2.89,8.967,7.191c0,4.301-3.604,7.19-8.967,7.19
			C162.764,95.459,159.16,92.569,159.16,88.269L159.16,88.269z"/>
		<path style="fill:#004987;" d="M150.738,90.618c-0.766,3.788-3.332,6.425-6.215,8.005c-2.619,1.434-5.486,2.029-8.895,2.025
			c-9.324-0.011-15.157-5.669-15.156-12.24c0-7.401,6.423-12.576,15.156-12.516c11.602,0.077,15.088,7.272,15.344,11.781
			c0,0.009-22.293,4.837-22.615,4.906c1.576,1.842,4.082,2.837,7.271,2.882c3.789,0.052,6.58-1.44,7.879-3.278L150.738,90.618
			L150.738,90.618z M126.844,87.662c0.75-0.162,15.639-3.39,16.451-3.565c-1.305-1.718-3.955-3.045-7.664-3.072
			C130.525,81.164,127.094,83.869,126.844,87.662L126.844,87.662z"/>
		<path style="fill:#004987;" d="M32.379,100.026l5.821,0.055V71.083h-6.025v19.815L13.908,71.069H7.939
			c0,0.977,0.008,29.028,0.008,29.028h6.024l-0.005-19.4L32.379,100.026L32.379,100.026z"/>
		<path style="fill:#FFFFFF;" d="M194.705,68.667c-1.486-5.401-3.896-9.957-6.828-13.104c19.795-4.532,33.818-3.864,35.773,1.589
			c3.357,9.363-14.908,26.838-31.141,32.051C195.855,84.923,197.07,77.269,194.705,68.667L194.705,68.667z M225.424,65.044
			c1.941-4.004,2.379-7.582,1.307-10.624c-0.273-0.775-0.662-1.451-1.137-2.069c5.48,0.78,10.354,8.929,8.836,18.15
			c-1.166,7.075-3.881,13.26-6.857,16.933c-3.811-1.885-11.83-2.341-20.818-0.889c-2.035,0.329-3.654,0.657-5.498,1.123
			C211.527,82.264,221.482,73.165,225.424,65.044L225.424,65.044z"/>
		<path style="fill:#004987;" d="M194.705,68.667c2.365,8.601,1.15,16.255-2.195,20.537c16.232-5.213,34.498-22.688,31.141-32.051
			c-1.955-5.454-15.979-6.121-35.773-1.589C190.809,58.711,193.219,63.267,194.705,68.667L194.705,68.667z"/>
		<path style="fill:#004987;" d="M225.424,65.044c1.941-4.004,2.379-7.582,1.307-10.624c-0.273-0.775-0.662-1.451-1.137-2.069
			c5.48,0.78,10.354,8.929,8.836,18.15c-1.166,7.075-3.881,13.26-6.857,16.933c-3.811-1.885-11.83-2.341-20.818-0.889
			c-2.035,0.329-3.654,0.657-5.498,1.123C211.527,82.264,221.482,73.165,225.424,65.044L225.424,65.044z"/>
	</g>
</g>
<g id="Layer_1">
</g>
</svg>
