<?xml version="1.0" encoding="iso-8859-1"?>
<!-- Generator: Adobe Illustrator 16.0.0, SVG Export Plug-In . SVG Version: 6.00 Build 0)  -->
<!DOCTYPE svg PUBLIC "-//W3C//DTD SVG 1.1//EN" "http://www.w3.org/Graphics/SVG/1.1/DTD/svg11.dtd">
<svg version="1.1" xmlns="http://www.w3.org/2000/svg" xmlns:xlink="http://www.w3.org/1999/xlink" x="0px" y="0px"
	 width="242.65px" height="153.01px" viewBox="0 0 242.65 153.01" style="enable-background:new 0 0 242.65 153.01;"
	 xml:space="preserve">
<g id="paypal">
	<path style="fill-rule:evenodd;clip-rule:evenodd;fill:#187FAE;" d="M185.089,55.836c-5.674,0-10.16,1.506-13.591,2.191
		l-1.058,8.625c1.716-0.822,7.126-2.327,11.614-2.465c4.487-0.137,7.126,0.82,6.204,4.655c-13.33,0-22.306,2.737-24.153,11.364
		c-2.642,14.785,13.596,14.375,20.062,7.94l-0.793,3.56h11.878l5.149-23.548C202.511,58.162,193.403,55.7,185.089,55.836z
		 M185.881,79.931c-0.659,3.147-3.166,4.519-6.201,4.656c-2.639,0.135-5.017-2.193-3.301-4.931c1.322-2.326,5.017-2.875,7.26-2.875
		c0.923,0,1.982,0,2.903,0C186.277,77.877,186.143,78.837,185.881,79.931z"/>
	<polygon style="fill-rule:evenodd;clip-rule:evenodd;fill:#187FAE;" points="210.562,46.523 200.734,91.705 212.801,91.705 
		222.749,46.523 210.562,46.523 210.562,46.523 	"/>
	<path style="fill-rule:evenodd;clip-rule:evenodd;fill:#187FAE;" d="M155.127,46.663h-22.09l-9.789,45.042h12.83l3.309-14.923
		h9.127c8.994,0,16.402-5.476,18.388-14.786C169.147,51.455,161.477,46.663,155.127,46.663z M154.732,61.996
		c-0.795,3.423-4.234,6.161-7.543,6.161h-5.951l2.646-12.321h6.35C153.542,55.836,155.525,58.574,154.732,61.996z"/>
	<path style="fill-rule:evenodd;clip-rule:evenodd;fill:#195A7F;" d="M69.407,55.836c-5.606,0-10.04,1.506-13.299,2.191
		l-1.042,8.625c1.564-0.822,6.911-2.327,11.342-2.465c4.434-0.137,7.042,0.82,6.258,4.655c-13.167,0-22.032,2.737-23.858,11.364
		c-2.608,14.785,13.428,14.375,19.685,7.94l-0.78,3.56h11.864l5.084-23.548C86.746,58.162,77.62,55.7,69.407,55.836z M70.318,79.931
		c-0.651,3.147-3.26,4.519-6.257,4.656c-2.608,0.135-4.824-2.193-3.129-4.931c1.303-2.326,4.953-2.875,7.04-2.875
		c1.043,0,1.955,0,2.999,0C70.71,77.877,70.45,78.837,70.318,79.931z"/>
	<polygon style="fill-rule:evenodd;clip-rule:evenodd;fill:#195A7F;" points="89.829,56.483 101.692,56.483 103.605,77.459 
		115.214,56.483 127.456,56.483 99.269,106.686 86.002,106.686 94.674,91.927 89.829,56.483 89.829,56.483 	"/>
	<path style="fill-rule:evenodd;clip-rule:evenodd;fill:#195A7F;" d="M39.899,46.663H17.752L7.939,91.705h12.998l3.182-14.923H33.4
		c8.886,0,16.313-5.476,18.302-14.786C53.956,51.455,46.397,46.663,39.899,46.663z M39.501,61.996
		c-0.795,3.423-4.111,6.161-7.426,6.161h-6.101l2.785-12.321h6.365C38.309,55.836,40.43,58.574,39.501,61.996z"/>
	<path style="fill:#195A7F;" d="M225.354,52.363v-5.326h-1.987v-0.714h4.787v0.714h-1.997v5.326H225.354z"/>
	<path style="fill:#195A7F;" d="M228.945,52.363v-6.04h1.197l1.433,4.275c0.132,0.397,0.228,0.695,0.289,0.893
		c0.068-0.219,0.177-0.542,0.321-0.968l1.45-4.2h1.075v6.04h-0.769v-5.057l-1.763,5.057h-0.72l-1.746-5.139v5.139H228.945z"/>
</g>
<g id="Layer_1">
</g>
</svg>
