<?xml version="1.0" encoding="iso-8859-1"?>
<!-- Generator: Adobe Illustrator 16.0.4, SVG Export Plug-In . SVG Version: 6.00 Build 0)  -->
<!DOCTYPE svg PUBLIC "-//W3C//DTD SVG 1.1//EN" "http://www.w3.org/Graphics/SVG/1.1/DTD/svg11.dtd">
<svg version="1.1" xmlns="http://www.w3.org/2000/svg" xmlns:xlink="http://www.w3.org/1999/xlink" x="0px" y="0px"
	 width="242.65px" height="153.01px" viewBox="0 0 242.65 153.01" style="enable-background:new 0 0 242.65 153.01;"
	 xml:space="preserve">
<g id="paysafecard">
	<path style="fill:#1988C7;" d="M38.529,73.084c0.032-1.693,0.391-2.995,1.139-3.907c0.391-0.359,0.879-0.685,1.465-0.944
		c0.619-0.261,1.205-0.391,1.791-0.391h6.968c3.061,0.033,4.623,1.693,4.688,5.046v10.289c-0.032,1.173-0.488,2.215-1.4,3.061
		c-0.879,0.911-1.954,1.367-3.191,1.399h-6.577v7.425h-4.884V73.084z M49.696,74.062c-0.033-0.782-0.391-1.172-1.107-1.205h-3.81
		c-0.912,0.065-1.368,0.554-1.4,1.465v6.837c0.032,0.944,0.521,1.433,1.53,1.465h3.484c0.358,0,0.651-0.131,0.912-0.423
		c0.261-0.196,0.359-0.456,0.359-0.782v-7.357H49.696L49.696,74.062z"/>
	<path style="fill:#1988C7;" d="M69.72,73.931c0.033-0.749-0.423-1.107-1.302-1.075h-9.833v-5.014h11.07
		c3.223,0.065,4.851,1.596,4.916,4.688v10.483c-0.033,1.336-0.423,2.41-1.204,3.289c-0.814,0.911-1.889,1.367-3.191,1.367h-6.675
		c-3.255-0.033-4.917-1.498-4.949-4.461v-4.037c0.033-3.093,1.595-4.656,4.721-4.721h6.479v-0.521H69.72L69.72,73.931z
		 M63.371,81.615c0,0.292,0.131,0.521,0.391,0.684c0.228,0.194,0.521,0.325,0.879,0.325h3.744c0.846,0,1.302-0.325,1.302-0.977
		v-1.399c0-0.75-0.456-1.14-1.334-1.14h-3.712c-0.488,0-0.814,0.064-1.009,0.228c-0.163,0.195-0.261,0.553-0.261,1.073V81.615
		L63.371,81.615z"/>
	<path style="fill:#1988C7;" d="M88.245,90.049c0.391-0.033,0.717-0.164,0.977-0.425c0.26-0.228,0.391-0.488,0.391-0.813v-0.456
		v-0.717h-6.251c-0.814,0-1.465-0.098-1.953-0.325c-0.521-0.195-1.01-0.554-1.53-1.042c-0.489-0.521-0.847-1.074-1.042-1.66
		c-0.228-0.521-0.325-1.204-0.325-2.019V67.843h4.884v13.186c0,1.075,0.423,1.596,1.302,1.596h3.451
		c0.423,0,0.782-0.131,1.075-0.423c0.293-0.229,0.423-0.521,0.423-0.846V80.8V67.777h4.851v21.813
		c-0.033,1.629-0.456,2.899-1.237,3.876c-0.814,0.977-1.921,1.497-3.321,1.497H78.543V89.95h9.703L88.245,90.049L88.245,90.049z"/>
	<path style="fill:#1988C7;" d="M98.306,82.624h8.693c0.782-0.032,1.205-0.359,1.237-0.944v-0.455c0-0.131-0.033-0.262-0.13-0.425
		c-0.196-0.391-0.424-0.554-0.717-0.554h-0.52h-3.778c-1.269-0.031-2.377-0.454-3.288-1.302c-0.912-0.78-1.4-1.757-1.433-2.897
		v-3.776c0.065-2.931,1.628-4.396,4.753-4.461h10.094v5.015h-8.531c-1.009,0-1.498,0.293-1.498,0.912v0.521
		c0,0.651,0.521,0.944,1.53,0.944h4.297c1.139,0.033,2.116,0.457,2.93,1.335c0.814,0.847,1.237,1.889,1.27,3.062v3.646
		c-0.033,1.042-0.488,2.051-1.4,3.061c-0.456,0.488-0.911,0.846-1.368,1.042c-0.455,0.194-1.106,0.26-1.921,0.26h-10.19v-4.981
		H98.306L98.306,82.624z"/>
	<path style="fill:#1988C7;" d="M127.869,73.931c0.033-0.749-0.423-1.107-1.303-1.075h-9.832v-5.014h11.069
		c3.224,0.065,4.852,1.596,4.917,4.688v10.483c-0.033,1.336-0.423,2.41-1.205,3.289c-0.813,0.911-1.888,1.367-3.191,1.367h-6.675
		c-3.255-0.033-4.915-1.498-4.949-4.461v-4.037c0.034-3.093,1.596-4.656,4.722-4.721h6.48v-0.521H127.869L127.869,73.931z
		 M121.521,81.615c0,0.292,0.129,0.521,0.391,0.684c0.228,0.194,0.521,0.325,0.878,0.325h3.744c0.847,0,1.27-0.325,1.304-0.977
		v-1.399c0-0.75-0.457-1.14-1.337-1.14h-3.711c-0.488,0-0.814,0.064-1.009,0.228c-0.162,0.195-0.259,0.553-0.259,1.073
		L121.521,81.615L121.521,81.615z"/>
	<path style="fill:#1988C7;" d="M136.659,64.978c0.034-1.367,0.521-2.442,1.498-3.256c0.944-0.813,2.182-1.236,3.745-1.269h3.092
		v4.851h-1.888c-1.042,0.033-1.562,0.521-1.562,1.465v1.075h3.449v5.014h-3.449V87.64h-4.886V64.978L136.659,64.978z"/>
	<path style="fill:#1988C7;" d="M152.809,80.899v0.325c0,0.391,0.099,0.717,0.326,0.944c0.162,0.292,0.358,0.455,0.619,0.455h0.618
		h9.409v5.014h-10.646c-0.978,0-1.727-0.098-2.279-0.26c-0.586-0.195-1.107-0.521-1.563-0.943c-0.521-0.521-0.91-1.075-1.073-1.629
		c-0.195-0.586-0.293-1.334-0.293-2.312l-0.033-10.027c0.065-3.028,1.628-4.558,4.754-4.624h6.577
		c3.027,0.065,4.591,1.661,4.622,4.787v3.972L152.809,80.899z M158.865,73.833v-0.13c0-0.261-0.098-0.489-0.326-0.651
		c-0.228-0.164-0.521-0.229-0.846-0.229h-3.387c-0.423,0-0.781,0.13-1.074,0.359c-0.325,0.228-0.521,0.521-0.521,0.912v2.019
		L158.865,73.833z"/>
	<path style="fill:#1988C7;" d="M174.135,87.638c-0.749,0-1.399-0.065-2.019-0.194c-0.651-0.098-1.27-0.392-1.922-0.911
		c-0.683-0.586-1.139-1.238-1.399-1.955c-0.261-0.715-0.391-1.497-0.391-2.408v-9.345c-0.032-0.749,0.065-1.432,0.229-2.019
		c0.162-0.585,0.521-1.139,1.041-1.692c0.587-0.586,1.205-0.977,1.824-1.172c0.618-0.163,1.302-0.228,2.084-0.228h7.488v1.172
		h-7.294c-1.302,0-2.312,0.26-3.028,0.782c-0.748,0.585-1.14,1.562-1.14,2.995v9.343c0,0.652,0.098,1.304,0.293,1.923
		s0.553,1.14,1.042,1.594c0.521,0.392,1.075,0.651,1.563,0.749c0.553,0.131,1.106,0.164,1.725,0.164h6.968v1.171h-7.064V87.638
		L174.135,87.638z"/>
	<path style="fill:#1988C7;" d="M201.451,82.233c0,0.75-0.064,1.4-0.163,1.986c-0.162,0.619-0.488,1.236-0.977,1.824
		c-1.009,1.073-2.279,1.594-3.81,1.562h-5.827c-1.498,0-2.735-0.456-3.68-1.367c-0.977-0.879-1.465-2.116-1.465-3.712v-3.028
		c0.065-3.386,1.759-5.144,5.079-5.208h9.702v-1.335c0-1.075-0.326-2.051-0.944-2.864c-0.39-0.521-0.878-0.88-1.399-1.075
		c-0.554-0.13-1.141-0.228-1.824-0.228h-10.581v-1.172h10.027c0.912,0,1.76,0.065,2.508,0.195c0.392,0.065,0.749,0.228,1.075,0.456
		c0.358,0.195,0.651,0.521,0.976,0.912c0.912,1.172,1.336,2.507,1.336,4.004v9.05H201.451L201.451,82.233z M200.279,75.494h-9.8
		c-1.173,0.033-2.084,0.391-2.768,1.075c-0.684,0.717-1.01,1.692-1.01,2.93v2.995c0,0.587,0.065,1.107,0.195,1.596
		c0.131,0.488,0.423,0.944,0.911,1.334c0.848,0.718,1.791,1.042,2.801,1.042h5.926c2.474-0.032,3.744-1.334,3.744-3.938V75.494z"/>
	<path style="fill:#1988C7;" d="M212.392,68.885c-2.703,0.065-4.071,1.53-4.005,4.46v14.292h-1.173V73.345
		c-0.065-3.744,1.727-5.632,5.372-5.632h1.302v1.172H212.392z"/>
	<path style="fill:#1988C7;" d="M233.293,82.104c-0.097,3.777-2.115,5.633-5.99,5.534h-4.33c-0.912,0-1.726-0.065-2.442-0.227
		c-0.748-0.196-1.464-0.652-2.148-1.367c-0.521-0.651-0.846-1.271-0.977-1.922c-0.163-0.65-0.261-1.4-0.229-2.181V73.41
		c0.065-3.842,1.986-5.73,5.796-5.697h9.149v-6.479h1.172L233.293,82.104L233.293,82.104z M232.154,68.885h-9.247
		c-0.651,0-1.27,0.065-1.79,0.228c-0.554,0.13-1.107,0.456-1.628,1.009c-0.489,0.521-0.782,1.009-0.912,1.498
		c-0.163,0.521-0.261,1.107-0.228,1.823v9.116c0,1.53,0.423,2.54,1.334,3.094c0.424,0.261,0.913,0.457,1.466,0.586
		c0.553,0.131,1.14,0.229,1.79,0.229h4.037c1.499,0,2.736-0.359,3.679-1.042c0.945-0.651,1.434-1.791,1.466-3.42v-13.12
		L232.154,68.885L232.154,68.885z"/>
	<path style="fill:#DA0F16;" d="M11.44,67.094c0.391-0.163,0.781-0.293,1.14-0.391c0.716-3.354,3.711-5.893,7.26-5.893
		c3.581,0,6.544,2.54,7.261,5.893c1.107,0.195,1.986,0.651,2.703,1.302c0.032-0.651,0-1.27-0.065-1.855
		c-0.456-5.08-4.721-9.051-9.898-9.051c-5.339,0-9.702,4.232-9.93,9.54c-0.033,0.455-0.033,0.944-0.033,1.432
		C10.333,67.68,10.854,67.354,11.44,67.094z"/>
	<path style="fill:#DA0F16;" d="M25.636,67.843H13.752c-0.586,0-1.172,0.13-1.791,0.391c-0.586,0.26-1.075,0.553-1.465,0.944
		c-0.75,0.879-1.107,2.181-1.14,3.907v9.313c0.032,1.725,0.391,2.995,1.14,3.906c0.391,0.391,0.879,0.683,1.465,0.944
		c0.619,0.259,1.205,0.39,1.791,0.39h11.917c3.061-0.032,4.656-1.725,4.688-5.046v-9.703C30.292,69.536,28.729,67.875,25.636,67.843
		z"/>
</g>
<g id="Layer_1">
</g>
</svg>
