<?xml version="1.0" encoding="UTF-8" standalone="no"?>
<!DOCTYPE svg PUBLIC "-//W3C//DTD SVG 1.1//EN" "http://www.w3.org/Graphics/SVG/1.1/DTD/svg11.dtd">
<svg width="200px" height="80px" viewBox="0 200 1349 451" version="1.1" xmlns="http://www.w3.org/2000/svg" xmlns:xlink="http://www.w3.org/1999/xlink" xml:space="preserve" xmlns:serif="http://www.serif.com/" style="fill-rule:evenodd;clip-rule:evenodd;stroke-linejoin:round;stroke-miterlimit:1.41421;">
    <g id="resurs" transform="matrix(4.63516,0,0,4.63516,-66.5372,89.6049)">
        <g transform="matrix(1,0,0,1,17.921,22.5648)">
            <path d="M49.9,99.6C77.4,99.6 99.7,77.3 99.7,49.8C99.7,22.3 77.4,0 49.9,0C22.4,0 0.1,22.3 0.1,49.8C0.1,77.3 22.4,99.6 49.9,99.6" style="fill:rgb(0,181,226);fill-rule:nonzero;"/>
        </g>
        <g transform="matrix(1,0,0,1,17.921,22.5648)">
            <path d="M276.8,24.1C275.8,21.6 273.9,20.3 271.9,20.3L270,20.3C267.5,20.3 266.3,21.2 266.3,22.8C266.3,25.3 270,25.2 273.5,26C278.3,27 283.3,28.7 283.3,34.7C283.3,40.3 279.4,45.3 271.9,45.3L270,45.3C264.6,45.3 261.6,43 259.7,40.1C259,39 258.5,37.9 258.5,37.6L265.2,34.8C266.2,37.3 268.1,38.6 270,38.6L271.9,38.6C274.4,38.6 275.8,37.2 275.8,35.7C275.8,33.2 272.1,33.4 268.5,32.6C263.7,31.7 258.9,30 258.9,23.8C258.9,17.3 264.1,13.5 270.1,13.5L272,13.5C277.3,13.5 280.3,15.6 282.2,18.4C282.9,19.4 283.6,20.9 283.6,21.2L276.8,24.1Z" style="fill-rule:nonzero;"/>
            <path d="M194.4,24.1C193.4,21.6 191.5,20.3 189.5,20.3L187.6,20.3C185.1,20.3 183.9,21.2 183.9,22.8C183.9,25.3 187.6,25.2 191.1,26C195.9,27 200.9,28.7 200.9,34.7C200.9,40.3 197,45.3 189.5,45.3L187.6,45.3C182.2,45.3 179.2,43 177.3,40.1C176.6,39 176.1,37.9 176.1,37.6L182.8,34.8C183.8,37.3 185.7,38.6 187.6,38.6L189.5,38.6C192,38.6 193.4,37.2 193.4,35.7C193.4,33.2 189.7,33.4 186.1,32.6C181.3,31.7 176.5,30 176.5,23.8C176.5,17.3 181.7,13.5 187.7,13.5L189.6,13.5C194.9,13.5 197.9,15.6 199.8,18.4C200.5,19.4 201.2,20.9 201.2,21.2L194.4,24.1Z" style="fill-rule:nonzero;"/>
            <path d="M246.6,15.7L246.6,15.2L246.6,14.7L246.6,14.1L245.9,14.1L240.3,14.1L239.6,14.1L239.6,44.7L247.2,44.7L247.2,44L247.2,43.3L247.2,26.5C247.2,23.8 249.3,21.8 252,21.8C252,21.8 253.4,21.7 255.1,22.1L255.1,21.7L255.1,14.5L255.1,14.4C254,14 252.7,14.1 252.7,14.1C252.7,14.1 249.6,13.9 246.7,17L246.7,14.7" style="fill-rule:nonzero;"/>
            <path d="M114.6,44.6L122.2,44.6L122.2,28.8L124.1,28.8L134.2,44.6L143.1,44.6L132.7,28.8C138.7,28.3 142.6,24.1 142.6,17.8L142.6,17C142.6,9.5 137.8,4.6 130.2,4.6L114.6,4.6L114.6,44.6ZM122.2,11.7L130.2,11.7C132.8,11.7 135,13.9 135,16.5L135,17C135,19.6 132.8,21.8 130.2,21.8L122.2,21.8L122.2,11.7Z" style="fill-rule:nonzero;"/>
            <path d="M154.8,31.3L172,31.3L172,28.1L172,25.3C172,19.8 167.1,13.5 159.6,13.5C152,13.5 147.2,19.7 147.2,25.3L147.2,33.5C147.2,40.4 152.1,45.3 159.6,45.3C165.4,45.3 168.3,42.8 170.4,39.5C170.9,38.6 171.4,37.5 171.4,37.5L164.4,34.4C163.2,37.3 161.4,38.3 159.7,38.3C157,38.3 154.9,36.1 154.9,33.5L154.9,31.3L154.8,31.3ZM164.3,24.9L163.6,24.9L155.7,24.9L155,24.9L155,24.3C155,23.4 156.5,20.4 159.7,20.4C163,20.4 164.4,23.5 164.4,24.3L164.4,24.9L164.3,24.9Z" style="fill-rule:nonzero;"/>
            <path d="M232.1,44.6L232.1,14.2L224.5,14.2L224.5,34.4C223.3,37.3 221.5,38.3 219.8,38.3C217.1,38.3 215,36.1 215,33.5L215,32.8L215,14.2L207.4,14.2L207.4,33.6C207.4,40.5 212.3,45.4 219.8,45.4C221.9,45.4 223.7,44.6 225.1,43.4L225.1,44.7L232.1,44.7L232.1,44.6Z" style="fill-rule:nonzero;"/>
        </g>
        <g transform="matrix(1,0,0,1,17.921,22.5648)">
            <path d="M134.7,74.2C137.7,72.5 140.1,68.5 140.1,65.9L140.1,65.8C140.1,58.7 135.5,54.8 128.3,54.8L116.7,54.8L115.2,54.8L114.5,54.8L114.5,94.9L128.3,94.9C135.5,94.9 140.1,90.4 140.1,83.2L140.1,82.8C140.1,79.4 138,76.2 134.7,74.2M134.9,83.7C134.9,87.4 131.9,90.2 128.3,90.2L119.7,90.2L119.7,76.4L128.3,76.4C132,76.4 134.9,79.3 134.9,82.9L134.9,83.7ZM134.9,65.2C134.9,68.9 131.9,71.8 128.3,71.8L119.7,71.8L119.7,59.4L128.3,59.4C132,59.4 134.9,61.7 134.9,65.2Z" style="fill-rule:nonzero;"/>
        </g>
        <g transform="matrix(1,0,0,1,17.921,22.5648)">
            <path d="M163.9,78.4L155,78.4C150.2,78.4 146.3,81.5 146.3,86.4L146.3,86.8C146.3,91.7 150.2,94.9 155,94.9L157.6,94.9C159.1,94.9 161.5,93.8 163.4,91.8C163.6,91.6 163.7,91.6 163.9,91.5L163.9,94.9L169.1,94.9L169.1,94.2L169.1,92.8L169.1,75.5C169.1,68.9 164.4,64.6 157.2,64.6C153.9,64.6 151.3,65.6 149.5,67.1C148.4,68 147.5,69.1 146.8,70.3L151.4,72.8C152.9,70.3 155.1,69.1 157.3,69.1C161,69.1 163.9,71.9 163.9,75.5L163.9,78.4ZM157.6,90.3L155,90.3C153.1,90.3 151.5,88.7 151.5,86.8L151.5,85.7C151.5,83.8 153,82.2 155,82.2L163.2,82.2C163.7,82.2 163.9,82.4 163.9,82.9L163.9,85C163.1,87.7 160.5,90.3 157.6,90.3Z" style="fill-rule:nonzero;"/>
        </g>
        <g transform="matrix(1,0,0,1,17.921,22.5648)">
            <path d="M182.6,68.3L182.6,65.1L181.3,65.1L178,65.1L177.3,65.1L177.3,94.9L182.6,94.9L182.6,94.2L182.6,76.2C182.6,72.6 185.5,69.7 189.1,69.7C192.7,69.7 195.7,72.7 195.7,76.2L195.7,94.9L201,94.9L201,94.2L201,84.1L201,76.2C201,69.7 196.3,65.1 189.1,65.1C187.1,65.1 184.4,66.1 182.6,68.3Z" style="fill-rule:nonzero;"/>
        </g>
        <g transform="matrix(1,0,0,1,17.921,22.5648)">
            <path d="M231.4,65.3L221.7,75.1L233.9,94.9L227.3,94.9L217.8,79.3L214.1,83.1L214.1,94.9L208.8,94.9L208.8,84.1L208.8,54.8L214.1,54.8L214.1,77.1L224.8,65.3L231.4,65.3Z" style="fill-rule:nonzero;"/>
        </g>
    </g>
</svg>
