<?xml version="1.0" encoding="iso-8859-1"?>
<!-- Generator: Adobe Illustrator 16.0.0, SVG Export Plug-In . SVG Version: 6.00 Build 0)  -->
<!DOCTYPE svg PUBLIC "-//W3C//DTD SVG 1.1//EN" "http://www.w3.org/Graphics/SVG/1.1/DTD/svg11.dtd">
<svg version="1.1" xmlns="http://www.w3.org/2000/svg" xmlns:xlink="http://www.w3.org/1999/xlink" x="0px" y="0px"
	 width="242.65px" height="153.01px" viewBox="0 0 242.65 153.01" style="enable-background:new 0 0 242.65 153.01;"
	 xml:space="preserve">
<g id="sofort">
	<g id="layer1" transform="translate(85.788367,-282.23124)">
		<path id="path66" style="fill:#EC8023;" d="M-2.85,338.199c-3.102,0-6.109,0.713-8.935,2.043
			c-4.034,1.911-7.694,5.097-10.682,9.326c-1.94,2.745-3.602,5.927-4.902,9.486c-2.453,6.718-2.425,12.167,0.082,15.758
			c1.422,2.029,4.377,4.454,10.387,4.461h0.023c10.946,0,19.117-7.175,24.292-21.325c1.367-3.744,3.17-10.731-0.126-15.447
			C5.299,339.651,1.893,338.204-2.85,338.199L-2.85,338.199z M63.198,338.199c-3.1,0-6.109,0.713-8.933,2.043
			c-4.036,1.911-7.693,5.097-10.681,9.326c-1.942,2.745-3.603,5.927-4.903,9.486c-2.455,6.718-2.425,12.167,0.085,15.758
			c1.419,2.029,4.372,4.454,10.386,4.461h0.019c10.949,0,19.122-7.175,24.292-21.325c1.372-3.744,3.171-10.731-0.123-15.447
			C71.346,339.651,67.941,338.204,63.198,338.199z M-38.005,338.768c-3.602,0-7.102,0-10.237,1.591
			c-3.134,1.591-5.902,4.775-8.032,11.143c-0.462,1.369-0.706,2.549-0.738,3.573c-0.032,1.025,0.146,1.898,0.535,2.658
			c0.48,0.926,1.257,1.797,2.229,2.529c0.974,0.736,2.137,1.334,3.392,1.715c0.048,0.014,0.707,0.201,1.506,0.43
			c0.795,0.229,1.726,0.503,2.315,0.682c0.345,0.104,0.724,0.242,1.067,0.449c0.345,0.204,0.654,0.479,0.848,0.857
			c0.128,0.252,0.197,0.528,0.204,0.823c0.009,0.297-0.042,0.618-0.158,0.956c-0.292,0.863-0.736,1.422-1.582,1.762
			c-0.841,0.341-2.082,0.45-3.965,0.464h-23.511l-3.716,10.21h25.166c2.368,0,6.697,0,10.857-1.769
			c4.16-1.767,8.151-5.298,9.841-12.368c0.635-2.656,0.438-4.82-0.602-6.521c-1.044-1.697-2.933-2.932-5.682-3.721
			c0,0-0.615-0.179-1.339-0.387c-0.72-0.208-1.554-0.445-1.979-0.568c-0.704-0.201-1.246-0.608-1.566-1.127
			c-0.317-0.518-0.414-1.146-0.233-1.788c0.189-0.667,0.647-1.2,1.305-1.568c0.663-0.366,1.531-0.567,2.546-0.567h14.628
			c0.103-0.148,0.197-0.311,0.3-0.459c2.672-3.781,5.906-6.839,9.449-8.999H-38.005z M27.747,338.768
			c-6.51,0-11.356,3.293-13.644,9.458L3.044,378.61h12.115l5.683-15.618l10.706,0.007l3.047-8.365l-10.672-0.008l1.719-4.843
			c0.356-0.869,1.214-1.559,2.466-1.559c0.697,0,8.558,0.002,12.624,0.004c0.105-0.151,0.199-0.313,0.302-0.461
			c2.672-3.781,6.455-6.839,9.998-8.999H27.747L27.747,338.768z M83.948,338.79L69.44,378.635h12.322l5.272-14.024
			c0.259,0.578,3.37,14.024,3.37,14.024h12.955c0,0-2.356-9.88-4.089-13.872c-0.446-1.025-0.91-2.176-1.532-3.138
			c3.66-1.36,8.963-4.278,11.159-10.194c1.349-3.636,1.271-6.576-0.229-8.731c-1.816-2.617-5.516-3.902-11.31-3.909H83.948
			L83.948,338.79z M109.222,338.791c0.779,0.617,1.451,1.321,2.012,2.125c1.433,2.066,1.981,4.522,1.654,7.335h7.338l-11.059,30.394
			h11.049l11.065-30.394h14.196l3.444-9.461H109.222z M92.066,347.017H94.1c3.72,0.002,5.106,1.09,3.847,4.484
			c-1.182,3.188-3.308,5.155-7.349,5.155h-0.016l-2.091-0.003L92.066,347.017L92.066,347.017z M-5.758,347.214h0.002
			c3.785,0.005,4.652,2.199,1.328,11.292h0c-3.415,9.346-5.893,11.697-9.623,11.697h-0.007c-3.634-0.002-4.909-2.302-1.508-11.604
			C-13.026,351.655-9.737,347.214-5.758,347.214L-5.758,347.214z M60.291,347.214h0.004c3.783,0.005,4.651,2.199,1.326,11.292
			c-3.413,9.346-5.893,11.697-9.621,11.697h-0.009c-3.636-0.002-4.905-2.302-1.506-11.604
			C53.022,351.655,56.313,347.214,60.291,347.214L60.291,347.214z"/>
	</g>
</g>
<g id="Layer_1">
</g>
</svg>
