<?xml version="1.0" encoding="iso-8859-1"?>
<!-- Generator: Adobe Illustrator 16.0.4, SVG Export Plug-In . SVG Version: 6.00 Build 0)  -->
<!DOCTYPE svg PUBLIC "-//W3C//DTD SVG 1.1//EN" "http://www.w3.org/Graphics/SVG/1.1/DTD/svg11.dtd">
<svg version="1.1" xmlns="http://www.w3.org/2000/svg" xmlns:xlink="http://www.w3.org/1999/xlink" x="0px" y="0px"
	 width="242.65px" height="153.01px" viewBox="0 0 242.65 153.01" style="enable-background:new 0 0 242.65 153.01;"
	 xml:space="preserve">
<g id="trustly">
	<path style="fill:#7EBA28;" d="M61.274,61.02h-7.511v-4.08l0.019-0.763c-0.627-9.35-8.716-16.421-18.066-15.793
		c-8.475,0.569-15.224,7.317-15.792,15.793v4.842H12.43c-2.479,0-4.957,1.22-4.404,4.099l5.529,24.937
		c0.392,2.166,2.34,3.697,4.537,3.565h37.52c2.498,0,4.042-1.469,4.537-3.565l5.529-24.937C66.212,62.24,63.771,61.02,61.274,61.02z
		 M44.154,71.506c0,0.324,0,0.61-0.648,0.61h-3.413c-0.381,0-0.533,0.057-0.533,0.439v11.801c0,0.61-0.362,0.763-1.201,0.763h-3.356
		c-0.953,0-1.201-0.095-1.201-0.763V72.555c0-0.382-0.152-0.439-0.533-0.439h-3.165c-0.648,0-0.648-0.286-0.648-0.61v-2.917
		c0-0.572,0.419-0.629,1.087-0.629h12.544c0.648,0,1.068,0.077,1.068,0.629V71.506z M47.757,61.02h-21.81v-5.338
		c-0.356-6.023,4.238-11.194,10.26-11.55c6.023-0.356,11.194,4.237,11.55,10.26c0.026,0.43,0.026,0.86,0,1.291V61.02z
		 M32.181,101.647c0.01,3.706-2.985,6.72-6.691,6.729c-3.707,0.011-6.72-2.985-6.73-6.691c-0.011-3.706,2.985-6.72,6.692-6.729
		C29.158,94.945,32.171,97.941,32.181,101.647L32.181,101.647 M54.926,101.647c0.01,3.706-2.986,6.72-6.692,6.729
		c-3.706,0.011-6.719-2.985-6.729-6.691c-0.011-3.712,2.989-6.729,6.701-6.739c3.712-0.011,6.729,2.989,6.74,6.701"/>
	<path style="fill:#13110C;" d="M100.958,69.25h-6.562c-0.714,0-1.042,0.135-1.042,0.849v22.678c0,1.178-0.676,1.506-2.277,1.506
		h-6.485c-1.795,0-2.277-0.193-2.277-1.486V70.119c0-0.734-0.328-0.869-1.042-0.869h-6.06c-1.255,0-1.255-0.541-1.255-1.159v-5.597
		c0-1.081,0.792-1.216,2.065-1.216h24.125c1.254,0,2.065,0.135,2.065,1.216v5.597C102.213,68.709,102.213,69.25,100.958,69.25
		 M120.472,69.964c0.347,0,1.023,0,1.023,0.771v5.231c0,0.54-0.27,1.042-1.023,1.042c-1.217,0-3.185,0.058-4.228,0.464
		c-1.93,0.771-2.567,1.736-2.567,3.587v10.791c0,1.158,0.059,2.432-1.622,2.432h-6.021c-1.698,0-2.199-0.967-2.199-2.123V75.31
		c0-2.817,1.157-5.288,6.792-5.288l9.844-0.039 M130.99,94.322c-3.107,0-6.523-1.447-6.523-7.219v-14.63
		c0-1.254,0.502-2.432,1.737-2.432h6.312c1.121,0,2.201,0.771,2.201,1.891v11.716c0,1.1,0.365,2.258,1.734,2.258
		c1.449,0,1.912-1.119,1.912-2.162V72.473c0-1.159-0.059-2.432,1.623-2.432h6.021c1.699,0,2.199,0.945,2.199,2.123v14.9
		c0,6.35-3.879,7.275-5.598,7.275h-11.639 M162.277,94.9c-4.729,0-9.033-0.945-10.037-1.428c-0.443-0.23-0.85-6.639,0.502-6.312
		c0.986,0.211,2.645,0.811,6.371,0.811c1.986,0,3.107-0.27,3.107-1.215c0-0.637-1.062-1.082-2.414-1.68
		c-2.934-1.254-7.469-3.012-7.469-8.337c0-5.462,6.156-7.624,12.082-7.624c4.729,0,6.119,0.501,6.795,0.771
		c0.848,0.309-0.039,5.983-1.256,5.945c-0.811-0.04-3.551-0.541-5.037-0.541c-1.545,0-2.199,0.27-2.199,1.042
		c0,0.405,0.85,0.907,2.199,1.544c3.049,1.39,7.951,3.687,7.951,9.089c0,7.047-6.291,7.953-10.615,7.953 M190.322,76.719h-2.742
		v9.802c0,0.85,0.676,1.219,1.66,1.219c0.232,0,0.445,0,0.676-0.039c0.676-0.098,1.352,6.119,0.889,6.35
		c-0.656,0.309-3.225,0.869-5.559,0.869c-5.945,0-7.566-3.861-7.604-6.562c-0.041-2.701,0-11.753,0-11.753h-1.488
		c-1.119,0-1.352-0.714-1.352-1.854v-2.933c0-1.255,0.408-1.738,1.68-1.738h1.66v-3.185c0-1.139,1.119-1.718,2.201-1.892l5.17-0.868
		c1.74-0.27,1.74,0.385,1.74,1.64v4.267h2.836c1.119,0,1.428,1.1,1.428,2.219v2.567C191.518,76.102,191.518,76.719,190.322,76.719
		 M203.35,94.283h-6.465c-1.584,0-1.738-0.193-1.738-1.584V62.031c0-0.676,0.424-1.255,1.352-1.255h6.408
		c1.93,0,2.066,0.579,2.066,1.583v29.84c0,1.156,0.037,2.064-1.623,2.064 M221.646,101.482c-0.346,0.867-1.217,1.814-2.123,1.814
		h-5.037c-1.621,0-1.852-0.541-1.41-1.584l3.379-8.029l-8.916-22.079c-0.406-1.043,0-1.583,1.389-1.583h7.334
		c0.887,0,1.795,0.907,2.123,1.796l3.225,9.206l3.666-9.206c0.385-0.889,1.234-1.796,2.125-1.796h5.537
		c1.604,0,1.834,0.541,1.391,1.583l-12.699,29.877"/>
</g>
<g id="Layer_1">
</g>
</svg>
