<?xml version="1.0" encoding="iso-8859-1"?>
<!-- Generator: Adobe Illustrator 16.0.0, SVG Export Plug-In . SVG Version: 6.00 Build 0)  -->
<!DOCTYPE svg PUBLIC "-//W3C//DTD SVG 1.1//EN" "http://www.w3.org/Graphics/SVG/1.1/DTD/svg11.dtd">
<svg version="1.1" xmlns="http://www.w3.org/2000/svg" xmlns:xlink="http://www.w3.org/1999/xlink" x="0px" y="0px"
	 width="242.65px" height="153.01px" viewBox="0 0 242.65 153.01" style="enable-background:new 0 0 242.65 153.01;"
	 xml:space="preserve">
<g id="unionpay">
	<path style="fill:#FFFFFF;" d="M60.677-0.002c-13.15,0-25.356,9.939-28.393,23.118c0,0.003-23.169,100.706-23.169,100.706
		c-1.715,7.42-0.176,14.895,4.213,20.511c4.319,5.514,10.99,8.68,18.292,8.68h150.346c13.144,0,25.353-9.935,28.402-23.105
		c0-0.015,23.167-100.718,23.167-100.718c1.716-7.418,0.176-14.908-4.217-20.513c-4.323-5.514-10.985-8.677-18.289-8.677H60.677z"/>
	<path style="fill:#ED1C24;" d="M62.786,16.319h48.034c6.708,0,10.877,5.458,9.31,12.184l-22.361,96.004
		c-1.575,6.726-8.287,12.18-14.993,12.18H34.741c-6.712,0-10.88-5.454-9.306-12.18L47.8,28.503
		C49.368,21.777,56.073,16.319,62.786,16.319L62.786,16.319z"/>
	<path style="fill:#00569E;" d="M106.835,16.319h48.03c6.711,0,10.88,5.458,9.305,12.184l-22.365,96.004
		c-1.574,6.726-8.279,12.18-14.999,12.18H78.783c-6.72,0-10.881-5.454-9.307-12.18l22.358-96.004
		C93.409,21.777,100.122,16.319,106.835,16.319L106.835,16.319z"/>
	<path style="fill:#00898E;" d="M159.883,16.319h48.027c6.712,0,10.88,5.458,9.306,12.184l-22.357,96.004
		c-1.575,6.726-8.287,12.18-15,12.18h-48.033c-6.713,0-10.881-5.454-9.306-12.18l22.357-96.004
		C146.451,21.777,153.164,16.319,159.883,16.319L159.883,16.319z"/>
	<path style="fill-rule:evenodd;clip-rule:evenodd;fill:#FFFFFF;" d="M152.475,106.623h4.526l1.02-4.361h-4.526L152.475,106.623z
		 M155.279,94.621l-1.202,5.135c0,0,1.658-0.882,2.573-1.129c0.907-0.245,2.305-0.399,2.305-0.399l0.857-3.606H155.279z
		 M157.022,87.198l-1.16,4.956c0,0,1.631-0.767,2.538-1.013c0.913-0.242,2.306-0.337,2.306-0.337l0.836-3.606H157.022z
		 M167.038,87.198l-4.533,19.365h1.566l-0.948,4.02h-1.567l-0.288,1.228h-5.566l0.288-1.228h-11.316l0.886-3.707l1.152-0.018
		l4.604-19.66l0.914-3.975h5.686l-0.449,2.015c0,0,1.434-1.1,2.84-1.47c1.412-0.368,9.644-0.513,9.644-0.513l-0.956,3.942H167.038z"
		/>
	<path style="fill-rule:evenodd;clip-rule:evenodd;fill:#FFFFFF;" d="M170.258,83.264h6.058l0.071,2.256
		c-0.036,0.365,0.288,0.549,0.998,0.562h1.019l-0.913,3.732h-3.275c-2.84,0.204-3.916-1.02-3.845-2.386L170.258,83.264z"/>
	<path style="fill-rule:evenodd;clip-rule:evenodd;fill:#FFFFFF;" d="M171.283,100.961h-5.785l0.773-3.324h6.601l0.738-3.043h-6.522
		l0.878-3.736h18.148l-0.886,3.736h-6.095l-0.737,3.043h6.102l-0.78,3.324h-6.593l-1.09,1.402h2.678l0.948,4.188
		c0.077,0.412,0.12,0.684,0.261,0.854c0.141,0.148,0.955,0.222,1.419,0.222h0.81l-0.956,4.087h-2.061
		c-0.315,0-0.793-0.014-1.439-0.07c-0.627-0.049-1.097-0.408-1.526-0.604c-0.393-0.183-0.99-0.65-1.181-1.427l-0.921-4.175
		l-2.712,4.125c-0.879,1.28-2.102,2.271-4.274,2.271h-4.217l0.851-3.621h1.616c0.464,0,0.871-0.188,1.159-0.34
		c0.296-0.137,0.557-0.295,0.845-0.734L171.283,100.961z"/>
	<path style="fill-rule:evenodd;clip-rule:evenodd;fill:#FFFFFF;" d="M107.375,91.866h15.298l-0.878,3.655h-6.144l-0.749,3.113
		h6.246l-0.907,3.781h-6.246l-1.211,5.043c-0.142,0.566,1.528,0.644,2.133,0.644l3.103-0.415l-0.997,4.154h-7.061
		c-0.563,0-0.994-0.063-1.616-0.218c-0.604-0.145-0.883-0.415-1.174-0.822c-0.278-0.394-0.692-0.738-0.482-1.616l1.61-6.705h-3.479
		l0.925-3.846h3.485l0.742-3.113H106.5L107.375,91.866z"/>
	<path style="fill-rule:evenodd;clip-rule:evenodd;fill:#FFFFFF;" d="M117.275,85.309h6.284l-0.915,3.806h-8.578l-0.886,0.819
		c-0.362,0.379-0.52,0.221-1.016,0.491c-0.478,0.254-1.465,0.731-2.787,0.731h-2.747l0.882-3.67h0.823
		c0.701,0,1.177-0.062,1.412-0.22c0.252-0.158,0.537-0.556,0.847-1.186l1.397-2.867h6.253L117.275,85.309z"/>
	<path style="fill-rule:evenodd;clip-rule:evenodd;fill:#FFFFFF;" d="M129.708,91.585c0,0,1.61-1.567,4.521-2.08
		c0.661-0.12,4.843-0.084,4.843-0.084l0.499-2.103h-8.843L129.708,91.585z M138.094,93.182h-8.765l-0.429,1.763h7.591
		c0.894-0.091,1.082,0.021,1.153-0.011L138.094,93.182z M126.117,83.242h5.356l-0.619,2.699c0,0,1.609-1.354,2.77-1.807
		c1.152-0.457,3.795-0.844,3.795-0.844l8.646-0.056l-2.334,9.826c-0.399,1.68-0.906,2.769-1.229,3.271
		c-0.31,0.492-0.653,0.932-1.385,1.347c-0.717,0.379-1.363,0.597-1.968,0.659c-0.583,0.05-1.455,0.067-2.664,0.081h-8.336
		l-1.862,7.778c-0.189,0.77-0.268,1.131-0.113,1.335c0.142,0.188,0.437,0.4,0.83,0.4l3.648-0.352l-0.991,4.263h-4.126
		c-1.3,0-2.264-0.018-2.925-0.08c-0.639-0.05-1.3,0-1.757-0.353c-0.414-0.329-1.02-0.766-1.032-1.223
		c0.013-0.425,0.14-1.124,0.351-2.081L126.117,83.242z"/>
	<path style="fill-rule:evenodd;clip-rule:evenodd;fill:#FFFFFF;" d="M142.698,99.109l-0.338,2.365
		c-0.184,0.728-0.316,1.286-0.843,1.771c-0.556,0.499-1.217,1.013-2.819,1.013l-2.951,0.116l0.126,2.663
		c0.021,0.773,0.211,0.693,0.338,0.815c0.14,0.13,0.273,0.187,0.407,0.222l0.941-0.035l2.812-0.172l-0.922,3.911h-3.247
		c-2.291,0-3.979-0.07-4.561-0.484c-0.57-0.377-0.675-0.809-0.703-1.536l-0.437-10.413h5.194l0.062,2.13h1.244
		c0.437,0,0.718-0.043,0.894-0.154c0.147-0.113,0.246-0.288,0.316-0.555l0.394-1.656H142.698z"/>
	<path style="fill:#FFFFFF;" d="M68.472,46.971c-0.182,0.86-3.521,16.232-3.528,16.239c-0.717,3.1-1.237,5.335-3.001,6.769
		c-1.026,0.822-2.186,1.226-3.55,1.226c-2.186,0-3.465-1.093-3.69-3.156L54.66,67.35c0,0,0.668-4.168,0.675-4.189
		c0,0,3.507-14.015,4.125-15.878c0.021-0.098,0.036-0.154,0.057-0.218c-6.811,0.084-8.027,0.021-8.111-0.099
		c-0.036,0.148-0.218,1.019-0.218,1.019L47.618,63.79l-0.31,1.339l-0.583,4.372c0,1.304,0.253,2.369,0.766,3.254
		c1.624,2.854,6.27,3.282,8.891,3.282c3.381,0,6.551-0.738,8.702-2.027c3.711-2.21,4.695-5.661,5.566-8.705l0.401-1.567
		c0,0,3.605-14.563,4.224-16.458c0.021-0.102,0.035-0.151,0.049-0.214C70.397,47.139,68.936,47.08,68.472,46.971z"/>
	<path style="fill:#FFFFFF;" d="M88.405,75.876c-2.426-0.027-3.262-0.027-6.087,0.098l-0.113-0.189
		c0.246-1.09,0.52-2.144,0.766-3.233l0.337-1.458c0.527-2.302,1.04-4.941,1.097-5.753c0.056-0.492,0.211-1.708-1.173-1.708
		c-0.591,0-1.209,0.281-1.828,0.562c-0.337,1.209-1.026,4.632-1.35,6.185c-0.695,3.293-0.745,3.666-1.054,5.279l-0.204,0.218
		c-2.488-0.027-3.353-0.027-6.213,0.098l-0.134-0.217c0.479-1.961,0.957-3.919,1.406-5.876c1.209-5.282,1.49-7.303,1.82-9.974
		l0.226-0.189c2.797-0.373,3.464-0.464,6.501-1.086l0.247,0.278l-0.458,1.708c0.506-0.309,1.005-0.619,1.533-0.899
		c1.419-0.682,3.008-0.9,3.873-0.9c1.321,0,2.776,0.373,3.38,1.897c0.585,1.364,0.198,3.044-0.562,6.368l-0.387,1.68
		c-0.78,3.697-0.906,4.379-1.328,6.896L88.405,75.876z"/>
	<path style="fill:#FFFFFF;" d="M98.224,75.876c-1.462-0.014-2.396-0.021-3.31-0.011c-0.907,0.011-1.793,0.046-3.149,0.108
		l-0.076-0.111l-0.085-0.105c0.365-1.406,0.562-1.898,0.752-2.39c0.182-0.496,0.357-0.995,0.682-2.411
		c0.422-1.838,0.682-3.145,0.871-4.267c0.19-1.114,0.31-2.042,0.442-3.113l0.113-0.092l0.119-0.098
		c1.448-0.2,2.369-0.334,3.304-0.485c0.941-0.151,1.897-0.323,3.409-0.604l0.049,0.126l0.049,0.126
		c-0.281,1.149-0.562,2.306-0.836,3.455c-0.274,1.149-0.542,2.305-0.809,3.454c-0.548,2.432-0.759,3.353-0.885,3.979
		c-0.127,0.625-0.162,0.963-0.372,2.221l-0.135,0.112L98.224,75.876z"/>
	<path style="fill:#FFFFFF;" d="M113.61,67.283c-0.142,0.622-0.683,2.977-1.435,3.968c-0.499,0.717-1.125,1.152-1.8,1.152
		c-0.188,0-1.384,0-1.412-1.771c-0.015-0.868,0.162-1.768,0.387-2.759c0.639-2.793,1.392-5.148,3.304-5.148
		C114.165,62.725,114.256,64.461,113.61,67.283z M119.918,67.561c0.851-3.722,0.203-5.458-0.633-6.516
		c-1.266-1.61-3.476-2.137-5.788-2.137c-1.385,0-4.681,0.155-7.26,2.545c-1.842,1.7-2.713,4.027-3.227,6.262
		c-0.521,2.267-1.125,6.393,2.629,7.879c1.18,0.5,2.839,0.654,3.915,0.654c2.769,0,5.595-0.773,7.713-3.041
		C118.913,71.409,119.658,68.679,119.918,67.561z"/>
	<path style="fill:#FFFFFF;" d="M182.733,59.099c-3.022,0.551-3.816,0.675-6.713,1.076l-0.225,0.182
		c-0.036,0.246-0.063,0.471-0.099,0.707c-0.45-0.739-1.083-1.385-2.102-1.775c-1.293-0.499-4.329,0.155-6.909,2.523
		c-1.842,1.694-2.713,4.003-3.226,6.22c-0.521,2.25-1.125,6.347,2.628,7.823c1.181,0.493,2.271,0.64,3.347,0.584
		c1.151-0.06,2.207-0.665,3.197-1.494c-0.092,0.351-0.176,0.706-0.268,1.057l0.169,0.219c2.706-0.126,3.535-0.126,6.452-0.092
		l0.268-0.218c0.422-2.496,0.83-4.927,1.94-9.731c0.527-2.281,1.082-4.559,1.637-6.836L182.733,59.099z M173.175,71.542
		c-0.5,0.707-1.673,1.142-2.349,1.142c-0.189,0-1.385,0-1.412-1.756c-0.015-0.865,0.161-1.758,0.387-2.742
		c0.639-2.77,1.391-5.11,3.303-5.11c1.244,0,1.849,1.22,1.681,3.205c-0.099,0.446-0.184,0.85-0.303,1.377
		c-0.204,0.865-0.442,1.715-0.653,2.576C173.631,70.742,173.42,71.219,173.175,71.542z"/>
	<path style="fill:#FFFFFF;" d="M136.422,75.876c-2.426-0.027-3.255-0.027-6.087,0.098l-0.113-0.189
		c0.254-1.09,0.521-2.144,0.773-3.233l0.331-1.458c0.526-2.302,1.04-4.941,1.103-5.753c0.05-0.492,0.204-1.708-1.181-1.708
		c-0.584,0-1.201,0.281-1.82,0.562c-0.337,1.209-1.026,4.632-1.356,6.185c-0.688,3.293-0.745,3.666-1.054,5.279l-0.204,0.218
		c-2.482-0.027-3.346-0.027-6.207,0.098l-0.133-0.217c0.478-1.961,0.955-3.919,1.405-5.876c1.209-5.282,1.483-7.303,1.82-9.974
		l0.225-0.189c2.791-0.373,3.466-0.464,6.495-1.086l0.245,0.278l-0.449,1.708c0.499-0.309,1.005-0.619,1.525-0.899
		c1.419-0.682,3.009-0.9,3.872-0.9c1.322,0,2.777,0.373,3.389,1.897c0.575,1.364,0.188,3.044-0.569,6.368l-0.38,1.68
		c-0.787,3.697-0.913,4.379-1.336,6.896L136.422,75.876z"/>
	<path style="fill:#FFFFFF;" d="M157.359,46.939c-0.006,0-2.01,0.042-2.01,0.042c-5.223,0.052-7.316,0.039-8.182-0.071
		c-0.077,0.373-0.218,1.058-0.218,1.062c0,0-1.863,8.673-1.863,8.68c0,0-4.477,18.444-4.688,19.309
		c4.554-0.064,6.432-0.067,7.212,0.021c0.182-0.872,1.244-6.01,1.251-6.02c0,0,0.906-3.785,0.963-3.905c0,0,0.274-0.4,0.569-0.555
		h0.407c3.93,0,8.378,0,11.857-2.565c2.362-1.743,3.985-4.33,4.709-7.479c0.183-0.78,0.324-1.7,0.324-2.629
		c0-1.188-0.239-2.393-0.943-3.345C164.972,47.013,161.45,46.981,157.359,46.939z M159.975,55.978
		c-0.436,1.919-1.666,3.536-3.275,4.33c-1.336,0.664-2.945,0.72-4.617,0.72h-1.09l0.098-0.439c0,0,1.982-8.652,1.976-8.625
		l0.057-0.439l0.042-0.348l0.787,0.077c0,0,4.098,0.366,4.203,0.387C159.771,52.26,160.452,53.876,159.975,55.978z"/>
	<path style="fill:#FFFFFF;" d="M100.873,61.053c1.597-1.101,1.8-2.643,0.443-3.444c-1.356-0.794-3.746-0.545-5.35,0.555
		c-1.608,1.111-1.799,2.653-0.449,3.451C96.874,62.413,99.271,62.163,100.873,61.053z"/>
	<path style="fill-rule:evenodd;clip-rule:evenodd;fill:#FFFFFF;" d="M202.855,59.071l-0.238-0.274
		c-2.973,0.615-3.515,0.71-6.249,1.075l-0.218,0.186c-0.007,0.046-0.014,0.091-0.021,0.137l-0.014-0.035
		c-2.053,4.716-1.982,3.697-3.641,7.395c-0.007-0.169-0.016-0.295-0.021-0.454l-0.415-8.03l-0.254-0.274
		c-3.127,0.615-3.204,0.71-6.086,1.075l-0.232,0.186c-0.014,0.109-0.027,0.214-0.041,0.327l0.027,0.028
		c0.352,1.855,0.274,1.448,0.633,4.351c0.161,1.42,0.387,2.864,0.548,4.281c0.295,2.34,0.449,3.528,0.795,7.099
		c-1.947,3.232-2.411,4.449-4.268,7.281v0.007l-1.328,2.102c-0.147,0.226-0.288,0.365-0.471,0.436
		c-0.21,0.091-0.498,0.127-0.879,0.127h-1.012l-0.843,3.78l3.768-0.056c2.186-0.018,3.569-1.096,4.321-2.46l2.306-4.022
		L202.855,59.071z"/>
</g>
<g id="Layer_1">
</g>
</svg>
