<?xml version="1.0" encoding="iso-8859-1"?>
<!-- Generator: Adobe Illustrator 16.0.4, SVG Export Plug-In . SVG Version: 6.00 Build 0)  -->
<!DOCTYPE svg PUBLIC "-//W3C//DTD SVG 1.1//EN" "http://www.w3.org/Graphics/SVG/1.1/DTD/svg11.dtd">
<svg version="1.1" xmlns="http://www.w3.org/2000/svg" xmlns:xlink="http://www.w3.org/1999/xlink" x="0px" y="0px"
	 width="242.65px" height="153.01px" viewBox="0 0 242.65 153.01" style="enable-background:new 0 0 242.65 153.01;"
	 xml:space="preserve">
<g id="viabill">
	<path style="fill:#3BAEE4;" d="M119.93,50.706c4.05,0,8.099-0.111,12.148,0.055c3.551,0.111,6.99,0.833,10.318,2.33
		c6.545,3.051,8.709,11.483,5.547,17.141c-1.221,2.274-1.053,3.051,0.723,4.826c5.658,5.492,6.711,14.034,2.273,20.025
		c-2.885,3.884-7.045,5.824-11.65,6.713c-2.605,0.499-5.27,0.776-7.877,0.998c-2.162,0.166-3.549-1.109-4.492-2.885
		c-0.611-1.165-1.166-2.33-1.664-3.551c-0.777-1.774-0.057-2.939,1.941-2.939c3.383,0,6.768,0,10.096-0.499
		c0.889-0.167,1.719-0.444,2.551-0.832c2.221-0.999,3.662-2.663,3.773-5.159c0.111-2.607-1.221-4.438-3.385-5.714
		c-2.107-1.221-4.438-1.498-6.768-1.553c-3.938-0.111-7.932-0.167-11.871-0.111c-2.94,0.056-4.882-1.221-5.991-3.883
		c-0.333-0.722-0.666-1.442-0.998-2.219c-0.888-1.997-0.222-3.052,1.941-3.106c1.553,0,3.051,0,4.604,0
		c3.939-0.056,7.931-0.111,11.871-0.223c1.387-0.056,2.662-0.388,3.883-1.054c3.107-1.664,3.273-5.547,0.389-7.544
		c-2.273-1.554-4.938-1.609-7.545-1.609c-5.879-0.111-11.815-0.056-17.695,0c-2.496,0-4.216-1.109-5.27-3.273
		c-0.556-1.11-1.055-2.164-1.498-3.329c-0.666-1.608,0.056-2.663,1.774-2.663C111.387,50.595,115.659,50.65,119.93,50.706
		C119.93,50.65,119.93,50.65,119.93,50.706z"/>
	<path style="fill:#3BAEE4;" d="M114.605,102.351c-3.717,0.167-6.103-1.553-7.601-4.881c-4.659-10.207-9.374-20.414-14.034-30.621
		c-0.11-0.222-0.166-0.389-0.277-0.61c-0.443-0.832-0.776-1.775-1.996-1.775c-1.166,0-1.554,0.943-1.942,1.831
		c-4.715,10.262-9.541,20.524-14.201,30.843c-2.385,5.325-5.824,5.437-9.818,5.159c-1.442-0.111-2.275-1.388-1.942-2.829
		c0.111-0.5,0.277-1.055,0.5-1.498c6.601-14.367,13.203-28.734,19.803-43.103c1.664-3.605,4.493-4.881,8.266-4.715
		c3.384,0.167,5.658,1.72,7.045,4.771c6.546,14.312,13.147,28.68,19.748,42.991c0.222,0.499,0.444,0.999,0.555,1.498
		c0.333,1.553-0.555,2.773-2.163,2.939C115.88,102.406,115.215,102.351,114.605,102.351z"/>
	<path style="fill:#3BAEE4;" d="M30.287,102.406c-3.772,0.056-6.158-1.553-7.6-4.715C16.141,83.435,9.595,69.234,3.049,54.977
		c-0.222-0.499-0.444-0.998-0.61-1.498c-0.499-1.608,0.111-2.885,1.775-3.162c2.718-0.444,5.381-0.333,7.655,1.608
		c0.888,0.776,1.498,1.664,1.997,2.663c4.66,10.207,9.375,20.414,14.035,30.621c0.499,1.054,0.832,2.386,2.219,2.44
		c1.442,0.056,1.775-1.331,2.274-2.385c4.66-10.152,9.375-20.303,14.035-30.51c2.108-4.604,5.936-5.103,9.652-4.549
		c1.886,0.277,2.496,1.886,1.553,3.883c-1.387,3.106-2.829,6.213-4.271,9.319c-5.215,11.316-10.429,22.577-15.588,33.894
		C36.222,100.798,33.781,102.573,30.287,102.406z"/>
	<path style="fill:#3BAEE4;" d="M172.963,76.667c0-7.433,0-14.866,0-22.3c0-2.496,1.164-3.55,3.605-3.661
		c4.16-0.222,5.158,0.999,5.104,5.048c-0.111,11.261-0.057,22.522-0.057,33.783c0,3.162,1.221,4.438,4.383,4.438
		c3.494,0,7.045,0.056,10.539,0c1.721,0,3.219,0.555,4.438,1.664c1.555,1.442,2.664,3.273,3.773,5.104
		c0.666,1.109,0.111,1.997-1.221,2.219c-0.332,0.056-0.721,0-1.055,0c-8.543,0-17.029,0-25.572,0c-2.719,0-3.994-1.22-3.994-3.938
		C172.963,91.534,172.963,84.101,172.963,76.667z"/>
	<path style="fill:#3BAEE4;" d="M208.354,76.667c0-7.433,0-14.866,0-22.3c0-2.607,1.109-3.55,3.717-3.717
		c4.383-0.277,5.047,1.553,4.992,5.048c-0.111,11.262-0.055,22.522-0.055,33.783c0,3.272,1.164,4.438,4.492,4.438
		c3.494,0,7.045,0,10.541,0c1.664,0,3.105,0.555,4.271,1.664c1.553,1.442,2.662,3.273,3.771,5.104
		c0.666,1.055,0.166,1.942-1.055,2.163c-0.389,0.056-0.832,0.056-1.221,0.056c-8.543,0-17.029,0-25.572,0
		c-2.719,0-3.938-1.22-3.938-3.938C208.354,91.534,208.354,84.101,208.354,76.667z"/>
	<path style="fill:#3BAEE4;" d="M47.927,102.406c-3.495,0.389-4.882-1.387-3.162-4.992c6.601-14.201,13.146-28.458,19.637-42.659
		c1.942-4.271,5.936-5.103,9.708-4.382c1.831,0.333,2.33,1.941,1.387,3.994c-2.107,4.66-4.271,9.319-6.435,13.924
		c-4.438,9.651-8.876,19.305-13.313,29.012C54.25,100.742,51.81,102.629,47.927,102.406z"/>
	<path style="fill:#3BAEE4;" d="M157.264,76.778c0-7.434,0-14.867,0-22.3c0-2.663,1.109-3.772,3.771-3.772c0.611,0,1.166,0,1.775,0
		c1.719,0.055,2.996,1.22,3.162,2.884c0.055,0.389,0,0.833,0,1.22c0,14.534,0,29.124,0,43.657c0,3.439-0.998,4.438-4.383,4.438
		c-0.221,0-0.443,0-0.666,0c-2.273,0-3.605-1.331-3.605-3.605C157.264,91.812,157.264,84.267,157.264,76.778z"/>
</g>
<g id="Layer_1">
</g>
</svg>
