<svg xmlns="http://www.w3.org/2000/svg" width="194.35" height="109.3" viewBox="0 0 194.35 109.3"><title>visa-verified_1</title><path d="M114.33,39.36l-.86,5.41h9.22l-1.12,7.11h-9.22l-2,12.69h-8.41l5.13-32.33h18.56l-1.13,7.12Z" fill="#0061af"/><path d="M133.77,64.57h-8.41l5.12-32.33h8.41Z" fill="#0061af"/><path d="M152.42,39.36l-.86,5.41H161l-1.12,7.11h-9.48l-.89,5.57h10l-1.13,7.12H140l5.12-32.33h18.4l-1.13,7.12Z" fill="#0061af"/><path d="M175.63,39.36h2c5.4,0,8.7,3.26,7.78,9-1,6.3-5.72,9-10.73,9h-1.89ZM163.24,64.57h11.92c9,0,17.54-7.07,19-16.16s-4.86-16.17-13.86-16.17H168.36Z" fill="#0061af"/><path d="M67.83,87.84c2.28,0,3.35,1.81,3,4a4.25,4.25,0,0,1-4.16,3.93c-2.28,0-3.36-1.71-3-3.93A4.32,4.32,0,0,1,67.83,87.84ZM57,100.55h5.6l.28-1.94h.06a4.6,4.6,0,0,0,4.41,2.53c4.71,0,8.59-4.31,9.31-9.38s-1.9-9.33-6.58-9.33a7.17,7.17,0,0,0-5.22,2.3l1.79-12.56h-5.6Z" fill="#0061af"/><path d="M77.14,83H83.6l2.93,9,5.41-9h6.37L81.92,109.3H75.63l7-11.14Z" fill="#0061af"/><path d="M127.82,100.55l8.64-28.47h7.7l-8.63,28.47Z" fill="#0061af"/><path d="M124.38,72.08l-6.94,12.08c-1.76,3.16-2.79,4.75-3.28,6.76h-.11c.12-2.54-.23-5.65-.27-7.41L113,72.08h-13l-.13.77c3.33,0,5.3,1.68,5.84,5.1l2.53,22.6h8l16.15-28.47Z" fill="#0061af"/><path d="M184.31,100.55l-.22-4.23h-9.62l-2,4.24h-8.36l15.17-28.41h10.27l2.56,28.41Zm-.88-16.8a62.2,62.2,0,0,1,0-6.68h-.11c-.47,1.42-2.49,5.66-3.38,7.75l-2.86,6.24h6.76Z" fill="#0061af"/><path d="M152.26,101.37a21.52,21.52,0,0,1-11.63-3.27l3.66-5.61c2.32,1.29,4.14,2.79,8.32,2.79A3.59,3.59,0,0,0,156,93.66c1.08-1.86-.25-2.85-3.26-4.55l-1.49-1c-4.46-3-6.39-5.94-4.29-11,1.35-3.24,4.89-5.68,10.74-5.68a17.25,17.25,0,0,1,10,3.45l-4.23,4.94c-2.14-1.74-3.92-2.62-6-2.62a3.57,3.57,0,0,0-3.28,1.48c-.8,1.59.26,2.67,2.6,4.12L158.6,84c5.41,3.42,6.7,7,5.34,10.35C161.62,100.08,157,101.37,152.26,101.37Z" fill="#0061af"/><path d="M47.59,39.36l-.85,5.41h9.47l-1.12,7.11H45.61l-.89,5.57h10l-1.13,7.12H35.19l5.12-32.33h18.4l-1.12,7.12Z" fill="#0061af"/><path d="M71,38.65h.81c2.75,0,5.75.52,5.2,4s-3.73,4-6.47,4h-.82ZM77.27,51.3a10.59,10.59,0,0,0,8.52-9.13c1.1-6.9-3.27-10-9.65-10H63.57L58.45,64.56h8.41l2-12.44h.09l6,12.44H85.34Z" fill="#0061af"/><path d="M95.71,64.57H87.3l5.12-32.33h8.41Z" fill="#0061af"/><path d="M49.78,0,36.55,21.06l-18,30.46-1-11.36-.82-12.34H.17l-.17,1c4.24,0,6.75,2.14,7.45,6.51l3.21,28.78,0-.07,0,.43H22.08l20.3-41.06L54.69,0Z" fill="#0061af"/><polygon points="21.4 34.69 22.36 34.69 34.31 14.45 34.32 13.5 7.13 13.5 7.13 14.46 20.23 20.04 21.4 34.69" fill="#fdb913"/></svg>