<?xml version="1.0" encoding="iso-8859-1"?>
<!-- Generator: Adobe Illustrator 16.0.0, SVG Export Plug-In . SVG Version: 6.00 Build 0)  -->
<!DOCTYPE svg PUBLIC "-//W3C//DTD SVG 1.1//EN" "http://www.w3.org/Graphics/SVG/1.1/DTD/svg11.dtd">
<svg version="1.1" xmlns="http://www.w3.org/2000/svg" xmlns:xlink="http://www.w3.org/1999/xlink" x="0px" y="0px"
	 width="242.65px" height="153.01px" viewBox="0 0 242.65 153.01" style="enable-background:new 0 0 242.65 153.01;"
	 xml:space="preserve">
<g id="visa">
	<g>
		<polygon style="fill:#FFFFFF;" points="0,3.801 0,148.864 242.65,148.864 242.65,3.801 0,3.801 		"/>
		<polygon style="fill:#0058A0;" points="40.191,53.799 54.344,107.629 70.766,107.629 96.326,45.284 79.66,45.284 63.56,87.6 
			56.943,54.486 40.191,53.799 		"/>
		<polygon style="fill:#0058A0;" points="102.551,45.051 92.737,107.629 108.266,107.629 118.293,45.051 102.551,45.051 		"/>
		<path style="fill:#0058A0;" d="M163.924,59.997l2.297-13.101c0,0-6.849-2.755-15.062-2.755c-8.208,0-26.028,5.285-26.028,20.7
			c0,15.402,22.158,16.103,22.158,24.601s-19.873,7.593-25.79,2.061l-2.511,13.597c0,0,8.899,3.427,16.865,3.427
			c7.983,0,27.856-1.84,27.856-21.821c0-17.501-22.119-14.047-22.119-24.629C141.591,62.075,143.837,51.503,163.924,59.997
			L163.924,59.997z"/>
		<path style="fill:#0058A0;" d="M162.776,107.629h17.138l2.953-8.976h21.006l1.739,8.872h14.84l-13.604-61.77h-13.693
			c0,0-5.023,0.566-7.318,6.669C183.688,58.209,162.776,107.629,162.776,107.629L162.776,107.629z"/>
		<polygon style="fill:#FFFFFF;" points="201.362,85.756 187.446,85.756 196.112,62.761 201.362,85.756 		"/>
		<path style="fill:#0058A0;" d="M61.825,78.955l-4.882-24.469c0,0-0.661-9.179-7.148-9.179H23.28v1.272
			C23.28,46.579,49.511,50.954,61.825,78.955L61.825,78.955z"/>
		<rect y="116.747" style="fill:#FAA61A;" width="242.65" height="36.263"/>
		<rect style="fill:#0058A0;" width="242.65" height="36.25"/>
	</g>
</g>
<g id="Layer_1">
</g>
</svg>
