<?xml version="1.0" encoding="utf-8"?>
<svg id="master-artboard" viewBox="0 0 2500 1000" version="1.1" xmlns="http://www.w3.org/2000/svg" x="0px" y="0px" style="enable-background:new 0 0 1400 980;" width="2500px" height="1000px"><rect id="ee-background" x="0" y="0" width="2500" height="1000" style="fill: white; fill-opacity: 0; pointer-events: none;"/><path d="M 1363.9122314453125 459.41168212890625" style="fill: rgb(159, 166, 178); fill-opacity: 1; stroke: rgb(0, 0, 0); stroke-opacity: 1; stroke-width: 0; paint-order: fill;"/><g transform="matrix(0.8819431274151159, 0, 0, 0.8819431274151159, 0, 0.6327554366540085)"><g id="GLS">
	<path d="M 2078.52099609375 277.0840148925781 L 1972.678955078125 825.7540283203125 L 2227.52587890625 825.7540283203125 L 2252.594970703125 688.5880126953125 L 2137.7041015625 688.5880126953125 L 2217.780029296875 277.0840148925781 Z" fill="#243262"/>
	<g>
		<path fill="#243262" d="M2548.515,398.239c22.975,0,55.703,5.568,75.898,12.533l23.67-126.032&#10;&#9;&#9;&#9;c-29.242-4.876-60.59-8.352-95.391-8.352c-151.791,0-222.816,90.514-222.816,192.171c0,132.293,135.082,130.9,135.082,187.302&#10;&#9;&#9;&#9;c0,28.549-20.195,43.869-63.365,43.869c-29.242,0-71.02-6.965-95.391-16.018l-25.764,135.777&#10;&#9;&#9;&#9;c27.852,5.564,67.543,9.053,107.924,9.053c135.078,0,230.469-89.824,230.469-199.139c0-128.812-135.775-130.904-135.775-187.997&#10;&#9;&#9;&#9;C2483.063,416.34,2499.772,398.239,2548.515,398.239"/>
		<path fill="#243262" d="M1862.663,277.084c-208.883,0-342.572,155.97-342.572,347.457c0,119.76,63.371,202.604,222.113,202.604&#10;&#9;&#9;&#9;c63.371,0,129.516-11.131,183.117-34.107l50.832-265.294h-139.951l-29.951,161.539c-12.531,3.484-27.154,4.188-38.297,4.188&#10;&#9;&#9;&#9;c-70.314,0-95.383-38.99-95.383-89.818c0-95.395,58.492-194.264,177.545-194.264c33.424,0,70.328,6.268,103.051,16.709&#10;&#9;&#9;&#9;c3.484,0.699,6.967,2.09,10.445,2.787c11.836,4.177,21.586,9.05,29.246,12.528l27.848-143.433&#10;&#9;&#9;&#9;C1973.384,285.439,1915.589,277.084,1862.663,277.084"/>
		<path fill="#FFD026" d="M815.459,278.473l-37.6,182.431h259.018C821.725,778.407,396.295,724.795,283.498,593.196&#10;&#9;&#9;&#9;c-96.785-113.496-13.23-307.76,274.334-428.212C273.051,251.32,113.6,479.009,207.598,632.202&#10;&#9;&#9;&#9;c106.535,173.367,437.969,245.779,732.494,161.527c197.053-69.619,280.602-166.41,311.936-218.621l-48.742,252.054h193.567&#10;&#9;&#9;&#9;l105.147-548.677h-686.54V278.473z"/>
	</g>
</g></g></svg>