<?xml version="1.0" encoding="utf-8"?>
<svg id="master-artboard" viewBox="0 0 2500 1000" version="1.1" xmlns="http://www.w3.org/2000/svg" x="0px" y="0px" style="enable-background:new 0 0 1400 980;" width="2500px" height="1000px"><rect id="ee-background" x="0" y="0" width="2500" height="1000" style="fill: white; fill-opacity: 0; pointer-events: none;"/><g transform="matrix(0.8819431274151159, 0, 0, 0.8819431274151159, 0, 0.6327554366540085)"><g id="Postnord">
	<path fill="#01A0D8" d="M2170.406,660.916c0,125.381-102.135,177.912-198.273,177.912c-95.549,0-194.096-51.316-194.096-172.519&#10;&#9;&#9;c0-124.208,100.316-177.935,198.277-177.935C2071.871,488.373,2170.406,540.301,2170.406,660.916 M2040.818,664.515&#10;&#9;&#9;c0-41.213-26.863-69.277-66.893-69.277c-40.604,0-67.506,28.064-67.506,69.277c0,38.795,27.502,67.471,67.506,67.471&#10;&#9;&#9;C2014.553,731.986,2040.818,703.31,2040.818,664.515 M401.15,664.515c0,95.549-65.705,174.312-167.816,174.312&#10;&#9;&#9;c-62.715,0-91.982-31.033-91.982-31.033v115.818H19.519V499.107h121.832v32.256c0,0,31.66-42.99,100.938-42.99&#10;&#9;&#9;C343.81,488.373,401.15,566.582,401.15,664.515 M272.147,664.515c0-41.213-26.874-69.277-66.894-69.277&#10;&#9;&#9;c-40.607,0-67.492,28.064-67.492,69.277c0,38.795,27.476,67.471,67.492,67.471C245.871,731.986,272.147,703.31,272.147,664.515&#10;&#9;&#9; M2321.227,669.872c0-50.15,30.414-65.678,71.062-65.678c25.051,0,41.184,5.967,41.184,5.967l3.01-112.244&#10;&#9;&#9;c0,0-7.797-3.58-28.678-3.58c-68.088,0-86.578,42.994-86.578,42.994v-38.223h-121.85v329.607h121.85V669.872L2321.227,669.872z&#10;&#9;&#9; M2820.459,397.024v431.692h-121.816v-32.27c0,0-31.65,42.998-100.934,42.998c-101.52,0-158.871-78.221-158.871-176.125&#10;&#9;&#9;c0-95.546,65.689-174.343,167.826-174.343c62.719,0,91.979,31.039,91.979,31.039v-99.107L2820.459,397.024z M2702.193,663.32&#10;&#9;&#9;c0-38.82-27.439-67.471-67.43-67.471c-40.605,0-66.895,28.648-66.895,67.471c0,41.164,26.863,69.244,66.895,69.244&#10;&#9;&#9;C2675.332,732.564,2702.193,704.484,2702.193,663.32 M1627.236,488.373c-71.057,0-96.766,42.99-96.766,42.99v-32.254h-121.826&#10;&#9;&#9;v329.607h121.826V659.732c0-41.789,15.557-60.912,53.156-60.912c37.627,0,43.012,31.055,43.012,70.477v159.42h123.016V626.294&#10;&#9;&#9;C1749.652,535.529,1706.094,488.373,1627.236,488.373 M1285.611,425.076h-121.818v403.64h121.818V601.826h57.354l55.538-102.716&#10;&#9;&#9;h-112.891V425.076z M1012.701,618.527c-39.434-5.973-56.734-5.973-56.734-21.48c0-13.135,16.107-18.523,47.764-18.523&#10;&#9;&#9;c53.758,0,100.939,17.919,100.939,17.919l21.498-92.55c0,0-51.961-14.914-121.24-14.914c-116.447,0-177.361,44.777-177.361,116.412&#10;&#9;&#9;c0,55.525,32.836,88.385,128.996,100.906c40.613,5.385,55.535,7.754,55.535,22.701c0,14.334-16.115,19.102-44.182,19.102&#10;&#9;&#9;c-60.928,0-118.264-25.668-118.264-25.668l-24.484,95.551c0,0,57.33,20.27,131.998,20.27c125.404,0,183.334-44.199,183.334-116.438&#10;&#9;&#9;C1140.498,664.515,1109.431,633.455,1012.701,618.527 M813.808,660.916c0,125.381-102.119,177.912-198.262,177.912&#10;&#9;&#9;c-95.557,0-194.094-51.316-194.094-172.519c0-124.208,100.322-177.935,198.264-177.935&#10;&#9;&#9;C715.271,488.373,813.808,540.301,813.808,660.916 M684.218,664.515c0-41.213-26.863-69.277-66.893-69.277&#10;&#9;&#9;c-40.596,0-67.473,28.064-67.473,69.277c0,38.795,27.469,67.471,67.473,67.471C657.939,731.986,684.218,703.31,684.218,664.515"/>
</g></g><path d="M 1363.9122314453125 459.41168212890625" style="fill: rgb(159, 166, 178); fill-opacity: 1; stroke: rgb(0, 0, 0); stroke-opacity: 1; stroke-width: 0; paint-order: fill;"/></svg>