<svg xmlns="http://www.w3.org/2000/svg" viewBox="0 0 739.63 165.6"><defs><style>.cls-1{fill:#74caf1;}.cls-2{fill:#3b9ac9;}.cls-3{font-size:150px;fill:#fff;font-family:AvenirNextCondensed-DemiBoldItalic, Avenir Next Condensed;font-weight:700;font-style:italic;}.cls-4{letter-spacing:-0.02em;}</style></defs><title>Asset 1</title><g id="Layer_2" data-name="Layer 2"><g id="Layer_1-2" data-name="Layer 1"><path class="cls-1" d="M133.33,22.46A86,86,0,0,0,100,29a86,86,0,0,0-33.33-6.51C29.85,22.46,0,44.24,0,71.09c0,1.21.06,2.4.18,3.58,0,.2,0,.4.07.61,2.91,24.9,31.53,44.45,66.42,44.45a88.73,88.73,0,0,0,23.6-3.14,79.55,79.55,0,0,0,9.73-3.37c18.36-7.75,31.19-21.71,33.08-37.94,0-.2,0-.4.07-.61H67c2.14-16,14.88-29.68,33-37.33A79.71,79.71,0,0,1,109.73,34a88.77,88.77,0,0,1,23.6-3.14c34.6,0,63,19.23,66.34,43.84,0,.2,0,.4.07.61,0-.2,0-.4.07-.61.12-1.18.18-2.37.18-3.58C200,44.24,170.15,22.46,133.33,22.46Z"/><path class="cls-2" d="M199.75,75.28c0-.2,0-.41-.07-.61-3.3-24.61-31.74-43.84-66.34-43.84A88.77,88.77,0,0,0,109.73,34,79.71,79.71,0,0,0,100,37.34C81.87,45,69.13,58.7,67,74.67h66.16c0,.2,0,.4-.07.61-1.9,16.23-14.72,30.19-33.08,37.94a79.55,79.55,0,0,1-9.73,3.37,88.73,88.73,0,0,1-23.6,3.14c-34.89,0-63.51-19.55-66.42-44.45A36.09,36.09,0,0,0,0,79.47c0,26.86,29.85,48.63,66.67,48.63A86,86,0,0,0,100,121.59a86,86,0,0,0,33.33,6.51c36.82,0,66.67-21.77,66.67-48.63A36.31,36.31,0,0,0,199.75,75.28Z"/><text class="cls-3" transform="translate(219.74 128.1)">Quick<tspan class="cls-4" x="318.29" y="0">P</tspan><tspan x="387.6" y="0">ay</tspan></text></g></g></svg>